<?xml version="1.0" encoding="UTF-8"?>
<svg width="64px" height="64px" viewBox="0 0 64 64" version="1.1" xmlns="http://www.w3.org/2000/svg" xmlns:xlink="http://www.w3.org/1999/xlink">
    <title>Icon/add</title>
    <g id="Icon/add" stroke="none" stroke-width="1" fill="none" fill-rule="evenodd">
        <path d="M32,14 C33.0543618,14 33.9181651,14.8158778 33.9945143,15.8507377 L34,16 L34,30 L48,30 C49.1045695,30 50,30.8954305 50,32 C50,33.0543618 49.1841222,33.9181651 48.1492623,33.9945143 L48,34 L34,34 L34,48 C34,49.1045695 33.1045695,50 32,50 C30.9456382,50 30.0818349,49.1841222 30.0054857,48.1492623 L30,48 L30,34 L16,34 C14.8954305,34 14,33.1045695 14,32 C14,30.9456382 14.8158778,30.0818349 15.8507377,30.0054857 L16,30 L30,30 L30,16 C30,14.8954305 30.8954305,14 32,14 Z" id="Shape" fill="#000000"></path>
    </g>
</svg>