<?xml version="1.0" encoding="UTF-8"?>
<svg width="64px" height="64px" viewBox="0 0 64 64" version="1.1" xmlns="http://www.w3.org/2000/svg" xmlns:xlink="http://www.w3.org/1999/xlink">
    <title>Icon/add_dashlet</title>
    <g id="Icon/add_dashlet" stroke="none" stroke-width="1" fill="none" fill-rule="evenodd">
        <path d="M48,0 C49.0543618,0 49.9181651,0.815877791 49.9945143,1.85073766 L50,2 L50,14 L62,14 C63.0543618,14 63.9181651,14.8158778 63.9945143,15.8507377 L64,16 L64,62 C64,63.1045695 63.1045695,64 62,64 L62,64 L16,64 C14.8954305,64 14,63.1045695 14,62 L14,62 L14,50 L2,50 C0.945638205,50 0.0818348781,49.1841222 0.00548573643,48.1492623 L0,48 L0,2 C0,0.945638205 0.815877791,0.0818348781 1.85073766,0.00548573643 L2,0 L48,0 Z M60,18 L18,18 L18,60 L60,60 L60,18 Z M39,24 C40.0543618,24 40.9181651,24.8158778 40.9945143,25.8507377 L41,26 L41,37 L52,37 C53.1045695,37 54,37.8954305 54,39 C54,40.0543618 53.1841222,40.9181651 52.1492623,40.9945143 L52,41 L41,41 L41,52 C41,53.1045695 40.1045695,54 39,54 C37.9456382,54 37.0818349,53.1841222 37.0054857,52.1492623 L37,52 L37,41 L26,41 C24.8954305,41 24,40.1045695 24,39 C24,37.9456382 24.8158778,37.0818349 25.8507377,37.0054857 L26,37 L37,37 L37,26 C37,24.8954305 37.8954305,24 39,24 Z M46,4 L4,4 L4,46 L14,46 L14,16 C14,14.9456382 14.8158778,14.0818349 15.8507377,14.0054857 L16,14 L46,14 L46,4 Z" id="Combined-Shape" fill="#000000" transform="translate(32.000000, 32.000000) scale(1, -1) translate(-32.000000, -32.000000) "></path>
    </g>
</svg>