<?xml version="1.0" encoding="UTF-8"?>
<svg width="64px" height="64px" viewBox="0 0 64 64" version="1.1" xmlns="http://www.w3.org/2000/svg" xmlns:xlink="http://www.w3.org/1999/xlink">
    <title>Icon/app</title>
    <g id="Icon/app" stroke="none" stroke-width="1" fill="none" fill-rule="evenodd">
        <path d="M15,1 L3,1 C1.8954305,1 1,1.8954305 1,3 L1,61 C1,62.1045695 1.8954305,63 3,63 L15,63 C16.1045695,63 17,62.1045695 17,61 L17,3 C17,1.8954305 16.1045695,1 15,1 Z M13,5 L13,59 L5,59 L5,5 L13,5 Z M61,47 C62.0543618,47 62.9181651,47.8158778 62.9945143,48.8507377 L63,49 L63,61 C63,62.0543618 62.1841222,62.9181651 61.1492623,62.9945143 L61,63 L25,63 C23.9456382,63 23.0818349,62.1841222 23.0054857,61.1492623 L23,61 L23,49 C23,47.9456382 23.8158778,47.0818349 24.8507377,47.0054857 L25,47 L61,47 Z M59,51 L27,51 L27,59 L59,59 L59,51 Z M61,24 C62.0543618,24 62.9181651,24.8158778 62.9945143,25.8507377 L63,26 L63,38 C63,39.0543618 62.1841222,39.9181651 61.1492623,39.9945143 L61,40 L25,40 C23.9456382,40 23.0818349,39.1841222 23.0054857,38.1492623 L23,38 L23,26 C23,24.9456382 23.8158778,24.0818349 24.8507377,24.0054857 L25,24 L61,24 Z M59,28 L27,28 L27,36 L59,36 L59,28 Z M61,1 C62.0543618,1 62.9181651,1.81587779 62.9945143,2.85073766 L63,3 L63,15 C63,16.0543618 62.1841222,16.9181651 61.1492623,16.9945143 L61,17 L25,17 C23.9456382,17 23.0818349,16.1841222 23.0054857,15.1492623 L23,15 L23,3 C23,1.9456382 23.8158778,1.08183488 24.8507377,1.00548574 L25,1 L61,1 Z M59,5 L27,5 L27,13 L59,13 L59,5 Z" id="Combined-Shape" fill="#000000"></path>
    </g>
</svg>