<?xml version="1.0" encoding="UTF-8"?>
<svg width="64px" height="64px" viewBox="0 0 64 64" version="1.1" xmlns="http://www.w3.org/2000/svg" xmlns:xlink="http://www.w3.org/1999/xlink">
    <title>Icon/archive</title>
    <g id="Icon/archive" stroke="none" stroke-width="1" fill="none" fill-rule="evenodd">
        <path d="M62,6 C63.1045695,6 64,6.8954305 64,8 L64,8 L64,20 C64,21.1045695 63.1045695,22 62,22 L62,22 L60,22 L60,56 C60,57.0543618 59.1841222,57.9181651 58.1492623,57.9945143 L58,58 L6,58 C4.8954305,58 4,57.1045695 4,56 L4,56 L4,22 L2,22 C0.945638205,22 0.0818348781,21.1841222 0.00548573643,20.1492623 L0,20 L0,8 C0,6.8954305 0.8954305,6 2,6 L2,6 Z M56,22 L8,22 L8,54 L56,54 L56,22 Z M44,26 C45.1045695,26 46,26.8954305 46,28 C46,31.2383969 43.4344251,33.8775718 40.2249383,33.9958615 L40,34 L24,34 C20.6862915,34 18,31.3137085 18,28 C18,26.8954305 18.8954305,26 20,26 C21.0543618,26 21.9181651,26.8158778 21.9945143,27.8507377 L22,28 C22,29.0543618 22.8158778,29.9181651 23.8507377,29.9945143 L24,30 L40,30 C41.0543618,30 41.9181651,29.1841222 41.9945143,28.1492623 L42,28 C42,26.8954305 42.8954305,26 44,26 Z M60,10 L4,10 L4,18 L60,18 L60,10 Z" id="Combined-Shape" fill="#000000"></path>
    </g>
</svg>