<?xml version="1.0" encoding="UTF-8"?>
<svg width="64px" height="64px" viewBox="0 0 64 64" version="1.1" xmlns="http://www.w3.org/2000/svg" xmlns:xlink="http://www.w3.org/1999/xlink">
    <title>Icon/attachment</title>
    <g id="Icon/attachment" stroke="none" stroke-width="1" fill="none" fill-rule="evenodd">
        <path d="M45.607402,0 C49.8511487,0 53.9210587,1.68593357 56.9215434,4.68672444 C59.9224786,7.68735341 61.6084122,11.7572634 61.6084122,16.0010102 C61.6084122,20.1078618 60.0294941,24.0519112 57.205987,27.0234535 L56.9195001,27.3173361 L23.417402,60.7194248 C18.7369526,65.3721079 11.1778515,65.3721079 6.4889874,60.7110102 C1.91384898,56.1085682 1.83759667,48.72263 6.26422495,44.0233985 L6.49318844,43.7867966 L32.2907353,17.989254 C33.791817,16.4829511 35.8308569,15.6362787 37.957402,15.6362787 C40.0839472,15.6362787 42.122987,16.4829511 43.6191582,17.9843435 C45.125461,19.4854251 45.9721334,21.524465 45.9721334,23.6510102 C45.9721334,25.6762912 45.2041766,27.6222025 43.8319596,29.0975066 L43.6216156,29.3152237 L26.3216156,46.6152237 C25.540567,47.3962723 24.274237,47.3962723 23.4931884,46.6152237 C22.7532477,45.875283 22.7143034,44.6997988 23.3763557,43.9140114 L23.4931884,43.7867966 L40.7956458,26.4843435 C41.5487972,25.7338027 41.9721334,24.7142827 41.9721334,23.6510102 C41.9721334,22.5877376 41.5487972,21.5682176 40.7907353,20.8127663 C40.0401945,20.0596149 39.0206746,19.6362787 37.957402,19.6362787 C36.9700775,19.6362787 36.0204784,20.0012982 35.2869697,20.6584265 L35.1216156,20.8152237 L9.32581662,46.6110102 C6.22402786,49.7313098 6.22402786,54.7707105 9.31740201,57.8825955 C12.3713123,60.9183888 17.2635286,60.9829801 20.3936976,58.0783278 L20.5953039,57.8846843 L54.0932606,24.4867244 C56.343962,22.2362527 57.6084122,19.1838202 57.6084122,16.0010102 C57.6084122,12.8182001 56.343962,9.7657676 54.0931163,7.51515156 C51.8426446,5.26445018 48.790212,4 45.607402,4 C42.5424738,4 39.5984444,5.1725217 37.3749418,7.26921084 L37.1216156,7.51522371 L12.1216156,32.5152237 C11.340567,33.2962723 10.074237,33.2962723 9.29318844,32.5152237 C8.55324768,31.775283 8.51430343,30.5997988 9.17635569,29.8140114 L9.29318844,29.6867966 L34.2931163,4.68686875 C37.2937453,1.68593357 41.3636553,0 45.607402,0 Z" id="attachment" fill="#000000" transform="translate(32.304206, 32.103943) scale(-1, 1) translate(-32.304206, -32.103943) "></path>
    </g>
</svg>