<?xml version="1.0" encoding="UTF-8"?>
<svg width="64px" height="64px" viewBox="0 0 64 64" version="1.1" xmlns="http://www.w3.org/2000/svg" xmlns:xlink="http://www.w3.org/1999/xlink">
    <title>Icon/camera</title>
    <g id="Icon/camera" stroke="none" stroke-width="1" fill="none" fill-rule="evenodd">
        <path d="M40,8 C40.5970159,8 41.1628158,8.26671198 41.5427466,8.72723409 L41.5427466,8.72723409 L47.542,16 L59,16 C61.6887547,16 63.8818181,18.1223067 63.9953805,20.7831104 L63.9953805,20.7831104 L64,21 L64,51 C64,53.7614237 61.7614237,56 59,56 L59,56 L5,56 C2.23857625,56 0,53.7614237 0,51 L0,51 L0,21 C0,18.2385763 2.23857625,16 5,16 L5,16 L16.457,16 L22.4572534,8.72723409 C22.7991911,8.31276419 23.2916828,8.0552805 23.8219864,8.00792846 L23.8219864,8.00792846 L24,8 Z M39.058,12 L24.941,12 L18.9427466,19.2727659 C18.6008089,19.6872358 18.1083172,19.9447195 17.5780136,19.9920715 L17.5780136,19.9920715 L17.4,20 L5,20 C4.44771525,20 4,20.4477153 4,21 L4,21 L4,51 C4,51.5522847 4.44771525,52 5,52 L5,52 L59,52 C59.5522847,52 60,51.5522847 60,51 L60,51 L60,21 C60,20.4477153 59.5522847,20 59,20 L59,20 L46.6,20 C46.0029841,20 45.4371842,19.733288 45.0572534,19.2727659 L45.0572534,19.2727659 L39.058,12 Z M32,18 C40.836556,18 48,25.163444 48,34 C48,42.836556 40.836556,50 32,50 C23.163444,50 16,42.836556 16,34 C16,25.163444 23.163444,18 32,18 Z M32,22 C25.372583,22 20,27.372583 20,34 C20,40.627417 25.372583,46 32,46 C38.627417,46 44,40.627417 44,34 C44,27.372583 38.627417,22 32,22 Z M32,26 C36.418278,26 40,29.581722 40,34 C40,38.418278 36.418278,42 32,42 C27.581722,42 24,38.418278 24,34 C24,29.581722 27.581722,26 32,26 Z M32,30 C29.790861,30 28,31.790861 28,34 C28,36.209139 29.790861,38 32,38 C34.209139,38 36,36.209139 36,34 C36,31.790861 34.209139,30 32,30 Z M53,22 C54.6568542,22 56,23.3431458 56,25 C56,26.6568542 54.6568542,28 53,28 C51.3431458,28 50,26.6568542 50,25 C50,23.3431458 51.3431458,22 53,22 Z M53,24 C52.4477153,24 52,24.4477153 52,25 C52,25.5522847 52.4477153,26 53,26 C53.5522847,26 54,25.5522847 54,25 C54,24.4477153 53.5522847,24 53,24 Z" id="Combined-Shape" fill="#000000"></path>
    </g>
</svg>