<?xml version="1.0" encoding="UTF-8"?>
<svg width="64px" height="64px" viewBox="0 0 64 64" version="1.1" xmlns="http://www.w3.org/2000/svg" xmlns:xlink="http://www.w3.org/1999/xlink">
    <title>Icon/Catalog</title>
    <g id="Icon/Catalog" stroke="none" stroke-width="1" fill="none" fill-rule="evenodd">
        <path d="M24,4 C27.2712911,4 30.175708,5.57077573 32.000156,7.99923272 C33.7720857,5.64026572 36.5633741,4.09059738 39.7200952,4.0038418 L40,4 L62,4 C63.0543618,4 63.9181651,4.81587779 63.9945143,5.85073766 L64,6 L64,50 C64,51.0543618 63.1841222,51.9181651 62.1492623,51.9945143 L62,52 L40,52 C36.7616031,52 34.1224282,54.5655749 34.0041385,57.7750617 L34,58 C34,59.3219716 33.01697,59.9885899 32.0255633,59.9998548 C32.0168361,59.9999479 32.0084241,60 32,60 L31.9754391,59.9998659 C30.9836928,59.9890391 30,59.3224172 30,58 L30,58 L29.9958615,57.7750617 C29.8775718,54.5655749 27.2383969,52 24,52 L24,52 L2,52 C0.8954305,52 0,51.1045695 0,50 L0,50 L0,6 C0,4.8954305 0.8954305,4 2,4 L2,4 Z M24,8 L4,8 L4,48 L24,48 C26.246582,48 28.3201332,48.740833 29.9896832,49.9915288 L29.9896832,49.9915288 L30,49.999 L30,14 C30,10.7616031 27.4344251,8.12242824 24.2249383,8.00413847 L24.2249383,8.00413847 L24,8 Z M60,8 L40,8 C36.7616031,8 34.1224282,10.5655749 34.0041385,13.7750617 L34,14 L34.0002399,49.9990875 C35.6020231,48.7960163 37.5768312,48.0627447 39.7200952,48.0038418 L40,48 L60,48 L60,8 Z" id="Combined-Shape" fill="#000000"></path>
    </g>
</svg>