<?xml version="1.0" encoding="UTF-8"?>
<svg width="64px" height="64px" viewBox="0 0 64 64" version="1.1" xmlns="http://www.w3.org/2000/svg" xmlns:xlink="http://www.w3.org/1999/xlink">
    <title>Icon/close</title>
    <g id="Icon/close" stroke="none" stroke-width="1" fill="none" fill-rule="evenodd">
        <path d="M20.2871032,17.4690414 L20.41431,17.5858829 L32,29.172 L43.5846046,17.5881501 C44.3656532,16.8071015 45.6319832,16.8071015 46.4130317,17.5881501 C47.1529725,18.3280908 47.1919168,19.503575 46.5298645,20.2893624 L46.4130317,20.4165772 L34.828,32.001 L46.4131282,43.5882465 C47.1941235,44.3693483 47.1940372,45.6356783 46.4129353,46.4166736 C45.6729441,47.1565639 44.4974573,47.195428 43.711715,46.5333222 L43.5845082,46.4164808 L31.999,34.83 L20.4130317,46.4165772 C19.6319832,47.1976258 18.3656532,47.1976258 17.5846046,46.4165772 C16.8446639,45.6766364 16.8057196,44.5011523 17.4677719,43.7153648 L17.5846046,43.5881501 L29.171,32.001 L17.58569,20.4141171 C16.8046947,19.6330153 16.804781,18.3666853 17.5858829,17.58569 C18.2847635,16.8869047 19.3720954,16.8134175 20.1526789,17.3651809 L20.2871032,17.4690414 Z" id="Shape" fill="#000000"></path>
    </g>
</svg>