<?xml version="1.0" encoding="UTF-8"?>
<svg width="64px" height="64px" viewBox="0 0 64 64" version="1.1" xmlns="http://www.w3.org/2000/svg" xmlns:xlink="http://www.w3.org/1999/xlink">
    <title>Icon/collapse-all</title>
    <g id="Icon/collapse-all" stroke="none" stroke-width="1" fill="none" fill-rule="evenodd">
        <path d="M54,38 C55.1045695,38 56,38.8954305 56,40 C56,41.0543618 55.1841222,41.9181651 54.1492623,41.9945143 L54,42 L44.829,42 L63.4142136,60.5857864 C64.1952621,61.366835 64.1952621,62.633165 63.4142136,63.4142136 C62.6742728,64.1541543 61.4987886,64.1930986 60.7130012,63.5310463 L60.5857864,63.4142136 L42,44.829 L42,54 C42,55.0543618 41.1841222,55.9181651 40.1492623,55.9945143 L40,56 C38.9456382,56 38.0818349,55.1841222 38.0054857,54.1492623 L38,54 L38,40 L38.0001628,39.9744 C38.0006694,39.9345794 38.0023579,39.8947712 38.0052285,39.8550322 L38,40 C38,39.9324657 38.0033473,39.8657132 38.009885,39.7998994 C38.0123032,39.7765929 38.0150513,39.753237 38.0182105,39.7299261 C38.0224623,39.6974816 38.0275907,39.6654566 38.0334696,39.6336948 C38.0381137,39.6095427 38.0430902,39.5852072 38.0485228,39.5609532 C38.0537431,39.5368317 38.0596215,39.5127158 38.0659327,39.4887755 C38.0727299,39.4636001 38.0799225,39.438309 38.0876226,39.4131398 C38.0953408,39.3875175 38.1035918,39.3624189 38.1123205,39.3375451 C38.1206373,39.3140254 38.129527,39.2900962 38.13889,39.2663102 C38.1536572,39.2288211 38.1694451,39.1921188 38.1862799,39.1560028 C38.189455,39.149018 38.1928765,39.1417753 38.1963439,39.1345491 L38.2041708,39.1186414 C38.2495981,39.0262552 38.3019445,38.9378852 38.3605341,38.8542074 C38.3741553,38.834478 38.3884263,38.8148717 38.4030977,38.7954718 C38.4200247,38.7732797 38.4375074,38.7511189 38.4554417,38.7293439 C38.4706837,38.710742 38.4858572,38.6929918 38.5013918,38.6754492 C38.520318,38.6540981 38.5402185,38.6325502 38.5605786,38.6114489 C38.5691757,38.602542 38.5774364,38.5941365 38.5857864,38.5857864 L38.6164803,38.5557408 C38.6363811,38.5366718 38.6566752,38.5180102 38.6773494,38.4997692 L38.5857864,38.5857864 C38.6324162,38.5391567 38.6807756,38.4953108 38.7306582,38.4542487 C38.7582892,38.431642 38.7865424,38.4096485 38.8153864,38.3884109 C38.8310753,38.376675 38.8465397,38.3656232 38.8621234,38.3548183 C38.945281,38.2973792 39.0331617,38.2458128 39.1249784,38.2010688 L39.1345491,38.1963439 C39.1611546,38.1835774 39.1879841,38.1714335 39.2150156,38.1599122 C39.2339715,38.1518369 39.2527634,38.1441509 39.2716958,38.1367451 C39.2888878,38.1300658 39.306489,38.1234794 39.3241615,38.1171495 C39.3595254,38.1043782 39.3952498,38.0926833 39.4314012,38.0819826 C39.4461579,38.0777692 39.4610914,38.0735441 39.4760627,38.0694959 C39.5094174,38.0602998 39.5430891,38.0521179 39.5770819,38.0448 C39.5962749,38.0408462 39.6155875,38.0369842 39.6349427,38.0334091 C39.6676273,38.027209 39.7006961,38.0219596 39.7340243,38.0175309 C39.7552518,38.0148261 39.7766031,38.0123248 39.7979825,38.0101669 C39.8156292,38.008308 39.8331518,38.0067832 39.8507377,38.0054857 L39.883094,38.0033985 C39.9121684,38.0017066 39.9412727,38.0006464 39.9703845,38.0002179 L40,38 L54,38 Z M24.0206039,38.0061758 L24.0722916,38.0075235 L24.0722916,38.0075235 L24.088,38.008 L24.0916023,38.0083399 L24.099,38.009 L24.1239372,38.0101993 L24.1239372,38.0101993 L24.115,38.01 L24.1879964,38.0152882 L24.1879964,38.0152882 C24.2134128,38.0178363 24.2387699,38.0207812 24.2640739,38.0242105 C24.2960914,38.0284036 24.3277739,38.0334673 24.359199,38.0392656 C24.38144,38.0435434 24.4037658,38.0480613 24.4260241,38.052963 C24.4504134,38.0581512 24.4748133,38.0640104 24.4990346,38.0703123 C24.526433,38.0776051 24.5537175,38.0853188 24.5808602,38.0936226 C24.6063132,38.1012874 24.6314057,38.1095338 24.6562736,38.1182578 C24.677931,38.1259224 24.6998375,38.1340201 24.7216251,38.1425142 C24.7529254,38.1547151 24.7836458,38.167627 24.813965,38.1812724 C24.8291601,38.1880445 24.8443416,38.1950938 24.8594509,38.2023439 L24.875129,38.2100589 C24.9637416,38.2536165 25.0486608,38.3035393 25.1292901,38.359231 C25.157198,38.3784944 25.1764471,38.3924598 25.1954981,38.4068106 C25.2160234,38.4224271 25.2362638,38.4382777 25.2561858,38.4545044 C25.2815493,38.4750759 25.3062769,38.4962598 25.330597,38.5181452 L25.3761518,38.5604313 L25.3761518,38.5604313 C25.386928,38.570734 25.3976155,38.5811883 25.4082136,38.5917864 L25.455,38.641 L25.4330705,38.6170853 L25.4683331,38.6545603 L25.4683331,38.6545603 L25.475,38.662 L25.467,38.654 L25.487,38.676 L25.5389405,38.7356739 L25.5389405,38.7356739 C25.6383821,38.8566946 25.7236327,38.988884 25.7926662,39.1304355 L25.7976561,39.1405491 C25.8063247,39.1586146 25.8147062,39.1767833 25.8228008,39.1950484 C25.8330981,39.2183201 25.8431498,39.2421832 25.8527467,39.2662768 L25.8625632,39.2915362 C25.8699751,39.310954 25.8770736,39.3304641 25.8838586,39.3500587 C25.8924564,39.3745494 25.9006265,39.3996778 25.9083073,39.425019 L25.9263733,39.4890251 L25.9263733,39.4890251 C25.9351019,39.5211056 25.9428992,39.5535677 25.9498943,39.586327 L25.9594773,39.6349647 L25.9594773,39.6349647 C25.9663102,39.6704948 25.9720152,39.7062184 25.9767614,39.7422442 C25.9791984,39.7615947 25.9815092,39.7812768 25.9835281,39.8009832 C25.9854994,39.8194825 25.9870989,39.8376706 25.9884533,39.8559269 L25.9906596,39.8900966 C25.9922984,39.9185033 25.9933343,39.9469382 25.9937671,39.9753806 L25.9939998,40.0051425 L26,53.9991425 C26.0004734,55.1037119 25.1054269,55.9995262 24.0008575,56 C22.9464958,56.0004519 22.0823428,55.1849445 22.0055499,54.1501175 L22,54.0008575 L21.996,44.832 L3.41421356,63.4142136 C2.63316498,64.1952621 1.36683502,64.1952621 0.585786438,63.4142136 C-0.154154326,62.6742728 -0.193098576,61.4987886 0.468953686,60.7130012 L0.585786438,60.5857864 L19.164,42.006 L10,42.006 C8.9456382,42.006 8.08183488,41.1901222 8.00548574,40.1552623 L8,40.006 C8,38.9516382 8.81587779,38.0878349 9.85073766,38.0114857 L10,38.006 L24.0206039,38.0061758 Z M38.8584352,25.65258 L38.8482794,25.6457152 C38.8356907,25.636897 38.8231808,25.627917 38.8107527,25.6187752 C38.7809895,25.5967191 38.7518364,25.5740252 38.7233439,25.5505583 C38.7054285,25.535883 38.6883501,25.5213031 38.6714633,25.5063894 C38.6493923,25.4868765 38.6271838,25.4663928 38.6054489,25.4454214 C38.596542,25.4368243 38.5881365,25.4285636 38.5797864,25.4202136 L38.5497408,25.3895197 C38.5306718,25.3696189 38.5120102,25.3493248 38.4937692,25.3286506 L38.5797864,25.4202136 C38.5331567,25.3735838 38.4893108,25.3252244 38.4482487,25.2753418 C38.425642,25.2477108 38.4036485,25.2194576 38.3824109,25.1906136 C38.3713868,25.1758911 38.3610167,25.1614083 38.3508634,25.1468205 C38.2926482,25.0628794 38.2403629,24.9739672 38.1950688,24.8810216 L38.1903439,24.8714509 C38.1714306,24.8320353 38.1538837,24.7921282 38.1377032,24.7518006 C38.1351941,24.7456013 38.1329571,24.739959 38.1307451,24.7343042 C38.1243222,24.7177689 38.1179734,24.70083 38.1118621,24.683825 C38.0980102,24.6455743 38.0853946,24.6068737 38.0739469,24.5676751 C38.0711124,24.5574331 38.0682097,24.5471727 38.0653905,24.5368942 C38.0542043,24.49676 38.0444028,24.456127 38.0358624,24.4150318 C38.032158,24.3963521 38.0285645,24.3777417 38.0252368,24.3590932 C38.0191218,24.3257041 38.0139962,24.2919829 38.0097234,24.2579963 C38.0077441,24.2413692 38.0058509,24.2247019 38.0041669,24.2080175 C38.002308,24.1903708 38.0007832,24.1728482 37.9994857,24.1552623 L37.9973985,24.122906 C37.995726,24.0941658 37.9946708,24.0653964 37.9942329,24.0366194 L37.994,24.006 L37.994,10.006 C37.994,8.9014305 38.8894305,8.006 39.994,8.006 C41.0483618,8.006 41.9121651,8.82187779 41.9885143,9.85673766 L41.994,10.006 L41.994,19.176 L60.5857864,0.585786438 C61.366835,-0.195262146 62.633165,-0.195262146 63.4142136,0.585786438 C64.1541543,1.3257272 64.1930986,2.50121136 63.5310463,3.28699879 L63.4142136,3.41421356 L44.822,22.006 L54,22.006 C55.0543618,22.006 55.9181651,22.8218778 55.9945143,23.8567377 L56,24.006 C56,25.0603618 55.1841222,25.9241651 54.1492623,26.0005143 L54,26.006 L39.994,26.006 L39.9493274,26.0055041 C39.9222264,26.0049024 39.8951352,26.0037531 39.8680719,26.0020561 L39.994,26.006 C39.9285331,26.006 39.8638009,26.0028545 39.7999462,25.9967064 C39.7745872,25.9941637 39.7492301,25.9912188 39.7239261,25.9877895 C39.6918206,25.9835835 39.6601293,25.978517 39.6286957,25.9727154 C39.60656,25.9684566 39.5842342,25.9639387 39.5619759,25.959037 C39.5374568,25.9538193 39.5130506,25.9479567 39.4888231,25.9416514 C39.461567,25.9343949 39.4342825,25.9266812 39.4071398,25.9183774 C39.3815175,25.9106592 39.3564189,25.9024082 39.3315451,25.8936795 C39.310069,25.8860776 39.2881625,25.8779799 39.2663749,25.8694858 C39.234871,25.8572025 39.2041437,25.8442836 39.1738181,25.830631 C39.1588399,25.8239555 39.1436584,25.8169062 39.1285491,25.8096561 L39.1126414,25.8018292 C39.0240107,25.7582486 38.9390764,25.7082999 38.8584352,25.65258 Z M3.28685959,0.468836681 L3.41408498,0.585657867 L22,19.168 L22,10 C22,8.9456382 22.8158778,8.08183488 23.8507377,8.00548574 L24,8 C25.0543618,8 25.9181651,8.81587779 25.9945143,9.85073766 L26,10 L25.9974169,24.0985377 L25.9828843,24.2578697 L25.9671486,24.3589491 L25.9559042,24.4147923 C25.9230258,24.5697801 25.872063,24.7181741 25.8053847,24.8576476 L25.7094663,25.0350278 L25.6361876,25.1467015 L25.5233736,25.2920509 L25.41418,25.4102654 L25.3413024,25.4796073 L25.2190994,25.581638 L25.1321303,25.6451513 L24.9981214,25.7297083 L24.8626579,25.8009936 L24.7160669,25.8640054 L24.5015235,25.9325985 L24.3562642,25.9641946 L24.1492623,25.9905143 L24,25.996 L10,25.996 C8.8954305,25.996 8,25.1005695 8,23.996 C8,22.9416382 8.81587779,22.0778349 9.85073766,22.0014857 L10,21.996 L19.171,21.996 L0.58591502,3.41434213 C-0.195204571,2.63336456 -0.195319702,1.36703461 0.585657867,0.58591502 C1.32553135,-0.154093014 2.50101197,-0.193144136 3.28685959,0.468836681 Z" id="Combined-Shape" fill="#000000"></path>
    </g>
</svg>