<?xml version="1.0" encoding="UTF-8"?>
<svg width="64px" height="64px" viewBox="0 0 64 64" version="1.1" xmlns="http://www.w3.org/2000/svg" xmlns:xlink="http://www.w3.org/1999/xlink">
    <title>Icon/color-picker</title>
    <g id="Icon/color-picker" stroke="none" stroke-width="1" fill="none" fill-rule="evenodd">
        <path d="M59.6339222,4.3660778 C63.8317987,8.56395433 64.1311821,15.2509318 60.375125,19.802947 L60.1662263,20.0490936 L60.0735905,20.1482387 L52.8297552,27.390994 L55.5328576,30.094261 C56.3139062,30.8753096 56.3139062,32.1416396 55.5328576,32.9226881 C54.7929169,33.6626289 53.6174327,33.7015732 52.8316453,33.0395209 L52.7044305,32.9226881 L49.6947552,29.912994 L24.7483359,54.7933987 C22.142265,57.4535087 18.402494,58.6021626 14.8067129,57.9380601 L14.45,57.865 L10.4070621,61.8980153 C8.95585453,63.3166623 6.66536043,63.3655811 5.14346111,62.0321234 L4.98341476,61.8839627 L2.10718284,59.0153153 C0.681844012,57.5650848 0.632694397,55.2721203 1.97241749,53.7509936 L2.12127439,53.5910428 L6.127,49.595 L6.06487791,49.3188344 C5.31665169,45.7889457 6.3414301,42.07944 8.86354558,39.4260267 L9.08996399,39.1946742 L34.0657552,14.283994 L31.0773119,11.2955695 C30.2962633,10.5145209 30.2962633,9.24819095 31.0773119,8.46714237 C31.8172526,7.72720161 32.9927368,7.68825736 33.7785242,8.35030962 L33.905739,8.46714237 L36.6077552,11.169994 L43.8517613,3.92640947 L43.9509064,3.83377372 C48.5050825,-0.14078001 55.3597206,0.091876252 59.6339222,4.3660778 Z M36.8947552,17.112994 L11.9111129,42.0303566 C9.94921923,43.9774214 9.30560093,46.8848031 10.2626736,49.4734421 C10.514453,50.1544414 10.3762857,50.9136963 9.91199404,51.4607649 L9.79908969,51.5831127 L5.058,56.31 L7.702,58.946 L12.4498679,54.2115759 C12.9517152,53.7110766 13.6774575,53.5163402 14.3565192,53.689721 L14.5122739,53.7362949 C17.0168439,54.5971463 19.7855413,53.9915784 21.7112197,52.1703823 L21.9073752,51.9776566 L46.8667552,27.084994 L36.8947552,17.112994 Z M46.7857665,6.67504953 L46.619,6.815 L39.4367552,13.997994 L50.0017552,24.562994 L57.184,17.38 L57.3249505,17.2142335 C59.6794012,14.3166184 59.5369066,10.1183694 56.9914023,7.38706588 L56.8054951,7.19450493 C54.0822845,4.47129436 49.7523724,4.26454045 46.7857665,6.67504953 Z" id="Combined-Shape" fill="#000000"></path>
    </g>
</svg>