<?xml version="1.0" encoding="UTF-8"?>
<svg width="64px" height="64px" viewBox="0 0 64 64" version="1.1" xmlns="http://www.w3.org/2000/svg" xmlns:xlink="http://www.w3.org/1999/xlink">
    <title>Icon/Contract</title>
    <g id="Icon/Contract" stroke="none" stroke-width="1" fill="none" fill-rule="evenodd">
        <path d="M44.213,6 C44.6843054,6 45.1384665,6.16635566 45.4969732,6.46656125 L45.6267761,6.58534907 L63.4137761,24.3613491 C64.1541076,25.1012227 64.1932482,26.2770061 63.5310703,27.0629705 L63.4142136,27.1902136 L58.601,32.003 L58.7156973,32.12529 C60.7773435,34.4207871 60.7574768,37.9160052 58.6698695,40.1879181 L58.491116,40.3743605 C57.7397031,41.1256405 56.8381112,41.6362625 55.8820092,41.9051518 C56.0938932,42.8383135 56.0825921,43.8250921 55.826295,44.7822826 C55.2717178,46.8534566 53.6543092,48.4714369 51.5833314,49.026746 C50.5978374,49.290995 49.580882,49.2955068 48.6221022,49.0642363 C48.3489029,49.9986187 47.8434001,50.88022 47.1073552,51.6166555 C45.7082897,53.0164636 43.7842991,53.5836028 41.9484756,53.2960363 C41.704536,54.3497811 41.1710498,55.3498372 40.3512085,56.1702587 C38.1117115,58.4113403 34.5303125,58.5166565 32.1288349,56.4172362 L32.1098915,56.4018752 C29.7490396,58.5400156 26.1091896,58.4629724 23.8412682,56.1942489 C23.0234666,55.3761581 22.4907099,54.3797776 22.2440561,53.3294041 C20.419214,53.6105852 18.4908888,53.0453427 17.0882731,51.6427269 C16.334172,50.8886259 15.8221186,49.9825656 15.5545972,49.0208402 C13.8035825,49.4067653 11.9049955,48.9976063 10.4195098,47.77991 L10.2101683,47.6004517 L10.0083757,47.4083851 C8.50970522,45.9094496 7.96762131,43.8109808 8.39043113,41.8784132 C7.4296609,41.6103856 6.52299462,41.0981374 5.76837569,40.3433851 C3.46160717,38.0362086 3.42115225,34.3086376 5.67730427,31.9519403 L5.623,32.009 L0.585676821,26.9701039 C-0.15410073,26.2302117 -0.193063269,25.0549281 0.468808716,24.2691738 L0.585609926,24.141963 L16.6066099,8.11696297 C17.390577,7.33280014 18.6521423,7.34174872 19.4258544,8.10730389 L19.7332582,8.43922569 C19.7573701,8.46435942 19.7833263,8.49115581 19.8110379,8.5194527 C20.0479491,8.76136725 20.3085105,9.0036183 20.5788659,9.225224 C21.0493366,9.6108608 21.4868518,9.87919928 21.8026841,9.98034129 L21.89538,10.0057446 L21.945,10.013 C22.8529496,10.013 23.1399617,9.91212419 23.5600346,9.5491598 L23.7554615,9.37141011 L23.968629,9.16403508 L24.5301211,8.59945211 C27.1372365,5.98988178 30.8405668,5.8456751 33.9669706,8.03810239 C35.877208,6.63332229 37.5377839,6.05092727 39.5921988,6.0032186 L39.873,6 L44.213,6 Z M29.9463233,48.6759572 C29.2560709,48.4911354 28.5196501,48.6885983 28.0147213,49.1937057 L28.079,49.133 L26.6149855,50.5958557 C25.9274587,51.3401208 25.909539,52.4761437 26.5547291,53.2406724 L26.6701954,53.3663219 C27.4415271,54.1379264 28.6889379,54.1489861 29.4492936,53.4152795 L29.4492936,53.4152795 L30.0679375,52.7952926 C30.163563,52.5117374 30.324535,52.2453915 30.5508198,52.019756 C30.7321175,51.8389785 30.9394269,51.7002009 31.1606618,51.6034057 C31.4231825,51.1530996 31.4998863,50.6084811 31.3608598,50.0899936 C31.175794,49.3998066 30.6365757,48.860779 29.9463233,48.6759572 Z M27.3592136,11.4272136 L26.7865855,12.0028942 C26.5558872,12.2318939 26.3678252,12.4094213 26.1752329,12.5758309 C25.0079217,13.5844473 23.7886023,14.013 21.945,14.013 C21.4871299,14.013 21.0331685,13.9340136 20.5827533,13.7897729 C19.8031312,13.540107 19.0555028,13.106957 18.3188889,12.5382863 L18.054,12.327 L4.828,25.555 L8.45,29.177 L8.48882338,29.1391607 C9.92712724,27.6069859 12.0569063,26.9435261 14.1008495,27.3746595 L14.3558391,27.4342686 C16.4760898,27.9787912 18.1315182,29.6348053 18.6752908,31.7552485 C18.7815813,32.1697288 18.8420999,32.5890944 18.8591077,33.0064429 C20.2475115,33.1042506 21.608736,33.6846845 22.6709635,34.7465365 C23.7796157,35.8547969 24.3639646,37.288946 24.4210229,38.7436223 C25.815263,38.8386747 27.1825409,39.4213745 28.2466547,40.486053 C29.3910054,41.631011 29.9777663,43.1262798 29.9971933,44.6354869 C30.3254231,44.6659057 30.6548865,44.7247732 30.9809165,44.8120709 C33.0516025,45.3665172 34.6692017,46.9835446 35.2243801,49.0540345 C35.6201072,50.5298648 35.433193,52.0762694 34.7440671,53.3921193 L34.7300338,53.3795594 C35.5166261,54.1263422 36.7551066,54.1100492 37.5217812,53.3428321 C38.2458628,52.6182381 38.2998411,51.4732789 37.7024437,50.7152729 L37.5902628,50.5856883 L36.2002628,49.1926883 L35.8935364,48.8859635 C35.1126259,48.1047768 35.1128499,46.8384468 35.8940365,46.0575364 C36.6341081,45.3177265 37.8095992,45.2789901 38.5952695,45.9411813 L38.7224636,46.0580365 L41.4992945,48.8375703 C42.2873737,49.5727661 43.5162836,49.5512774 44.2781777,48.7889789 C44.9977443,48.0690304 45.0563059,46.9328659 44.4806566,46.186434 L44.379,46.066 L39.5464466,41.2318736 C38.7655857,40.4506373 38.7658901,39.1843074 39.5471264,38.4034466 C39.9171857,38.0335651 40.3960887,37.838959 40.8806805,37.8196033 L41.043214,37.8196395 C41.4739544,37.8370373 41.9001381,37.9929026 42.249316,38.2872204 L42.3765066,38.4040795 L46.499,42.53 L48.6139636,44.6455366 C49.1196861,45.1510804 49.8566974,45.3484223 50.5473724,45.1632257 C51.2380475,44.9780291 51.7774563,44.4384296 51.9624088,43.7476892 C52.1331342,43.1100826 51.9778956,42.4331095 51.5552854,41.935156 L51.4440965,41.8145235 L44.6000965,34.9735235 C43.8188767,34.1926462 43.8185991,32.9263163 44.5994765,32.1450965 C45.0104645,31.7339282 45.555927,31.5390874 46.0943618,31.560605 L46.1065361,31.5616526 C46.5372737,31.5791198 46.9634323,31.7350538 47.3125627,32.0294279 L47.4397345,32.1463075 L52.8504252,37.5611724 C53.6338555,38.3273967 54.8879954,38.3204899 55.6629389,37.5456834 C56.397096,36.8116561 56.4421337,35.647425 55.8066791,34.8740361 L55.6944706,34.7488977 L54.4830012,33.5370463 L54.3557864,33.4202136 L54.2957474,33.3575613 L54.236,33.289 L42.2660762,21.3145033 C40.5452294,19.5943614 39.1492635,19.5392251 37.249321,21.3549638 L36.2088043,22.3809403 C33.8517081,24.6366755 30.1241442,24.5955615 27.8173757,22.2883851 C25.5713116,20.0419238 25.4738509,16.4488419 27.5820202,14.0561108 L27.7577873,13.8647863 L30.5849212,11.0416522 L30.8145482,10.8134349 C29.5304186,10.2462282 28.3055608,10.4799754 27.3592136,11.4272136 Z M22.7776796,43.1445738 L22.6447607,43.2591435 L19.8809569,46.0225431 C19.1732179,46.767486 19.1501998,47.9182411 19.8018471,48.6894194 L19.9167002,48.8142998 C20.6410367,49.5386364 21.7859744,49.5930209 22.5422711,48.9978125 L22.6715362,48.8860367 L23.707,47.85 L23.7696705,47.7833208 L25.1855364,46.3660365 C25.2294452,46.3221122 25.2739362,46.2789633 25.3189894,46.2365951 L25.4569443,46.100784 C26.1999247,45.3140652 26.1824365,44.0790948 25.4174774,43.3137297 C24.6950159,42.5908848 23.5533245,42.5345433 22.7776796,43.1445738 Z M17.1414517,37.4593149 L17.0154643,37.5759617 L14.1598043,40.4359403 C14.1447073,40.450388 14.1295541,40.4647416 14.1143454,40.4790009 L12.799,41.791 L12.6943055,41.9107526 C12.1309525,42.6077943 12.1044064,43.5904816 12.5854521,44.2870494 L12.6884205,44.4223787 L12.7976503,44.5418672 L12.9194542,44.6582203 C13.6508049,45.3132588 14.7482934,45.3338612 15.4781513,44.7507512 L15.6029842,44.6415887 L19.7907864,40.4547864 L19.8502604,40.3972786 C20.6244794,39.6155235 20.6220147,38.3541665 19.8430364,37.5754636 C19.1029267,36.8356155 17.9273751,36.796877 17.1414517,37.4593149 Z M13.3608485,31.3085419 C12.6540983,31.1270343 11.9045877,31.3448341 11.3617139,31.921713 L11.3617139,31.921713 L9.884,33.399 L9.86410394,33.4213232 L9.842,33.441 L8.56669573,34.7180597 C7.85422667,35.4622799 7.82883115,36.616623 8.48192335,37.3899787 L8.59705287,37.515208 C9.36597571,38.2842668 10.608497,38.2979715 11.3615357,37.5780383 L11.31,37.623 L14.1855365,34.7480364 L14.2357641,34.7004942 C14.764974,34.2012735 14.9814585,33.4538706 14.8006658,32.7488685 C14.6194082,32.0420541 14.0675988,31.4900494 13.3608485,31.3085419 Z M43.385,10 L39.873,10 C38.356145,10 37.1874111,10.4630315 35.3859776,12.0121279 C35.3775024,12.0217419 35.368934,12.0304793 35.3602693,12.039157 C35.2860263,12.113511 35.2073866,12.1808006 35.1251857,12.241025 C35.0609526,12.2970157 34.9956803,12.3555411 34.9295549,12.4154269 L34.4556323,12.8539617 L33.9511949,13.3382492 C33.8644107,13.4228834 33.7762289,13.5095041 33.6865862,13.5981515 L30.6156957,16.6630597 C29.8636451,17.4486255 29.87713,18.6911492 30.6460529,19.460208 C31.3745061,20.18879 32.5280172,20.2394365 33.2960102,19.6223518 L33.4203004,19.5133234 L34.2495409,18.694032 C37.7273156,15.2150493 41.6016843,15.1539942 44.8937126,18.2901028 L45.0945294,18.4861023 L55.775,29.171 L59.171,25.775 L43.385,10 Z" id="Combined-Shape" fill="#000000"></path>
    </g>
</svg>