<?xml version="1.0" encoding="UTF-8"?>
<svg width="64px" height="64px" viewBox="0 0 64 64" version="1.1" xmlns="http://www.w3.org/2000/svg" xmlns:xlink="http://www.w3.org/1999/xlink">
    <title>Icon/create ticket</title>
    <g id="Icon/create-ticket" stroke="none" stroke-width="1" fill="none" fill-rule="evenodd">
        <path d="M53,4 C54.0543618,4 54.9181651,4.81587779 54.9945143,5.85073766 L55,6 L55.0012194,26.408785 L54.9272251,26.366208 C60.3475451,29.4680023 64,35.3074629 64,42 C64,51.9411255 55.9411255,60 46,60 C36.0588745,60 28,51.9411255 28,42 C28,40.9450662 28.0907515,39.9113286 28.2648733,38.9061682 L28.2488464,39.0001727 L28.2488464,39.0001727 L2,39 C0.945638205,39 0.0818348781,38.1841222 0.00548573643,37.1492623 L-4.97379915e-13,37 L-4.97379915e-13,6 C-4.97379915e-13,4.9456382 0.815877791,4.08183488 1.85073766,4.00548574 L2,4 L53,4 Z M46,28 C38.2680135,28 32,34.2680135 32,42 C32,49.7319865 38.2680135,56 46,56 C53.7319865,56 60,49.7319865 60,42 C60,34.2680135 53.7319865,28 46,28 Z M46.5,32 C47.5543618,32 48.4181651,32.8158778 48.4945143,33.8507377 L48.5,34 L48.5,40.5 L55,40.5 C56.1045695,40.5 57,41.3954305 57,42.5 C57,43.5543618 56.1841222,44.4181651 55.1492623,44.4945143 L55,44.5 L48.5,44.5 L48.5,51 C48.5,52.1045695 47.6045695,53 46.5,53 C45.4456382,53 44.5818349,52.1841222 44.5054857,51.1492623 L44.5,51 L44.5,44.5 L38,44.5 C36.8954305,44.5 36,43.6045695 36,42.5 C36,41.4456382 36.8158778,40.5818349 37.8507377,40.5054857 L38,40.5 L44.5,40.5 L44.5,34 C44.5,32.8954305 45.3954305,32 46.5,32 Z M51,8 L4,8 L4,35 L29.4117799,35.0000913 L29.3915541,35.0481585 C30.8581095,31.5485905 33.3984877,28.6105267 36.6005868,26.6460692 L36.6,12 C36.6,10.8954305 37.4954305,10 38.6,10 C39.6543618,10 40.5181651,10.8158778 40.5945143,11.8507377 L40.6,12 L40.6007539,24.8238073 C42.3116206,24.2875327 44.1222319,24 46,24 C47.7498131,24 49.4413099,24.2496816 51.0408067,24.7153612 L51.0008002,24.7037642 L51.0008002,24.7037642 L51,8 Z M15.9647059,28.3333333 C17.0692754,28.3333333 17.9647059,29.2287638 17.9647059,30.3333333 C17.9647059,31.3876951 17.1488281,32.2514985 16.1139682,32.3278476 L15.9647059,32.3333333 L9,32.3333333 C7.8954305,32.3333333 7,31.4379028 7,30.3333333 C7,29.2789715 7.81587779,28.4151682 8.85073766,28.3388191 L9,28.3333333 L15.9647059,28.3333333 Z M45.5647059,11.6666667 C46.6190677,11.6666667 47.482871,12.4825445 47.5592201,13.5174043 L47.5647059,13.6666667 L47.5647059,22 C47.5647059,23.1045695 46.6692754,24 45.5647059,24 C44.5103441,24 43.6465408,23.1841222 43.5701916,22.1492623 L43.5647059,22 L43.5647059,13.6666667 C43.5647059,12.5620972 44.4601364,11.6666667 45.5647059,11.6666667 Z M26.4117647,18.3333333 C27.5163342,18.3333333 28.4117647,19.2287638 28.4117647,20.3333333 C28.4117647,21.3876951 27.5958869,22.2514985 26.5610271,22.3278476 L26.4117647,22.3333333 L9,22.3333333 C7.8954305,22.3333333 7,21.4379028 7,20.3333333 C7,19.2789715 7.81587779,18.4151682 8.85073766,18.3388191 L9,18.3333333 L26.4117647,18.3333333 Z M31.6352941,11.6666667 C32.7398636,11.6666667 33.6352941,12.5620972 33.6352941,13.6666667 C33.6352941,14.7210285 32.8194163,15.5848318 31.7845565,15.6611809 L31.6352941,15.6666667 L9,15.6666667 C7.8954305,15.6666667 7,14.7712362 7,13.6666667 C7,12.6123049 7.81587779,11.7485015 8.85073766,11.6721524 L9,11.6666667 L31.6352941,11.6666667 Z" id="Combined-Shape" fill="#000000"></path>
    </g>
</svg>