<?xml version="1.0" encoding="UTF-8"?>
<svg width="64px" height="64px" viewBox="0 0 64 64" version="1.1" xmlns="http://www.w3.org/2000/svg" xmlns:xlink="http://www.w3.org/1999/xlink">
    <title>Icon/CSV document</title>
    <g id="Icon/CSV-document" stroke="none" stroke-width="1" fill="none" fill-rule="evenodd">
        <path d="M38,0 C38.0537518,0 38.1070083,0.00212046669 38.1596905,0.00628231255 C38.1829634,0.00824597658 38.2059969,0.0104961881 38.2289569,0.0131413851 C38.26486,0.0170595479 38.3001843,0.0220581947 38.3351994,0.0279667968 C38.3534687,0.0313787684 38.3725185,0.0348949239 38.3915001,0.0386841376 C38.4251494,0.044992602 38.4577435,0.0523384273 38.4900256,0.0604690626 C38.5125614,0.066641682 38.5356425,0.0729098162 38.5585932,0.07958624 C38.5900059,0.088181388 38.6203739,0.0978129265 38.6504185,0.108140013 C38.6686338,0.114972923 38.6873169,0.121704992 38.7058936,0.128712803 C38.7486001,0.144257831 38.790229,0.161626235 38.831118,0.180332297 C38.8376185,0.183836168 38.8442536,0.18691091 38.8508721,0.190022131 C38.952848,0.237511905 39.0500741,0.293860173 39.141707,0.357681017 C39.1522725,0.365231558 39.1627776,0.372686728 39.1732153,0.380247043 C39.2050277,0.403158762 39.2361728,0.427183524 39.2665709,0.452086089 C39.3179658,0.494232156 39.3671421,0.538714957 39.4142136,0.585786438 L39.3110075,0.489575702 C39.3374748,0.512568354 39.3633318,0.536245166 39.3885511,0.560578607 L39.4142136,0.585786438 L55.4142136,16.5857864 C55.4247925,16.5963654 55.4352408,16.6070507 55.4455572,16.6178398 C55.4630513,16.6361189 55.4805123,16.6550833 55.4976061,16.6743804 C55.515367,16.6944807 55.5324811,16.7146131 55.5491666,16.7350462 C55.5723595,16.7633198 55.5949537,16.7925541 55.6167406,16.8224148 C55.6263063,16.8357738 55.6356473,16.8489344 55.6448221,16.8621978 C55.737667,16.9958418 55.8145259,17.1415568 55.8727303,17.2964029 C55.8774281,17.3104353 55.8826414,17.3247978 55.8876903,17.3392203 C55.9022985,17.3793241 55.9150769,17.4199677 55.9265704,17.4611473 C55.92991,17.4749687 55.9334942,17.4883239 55.9369407,17.5017196 C55.9468206,17.538279 55.9553251,17.5758759 55.9627545,17.6138577 C55.9660398,17.6324998 55.9693245,17.6505272 55.9723627,17.6686102 C55.9788622,17.705655 55.984106,17.7437037 55.9882643,17.782078 C55.9959912,17.854087 56,17.9268368 56,18 L55.9935797,17.838573 C55.9939033,17.8426245 55.9942149,17.8466794 55.9945143,17.8507377 L56,18 L56,62 C56,63.1045695 55.1045695,64 54,64 L54,64 L10,64 C8.8954305,64 8,63.1045695 8,62 L8,62 L8,2 C8,0.8954305 8.8954305,0 10,0 L10,0 L38,0 L38,0 Z M36,4 L12,4 L12,60 L52,60 L52,20 L38,20 C36.9456382,20 36.0818349,19.1841222 36.0054857,18.1492623 L36,18 L36,4 Z M21.3984375,32.46875 C22.7109375,32.46875 23.7682292,32.8203125 24.5703125,33.5234375 C25.3723958,34.2265625 25.8359375,35.2135417 25.9609375,36.484375 L23.6171875,36.484375 C23.5598958,35.75 23.3554688,35.2174479 23.0039062,34.8867188 C22.6523438,34.5559896 22.1171875,34.390625 21.3984375,34.390625 C20.6171875,34.390625 20.0325521,34.6705729 19.6445312,35.2304688 C19.2565104,35.7903646 19.0572917,36.6588542 19.046875,37.8359375 L19.046875,38.6953125 C19.046875,39.9244792 19.2330729,40.8229167 19.6054688,41.390625 C19.9778646,41.9583333 20.5651042,42.2421875 21.3671875,42.2421875 C22.0911458,42.2421875 22.6315104,42.0768229 22.9882812,41.7460938 C23.3450521,41.4153646 23.5494792,40.9036458 23.6015625,40.2109375 L25.9453125,40.2109375 C25.8567708,41.4348958 25.4049479,42.3984375 24.5898438,43.1015625 C23.7747396,43.8046875 22.7005208,44.15625 21.3671875,44.15625 C19.9088542,44.15625 18.7617188,43.6653646 17.9257812,42.6835938 C17.0898438,41.7018229 16.671875,40.3541667 16.671875,38.640625 L16.671875,37.9453125 C16.671875,36.8515625 16.8645833,35.8880208 17.25,35.0546875 C17.6354167,34.2213542 18.1861979,33.5820312 18.9023438,33.1367188 C19.6184896,32.6914062 20.4505208,32.46875 21.3984375,32.46875 Z M31.7832589,32.46875 C32.5957589,32.46875 33.3197173,32.6158854 33.9551339,32.9101562 C34.5905506,33.2044271 35.0840402,33.6197917 35.4356027,34.15625 C35.7871652,34.6927083 35.9629464,35.3020833 35.9629464,35.984375 L33.6191964,35.984375 C33.6191964,35.4635417 33.4551339,35.0585938 33.1270089,34.7695312 C32.7988839,34.4804688 32.3379464,34.3359375 31.7441964,34.3359375 C31.1712798,34.3359375 30.7259673,34.4570312 30.4082589,34.6992188 C30.0905506,34.9414062 29.9316964,35.2604167 29.9316964,35.65625 C29.9316964,36.0260417 30.1178943,36.3359375 30.4902902,36.5859375 C30.862686,36.8359375 31.4108631,37.0703125 32.1348214,37.2890625 C33.4681548,37.6901042 34.4395089,38.1875 35.0488839,38.78125 C35.6582589,39.375 35.9629464,40.1145833 35.9629464,41 C35.9629464,41.984375 35.5905506,42.7565104 34.8457589,43.3164062 C34.1009673,43.8763021 33.0983631,44.15625 31.8379464,44.15625 C30.9629464,44.15625 30.1660714,43.9960938 29.4473214,43.6757812 C28.7285714,43.3554688 28.1803943,42.9166667 27.8027902,42.359375 C27.425186,41.8020833 27.2363839,41.15625 27.2363839,40.421875 L29.5879464,40.421875 C29.5879464,41.6770833 30.3379464,42.3046875 31.8379464,42.3046875 C32.3952381,42.3046875 32.8301339,42.1914062 33.1426339,41.9648438 C33.4551339,41.7382812 33.6113839,41.421875 33.6113839,41.015625 C33.6113839,40.5729167 33.4551339,40.2330729 33.1426339,39.9960938 C32.8301339,39.7591146 32.2676339,39.5091146 31.4551339,39.2460938 C30.6426339,38.9830729 29.9994048,38.7239583 29.5254464,38.46875 C28.2337798,37.7708333 27.5879464,36.8307292 27.5879464,35.6484375 C27.5879464,35.0338542 27.7611235,34.4856771 28.1074777,34.0039062 C28.4538318,33.5221354 28.9512277,33.1458333 29.5996652,32.875 C30.2481027,32.6041667 30.9759673,32.46875 31.7832589,32.46875 Z M39.4180804,32.625 L41.9805804,41.1796875 L44.5587054,32.625 L47.1680804,32.625 L43.2071429,44 L40.7618304,44 L36.8165179,32.625 L39.4180804,32.625 Z M40,6.829 L40,16 L49.171,16 L40,6.829 Z" id="Combined-Shape" fill="#000000"></path>
    </g>
</svg>