<?xml version="1.0" encoding="UTF-8"?>
<svg width="64px" height="64px" viewBox="0 0 64 64" version="1.1" xmlns="http://www.w3.org/2000/svg" xmlns:xlink="http://www.w3.org/1999/xlink">
    <title>Icon/customize</title>
    <g id="Icon/customize" stroke="none" stroke-width="1" fill="none" fill-rule="evenodd">
        <path d="M8,4 C9.0543618,4 9.91816512,4.81587779 9.99451426,5.85073766 L10,6 L10.0003581,48.2521271 C13.4506308,49.1403373 16,52.2724501 16,56 C16,60.418278 12.418278,64 8,64 C3.581722,64 0,60.418278 0,56 C0,52.2720892 2.54986283,49.1397308 6.00064404,48.2518692 L6,6 C6,4.8954305 6.8954305,4 8,4 Z M32,4 C33.0543618,4 33.9181651,4.81587779 33.9945143,5.85073766 L34,6 L34.0003581,24.2521271 C37.4506308,25.1403373 40,28.2724501 40,32 C40,35.7275499 37.4506308,38.8596627 34.0003581,39.7478729 L34,58 C34,59.1045695 33.1045695,60 32,60 C30.9456382,60 30.0818349,59.1841222 30.0054857,58.1492623 L30,58 L30.000644,39.7481308 C26.5498628,38.8602692 24,35.7279108 24,32 C24,28.2720892 26.5498628,25.1397308 30.000644,24.2518692 L30,6 C30,4.8954305 30.8954305,4 32,4 Z M56,0 C60.418278,0 64,3.581722 64,8 C64,11.7275499 61.4506308,14.8596627 58.0003581,15.7478729 L58,58 C58,59.1045695 57.1045695,60 56,60 C54.9456382,60 54.0818349,59.1841222 54.0054857,58.1492623 L54,58 L54.000644,15.7481308 C50.5498628,14.8602692 48,11.7279108 48,8 C48,3.581722 51.581722,0 56,0 Z M8,52 C5.790861,52 4,53.790861 4,56 C4,58.209139 5.790861,60 8,60 C10.209139,60 12,58.209139 12,56 C12,53.790861 10.209139,52 8,52 Z M32,28.001 L31.9849442,28.0000277 C29.78273,28.0081424 28,29.7958818 28,32 C28,34.209139 29.790861,36 32,36 C34.209139,36 36,34.209139 36,32 C36,29.790861 34.209139,28 32,28 L32.0171682,28.0009278 C32.0114512,28.0009759 32.0057284,28.001 32,28.001 Z M56,4 C53.790861,4 52,5.790861 52,8 C52,10.209139 53.790861,12 56,12 C58.209139,12 60,10.209139 60,8 C60,5.790861 58.209139,4 56,4 Z" id="Combined-Shape" fill="#000000"></path>
    </g>
</svg>