<?xml version="1.0" encoding="UTF-8"?>
<svg width="64px" height="64px" viewBox="0 0 64 64" version="1.1" xmlns="http://www.w3.org/2000/svg" xmlns:xlink="http://www.w3.org/1999/xlink">
    <title>Icon/dashboard-personalization</title>
    <g id="Icon/dashboard-personalization" stroke="none" stroke-width="1" fill="none" fill-rule="evenodd">
        <path d="M28,4.04454248e-13 L2,4.04454248e-13 C0.8954305,4.04454248e-13 0,0.8954305 0,2 L0,28 C0,29.1045695 0.8954305,30 2,30 L28,30 C29.1045695,30 30,29.1045695 30,28 L30,2 C30,0.8954305 29.1045695,4.04454248e-13 28,4.04454248e-13 Z M26,4 L26,26 L4,26 L4,4 L26,4 Z M28,34 C29.0543618,34 29.9181651,34.8158778 29.9945143,35.8507377 L30,36 L30,62 C30,63.0543618 29.1841222,63.9181651 28.1492623,63.9945143 L28,64 L2,64 C0.945638205,64 0.0818348781,63.1841222 0.00548573643,62.1492623 L0,62 L0,36 C0,34.9456382 0.815877791,34.0818349 1.85073766,34.0054857 L2,34 L28,34 Z M26,38 L4,38 L4,60 L26,60 L26,38 Z M62,34 L36,34 C34.8954305,34 34,34.8954305 34,36 L34,62 C34,63.1045695 34.8954305,64 36,64 L62,64 C63.1045695,64 64,63.1045695 64,62 L64,36 C64,34.8954305 63.1045695,34 62,34 Z M60,38 L60,60 L38,60 L38,38 L60,38 Z M49.5,4 C50.5543618,4 51.4181651,4.81587779 51.4945143,5.85073766 L51.5,6 L51.5,12.5 L58,12.5 C59.1045695,12.5 60,13.3954305 60,14.5 C60,15.5543618 59.1841222,16.4181651 58.1492623,16.4945143 L58,16.5 L51.5,16.5 L51.5,23 C51.5,24.1045695 50.6045695,25 49.5,25 C48.4456382,25 47.5818349,24.1841222 47.5054857,23.1492623 L47.5,23 L47.5,16.5 L41,16.5 C39.8954305,16.5 39,15.6045695 39,14.5 C39,13.4456382 39.8158778,12.5818349 40.8507377,12.5054857 L41,12.5 L47.5,12.5 L47.5,6 C47.5,4.8954305 48.3954305,4 49.5,4 Z" id="Combined-Shape" fill="#000000"></path>
    </g>
</svg>