<?xml version="1.0" encoding="UTF-8"?>
<svg width="64px" height="64px" viewBox="0 0 64 64" version="1.1" xmlns="http://www.w3.org/2000/svg" xmlns:xlink="http://www.w3.org/1999/xlink">
    <title>Icon/delete-circle</title>
    <g id="Icon/delete-circle" stroke="none" stroke-width="1" fill="none" fill-rule="evenodd">
        <path d="M9.37238644,9.37248644 C21.869435,-3.12456215 42.129765,-3.12456215 54.6268136,9.37248644 C67.1238621,21.869535 67.1238621,42.129865 54.6268136,54.6269136 C42.129765,67.1239621 21.869435,67.1239621 9.37232608,54.6268532 C-3.12364203,42.1298184 -3.12364203,21.8695816 9.37238644,9.37248644 Z M51.4683137,11.8761455 C40.5095609,1.26705563 23.0264161,1.37531106 12.2008739,12.2008532 C1.26684203,23.1358184 1.26684203,40.8635816 12.2008136,51.7984864 C23.135765,62.7334379 40.863435,62.7334379 51.7983864,51.7984864 C62.7333379,40.863535 62.7333379,23.135865 51.7983864,12.2009136 L51.7983864,12.2009136 Z M22.2860684,19.4690122 L22.4132778,19.5858507 L31.998,29.171 L41.5837864,19.5867864 C42.364835,18.8057379 43.631165,18.8057379 44.4122136,19.5867864 C45.1521543,20.3267272 45.1910986,21.5022114 44.5290463,22.2879988 L44.4122136,22.4152136 L34.827,32 L44.4122778,41.5868507 C45.1932909,42.3679348 45.1932334,43.6342648 44.4121493,44.4152778 C43.6721749,45.155185 42.496689,45.1940758 41.7109316,44.5319878 L41.5837222,44.4151493 L31.998,34.829 L22.4122136,44.4152136 C21.631165,45.1962621 20.364835,45.1962621 19.5837864,44.4152136 C18.8438457,43.6752728 18.8049014,42.4997886 19.4669537,41.7140012 L19.5837864,41.5867864 L29.169,32 L19.5847222,22.4141493 C18.8037091,21.6330652 18.8037666,20.3667352 19.5848507,19.5857222 C20.3248251,18.845815 21.500311,18.8069242 22.2860684,19.4690122 Z" id="Combined-Shape" fill="#000000"></path>
    </g>
</svg>