<?xml version="1.0" encoding="UTF-8"?>
<svg width="64px" height="64px" viewBox="0 0 64 64" version="1.1" xmlns="http://www.w3.org/2000/svg" xmlns:xlink="http://www.w3.org/1999/xlink">
    <title>Icon/delete</title>
    <g id="Icon/delete" stroke="none" stroke-width="1" fill="none" fill-rule="evenodd">
        <path d="M38.1,0 C41.2844237,0 43.8796122,2.52281531 43.9959305,5.67881071 L44,5.9 L44,8 L58,8 C59.1045695,8 60,8.8954305 60,10 C60,11.0543618 59.1841222,11.9181651 58.1492623,11.9945143 L58,12 L54.38,12 L51.5996078,57.1396078 C51.5267653,60.8170762 48.6245419,63.7959938 44.9412978,63.9912349 L44.7,64 L19.2603922,64 C15.5829238,63.9267653 12.6040062,61.0245419 12.4123091,57.4565278 L12.4037803,57.2229095 L9.619,12 L6,12 C4.8954305,12 4,11.1045695 4,10 C4,8.9456382 4.81587779,8.08183488 5.85073766,8.00548574 L6,8 L20,8 L20,5.9 C20,2.71557634 22.5228153,0.120387768 25.6788107,0.00406949752 L25.9,0 L38.1,0 Z M50.372,12 L13.627,12 L16.3996078,57.0603922 C16.4303232,58.6110708 17.6348921,59.8719346 19.12665,59.9913369 L19.3,60.0003922 L44.6603922,60.0003922 C46.2132008,59.9696346 47.4753979,58.7617964 47.595212,57.1569957 L47.6037803,56.9770905 L50.372,12 Z M32,16 C33.0543618,16 33.9181651,16.8158778 33.9945143,17.8507377 L34,18 L34,54 C34,55.1045695 33.1045695,56 32,56 C30.9456382,56 30.0818349,55.1841222 30.0054857,54.1492623 L30,54 L30,18 C30,16.8954305 30.8954305,16 32,16 Z M23.9573915,17.5880148 L23.9831638,17.7403317 L23.9969207,17.88906 L25.9969207,53.88906 C26.0581912,54.9919288 25.2138089,55.9356502 24.11094,55.9969207 C23.0582016,56.0554062 22.1504715,55.2886997 22.0168362,54.2596683 L22.0030793,54.11094 L20.0030793,18.11094 C19.9418088,17.0080712 20.7861911,16.0643498 21.88906,16.0030793 C22.8891615,15.9475181 23.758393,16.6366926 23.9573915,17.5880148 Z M41.9616032,16.000277 L42.11094,16.0030793 C43.1636785,16.0615648 43.9808951,16.9241016 43.999723,17.9616032 L43.9969207,18.11094 L41.9969207,54.11094 C41.9356502,55.2138089 40.9919288,56.0581912 39.88906,55.9969207 C38.8363215,55.9384352 38.0191049,55.0758984 38.000277,54.0383968 L38.0030793,53.88906 L40.0030793,17.88906 C40.0587797,16.8864519 40.8437785,16.0974691 41.8146469,16.0083371 L41.9616032,16.000277 Z M38.1,4 L25.9,4 C24.9006276,4 24.0814657,4.77157277 24.0057164,5.75151612 L24,5.9 L24,8 L40,8 L40,5.9 C40,4.9006276 39.2284272,4.08146567 38.2484839,4.0057164 L38.1,4 Z" id="Combined-Shape" fill="#000000"></path>
    </g>
</svg>