<?xml version="1.0" encoding="UTF-8"?>
<svg width="64px" height="64px" viewBox="0 0 64 64" version="1.1" xmlns="http://www.w3.org/2000/svg" xmlns:xlink="http://www.w3.org/1999/xlink">
    <title>Icon/download</title>
    <g id="Icon/download" stroke="none" stroke-width="1" fill="none" fill-rule="evenodd">
        <path d="M55,44 C56.0543618,44 56.9181651,44.8158778 56.9945143,45.8507377 L57,46 L57,62 C57,63.0543618 56.1841222,63.9181651 55.1492623,63.9945143 L55,64 L9,64 C7.9456382,64 7.08183488,63.1841222 7.00548574,62.1492623 L7,62 L7,46 C7,44.8954305 7.8954305,44 9,44 C10.0543618,44 10.9181651,44.8158778 10.9945143,45.8507377 L11,46 L11,60 L53,60 L53,46 C53,44.9456382 53.8158778,44.0818349 54.8507377,44.0054857 L55,44 Z M32,-5.08748599e-12 C33.0543618,-5.08748599e-12 33.9181651,0.815877791 33.9945143,1.85073766 L34,2 L34,42.941 L45.5409256,30.6321177 C46.256625,29.868705 47.4302424,29.7918819 48.2369668,30.4282551 L48.3678823,30.5409256 C49.131295,31.256625 49.2081181,32.4302424 48.5717449,33.2369668 L48.4590744,33.3678823 L33.4590744,49.3678823 C33.4173148,49.4124259 33.3740393,49.4546077 33.3294085,49.4944302 L33.2491831,49.5619972 C33.1801566,49.617688 33.1086656,49.6675664 33.0349139,49.7122334 L32.9179431,49.7777698 L32.7756739,49.8442605 L32.6295971,49.8989609 L32.4669059,49.9451546 L32.3302867,49.9727767 L32.1855981,49.9914594 L32,50 L31.8791443,49.9964085 L31.7334309,49.9822634 L31.5786295,49.9553867 C31.4294392,49.9234797 31.2865712,49.8749339 31.1519315,49.8118133 L30.9823925,49.7225809 L30.8602894,49.6441856 L30.7148898,49.5329442 L30.6062532,49.4343901 L30.5453778,49.3726235 L15.5003243,32.3232433 C14.7695172,31.4949952 14.8485087,30.2311314 15.6767567,29.5003243 C16.4614127,28.8079807 17.637037,28.842437 18.3799965,29.5522161 L18.4996757,29.6767567 L30,42.71 L30,2 C30,0.8954305 30.8954305,-5.08748599e-12 32,-5.08748599e-12 Z" id="Combined-Shape" fill="#000000"></path>
    </g>
</svg>