<?xml version="1.0" encoding="UTF-8"?>
<svg width="64px" height="64px" viewBox="0 0 64 64" version="1.1" xmlns="http://www.w3.org/2000/svg" xmlns:xlink="http://www.w3.org/1999/xlink">
    <title>Icon/edit</title>
    <g id="Icon/edit" stroke="none" stroke-width="1" fill="none" fill-rule="evenodd">
        <path d="M34.4,9.6 C35.5045695,9.6 36.4,10.4954305 36.4,11.6 C36.4,12.6543618 35.5841222,13.5181651 34.5492623,13.5945143 L34.4,13.6 L4.399,13.6 L4.399,59.6 L50.4,59.6 L50.4,29.6 C50.4,28.5456382 51.2158778,27.6818349 52.2507377,27.6054857 L52.4,27.6 C53.4543618,27.6 54.3181651,28.4158778 54.3945143,29.4507377 L54.4,29.6 L54.4,61.6 C54.4,62.6543618 53.5841222,63.5181651 52.5492623,63.5945143 L52.4,63.6 L2.4,63.6 C1.3456382,63.6 0.481834878,62.7841222 0.405485736,61.7492623 L0.4,61.6 L0.4,11.6 C0.4,10.5456382 1.21587779,9.68183488 2.25073766,9.60548574 L2.4,9.6 L34.4,9.6 Z M54.5885035,0.983074626 C55.3699879,0.204584412 56.6342248,0.20579769 57.4142136,0.985786438 L57.4142136,0.985786438 L63.0142136,6.58578644 C63.7952621,7.36683502 63.7952621,8.63316498 63.0142136,9.41421356 L63.0142136,9.41421356 L37.0142136,35.4142136 C36.8319253,35.5965018 36.6161145,35.7418293 36.3786604,35.8421965 L36.3786604,35.8421965 L26.6786604,39.9421965 C25.0324318,40.6380251 23.3696888,38.9898155 24.0510388,37.3375418 L24.0510388,37.3375418 L28.0510388,27.6375418 C28.1520627,27.3925588 28.3007642,27.1700945 28.4885035,26.9830746 L28.4885035,26.9830746 Z M50.786,10.415 L31.595,29.533 L29.604,34.362 L34.461,32.309 L53.571,13.2 L50.786,10.415 Z M55.996,5.225 L53.62,7.59099999 L56.4,10.371 L58.771,8 L55.996,5.225 Z" id="Combined-Shape" fill="#000000"></path>
    </g>
</svg>