<?xml version="1.0" encoding="UTF-8"?>
<svg width="64px" height="64px" viewBox="0 0 64 64" version="1.1" xmlns="http://www.w3.org/2000/svg" xmlns:xlink="http://www.w3.org/1999/xlink">
    <title>Icon/expand-all</title>
    <g id="Icon/expand-all" stroke="none" stroke-width="1" fill="none" fill-rule="evenodd">
        <path d="M23.4144257,40.5919986 C24.1542555,41.3320504 24.1930234,42.5075404 23.5308532,43.2932285 L23.4140014,43.4204257 L6.829,60 L18,60 C19.0543618,60 19.9181651,60.8158778 19.9945143,61.8507377 L20,62 C20,63.0543618 19.1841222,63.9181651 18.1492623,63.9945143 L18,64 L2,64 L1.88,63.995 L1.90339009,63.9977076 L1.90339009,63.9977076 L2,64 L1.95580196,63.9995146 C1.92810804,63.9989062 1.90042436,63.997726 1.87277015,63.9959739 L1.88,63.995 L1.80796293,63.9908995 L1.80796293,63.9908995 C1.78161523,63.9882982 1.75458891,63.9851621 1.7276234,63.9814759 C1.69753591,63.9774979 1.66851154,63.9728739 1.63970236,63.9676328 C1.61516174,63.9630043 1.58976776,63.9578801 1.56446182,63.9522595 C1.54186059,63.9474161 1.51978213,63.9421077 1.49784962,63.9364365 C1.46950589,63.9289442 1.44110251,63.9209365 1.41285286,63.9122893 C1.38751747,63.9046592 1.36241889,63.8964082 1.33754506,63.8876795 C1.31578699,63.879975 1.2938817,63.871874 1.27209537,63.8633766 L1.2256197,63.8445583 L1.2256197,63.8445583 L1.15699481,63.8142479 L1.15699481,63.8142479 L1.11864136,63.7958292 L0.995800512,63.7301898 C0.976390117,63.7189072 0.957128949,63.7072707 0.938026368,63.6952804 C0.907657085,63.6759991 0.878100307,63.6563179 0.849110926,63.6358856 C0.838970173,63.628932 0.828836708,63.6216431 0.81875686,63.6142479 C0.787587476,63.5912162 0.757084064,63.5674691 0.72730469,63.5428765 C0.712458412,63.530711 0.697687974,63.5181372 0.683059893,63.5053141 C0.65863154,63.4838592 0.634767586,63.461921 0.611448913,63.4394214 C0.602459668,63.4307448 0.593988801,63.4224184 0.58557429,63.4140014 L0.555740761,63.3835197 L0.527,63.353 L0.538,63.364 L0.508,63.332 L0.453248401,63.268125 L0.453248401,63.268125 C0.43609712,63.2471003 0.419099633,63.2255127 0.402543658,63.2035732 C0.355383253,63.1413336 0.312692125,63.0772884 0.274080663,63.0115095 C0.245941358,62.9629074 0.222707269,62.9194248 0.201068757,62.8750216 L0.196214114,62.8651803 C0.177306705,62.8257619 0.159765774,62.7858522 0.143591312,62.7455221 C0.141194113,62.7396013 0.138957098,62.733959 0.136745084,62.7283042 C0.130215456,62.7114884 0.123869137,62.6945486 0.11776048,62.6775426 C0.104819942,62.6418228 0.0928852065,62.6054325 0.0819825994,62.5685988 L0.0713108885,62.5306049 L0.0713108885,62.5306049 C0.0614471786,62.4952856 0.0526291302,62.4592856 0.0448000044,62.4229181 C0.0407856076,62.4034312 0.0369265425,62.384118 0.0333544023,62.3647623 C0.0272090414,62.3323727 0.0219596068,62.2993039 0.017530906,62.2659757 C0.0147894333,62.2444503 0.0122913,62.2230987 0.0101366597,62.201719 C0.00830800852,62.1843708 0.00678317283,62.1668482 0.00548573643,62.1492623 L0.00338102249,62.1166064 C0.00171879291,62.0879692 0.000669472646,62.059303 0.000233058501,62.0306292 L0,46 C0,44.8954305 0.8954305,44 2,44 C3.0543618,44 3.91816512,44.8158778 3.99451426,45.8507377 L4,46 L4,57.171 L20.5859986,40.5915743 C21.3671644,39.8106429 22.6334943,39.8108329 23.4144257,40.5919986 Z M43.1525674,40.3651024 L43.2869988,40.4689537 L43.4142136,40.5857864 L60,57.171 L60,46 C60,44.9456382 60.8158778,44.0818349 61.8507377,44.0054857 L62,44 C63.0543618,44 63.9181651,44.8158778 63.9945143,45.8507377 L64,46 L64,62 L63.9994816,62.0456763 C63.9989423,62.0694314 63.9979823,62.0931786 63.9966015,62.116906 L64,62 C64,62.0654669 63.9968545,62.1301991 63.9907064,62.1940538 C63.9882937,62.218071 63.9855286,62.2420901 63.982329,62.2660623 C63.978004,62.2995408 63.9727584,62.3325623 63.9667154,62.3653043 C63.9624566,62.38744 63.9579387,62.4097658 63.953037,62.4320241 C63.9478193,62.4565432 63.9419567,62.4809494 63.9356514,62.5051769 C63.9283949,62.532433 63.9206812,62.5597175 63.9123774,62.5868602 C63.9086183,62.5995721 63.9046978,62.6119228 63.9006613,62.6242208 C63.8892238,62.6587972 63.876845,62.6933582 63.8634858,62.7276251 C63.8530663,62.7543624 63.8422252,62.7804303 63.8308555,62.8062126 C63.8222278,62.8259124 63.8131127,62.8457431 63.8036561,62.8654509 L63.7958292,62.8813586 C63.7504019,62.9737448 63.6980555,63.0621148 63.6394659,63.1457926 C63.630897,63.1583093 63.621917,63.1708192 63.6127752,63.1832473 C63.5912415,63.2122996 63.5691082,63.2407715 63.5462374,63.2686147 C63.5335356,63.2841814 63.5210737,63.2988863 63.5083653,63.3134509 C63.4862417,63.3387735 63.4631436,63.3639654 63.4394214,63.3885511 C63.4308243,63.397458 63.4225636,63.4058635 63.4142136,63.4142136 L63.3835197,63.4442592 C63.3636189,63.4633282 63.3433248,63.4819898 63.3226506,63.5002308 L63.4142136,63.4142136 C63.3675838,63.4608433 63.3192244,63.5046892 63.2693418,63.5457513 C63.2417108,63.568358 63.2134576,63.5903515 63.1846136,63.6115891 C63.1705354,63.6221387 63.1567065,63.6320532 63.1427815,63.64177 C63.058319,63.7005046 62.9687198,63.7532703 62.8750216,63.7989312 L62.8654509,63.8036561 C62.8569109,63.807754 62.8483477,63.8117877 62.8397623,63.8157573 C62.8030626,63.8326855 62.7659613,63.8485245 62.7283042,63.8632549 C62.7117689,63.8696778 62.69483,63.8760266 62.677825,63.8821379 C62.6418228,63.8951801 62.6054325,63.9071148 62.5685988,63.9180174 C62.5561497,63.9215486 62.5435357,63.9251422 62.5308942,63.9286095 C62.4952856,63.9385528 62.4592856,63.9473709 62.4229181,63.9552 C62.4037251,63.9591538 62.3844125,63.9630158 62.3650573,63.9665909 C62.3323727,63.972791 62.2993039,63.9780404 62.2659757,63.9824691 C62.2447482,63.9851739 62.2233969,63.9876752 62.2020175,63.9898331 C62.1843708,63.991692 62.1668482,63.9932168 62.1492623,63.9945143 L62.1108902,63.9969425 C62.0908361,63.9980493 62.0707686,63.9988556 62.0506949,63.9993614 L62,64 L46,64 C44.8954305,64 44,63.1045695 44,62 C44,60.9456382 44.8158778,60.0818349 45.8507377,60.0054857 L46,60 L57.171,60 L40.5857864,43.4142136 C39.8047379,42.633165 39.8047379,41.366835 40.5857864,40.5857864 C41.2846194,39.8869535 42.3719463,39.8133921 43.1525674,40.3651024 Z M63.1355648,0.353420014 L63.1457206,0.360284841 C63.1583093,0.369102969 63.1708192,0.378082967 63.1832473,0.387224836 C63.2130105,0.409280935 63.2421636,0.431974776 63.2706561,0.455441693 C63.2847954,0.467000587 63.298169,0.478333905 63.3114269,0.489871008 C63.3374748,0.512568354 63.3633318,0.536245166 63.3885511,0.560578607 C63.397458,0.569175654 63.4058635,0.577436412 63.4142136,0.585786438 L63.4442592,0.616480304 C63.4633282,0.636381086 63.4819898,0.656675235 63.5002308,0.677349358 L63.4142136,0.585786438 C63.4608433,0.632416204 63.5046892,0.680775643 63.5457513,0.730658227 C63.5630942,0.751887013 63.5801214,0.77348402 63.5967065,0.795433766 C63.6122993,0.815831034 63.6272552,0.83641762 63.64177,0.857218519 C63.7005046,0.941680962 63.7532703,1.03128024 63.7989312,1.12497839 L63.8036561,1.13454909 C63.8071235,1.14177528 63.810545,1.149018 63.8139206,1.15627679 C63.8315385,1.19425469 63.8479918,1.23267694 63.8632549,1.2716958 C63.8696778,1.28823114 63.8760266,1.30516996 63.8821379,1.322175 C63.894833,1.35721348 63.9064736,1.39261492 63.9171375,1.42843702 C63.9209721,1.44182947 63.9248645,1.45545166 63.9286095,1.46910581 C63.9385528,1.50471437 63.9473709,1.54071436 63.9552,1.57708189 C63.9591538,1.59627488 63.9630158,1.61558749 63.9665909,1.63494269 C63.972791,1.66762727 63.9780404,1.70069615 63.9824691,1.73402429 C63.9851739,1.75525184 63.9876752,1.7766031 63.9898331,1.79798248 C63.991692,1.81562918 63.9932168,1.8331518 63.9945143,1.85073766 L63.9969425,1.88910982 C63.9980677,1.90949812 63.9988824,1.92990035 63.9993864,1.95030883 L64,2 L64,18 C64,19.1045695 63.1045695,20 62,20 C60.9456382,20 60.0818349,19.1841222 60.0054857,18.1492623 L60,18 L60,6.828 L43.4142136,23.4142136 C42.633165,24.1952621 41.366835,24.1952621 40.5857864,23.4142136 C39.8458457,22.6742728 39.8069014,21.4987886 40.4689537,20.7130012 L40.5857864,20.5857864 L57.17,4 L46,4 C44.9456382,4 44.0818349,3.18412221 44.0054857,2.14926234 L44,2 C44,0.945638205 44.8158778,0.0818348781 45.8507377,0.00548573643 L46,0 L62,0 L62.0266039,0.00017584584 C62.0610702,0.000631496695 62.095527,0.0019726577 62.1299372,0.00419932886 L62,0 C62.0654669,0 62.1301991,0.00314549834 62.1940538,0.00929360727 C62.2194128,0.011836278 62.2447699,0.0147812195 62.2700739,0.0182104939 C62.3021794,0.0224164827 62.3338707,0.0274830344 62.3653043,0.0332846127 C62.38744,0.0375433983 62.4097658,0.0420613477 62.4320241,0.0469629953 C62.4565432,0.0521807379 62.4809494,0.0580432685 62.5051769,0.0643486335 C62.532433,0.0716051443 62.5597175,0.0793187728 62.5868602,0.0876226054 C62.6124825,0.0953407705 62.6375811,0.10359177 62.6624549,0.112320502 C62.683931,0.119922414 62.7058375,0.128020105 62.7276251,0.136514179 C62.759129,0.148797466 62.7898563,0.161716355 62.8201819,0.175369049 C62.8351601,0.182044502 62.8503416,0.189093824 62.8654509,0.196343931 L62.8813586,0.204170819 C62.9699893,0.247751425 63.0549236,0.297700122 63.1355648,0.353420014 Z M18,0 C19.1045695,0 20,0.8954305 20,2 C20,3.0543618 19.1841222,3.91816512 18.1492623,3.99451426 L18,4 L6.829,4 L23.4141428,20.5837157 C24.1952305,21.3647253 24.1952938,22.6310552 23.4142843,23.4121428 C22.6743805,24.1521206 21.4988983,24.1911236 20.7130778,23.5291107 L20.5858572,23.4122843 L4,6.828 L4,18 C4,19.0543618 3.18412221,19.9181651 2.14926234,19.9945143 L2,20 C0.945638205,20 0.0818348781,19.1841222 0.00548573643,18.1492623 L0,18 L0.00258305659,1.89746234 L0.0171264263,1.73804922 L0.0328513767,1.63705092 L0.0441129583,1.5811277 C0.0769785076,1.42619994 0.127938085,1.27782088 0.194615582,1.13835117 L0.287504291,0.965963647 L0.378239211,0.829066834 L0.476679389,0.703886815 L0.585826654,0.585726806 L0.658758313,0.516337836 L0.780908552,0.414355525 L0.86793722,0.350802412 L1.00194953,0.26625086 L1.13741593,0.194971123 L1.28394229,0.131990225 L1.43620906,0.0805660838 L1.49847645,0.0634015198 L1.63808512,0.0328313969 L1.85073766,0.00548573643 L2,0 L18,0 Z" id="Combined-Shape" fill="#000000"></path>
    </g>
</svg>