<?xml version="1.0" encoding="UTF-8"?>
<svg width="64px" height="64px" viewBox="0 0 64 64" version="1.1" xmlns="http://www.w3.org/2000/svg" xmlns:xlink="http://www.w3.org/1999/xlink">
    <title>Icon/favorite</title>
    <g id="Icon/favorite" stroke="none" stroke-width="1" fill="none" fill-rule="evenodd">
        <path d="M22.641,22.131 L4.79063043,24.0109891 L4.63818455,24.0325584 C3.04220895,24.3175452 2.41894633,26.3325892 3.6390978,27.465587 L16.809,39.694 L13.0429004,57.587979 L13.0175203,57.7327408 C12.7893114,59.3617632 14.5591189,60.5797045 16.0140403,59.7238684 L32,50.32 L47.9859597,59.7238684 L48.1150935,59.7940439 C49.5865368,60.5293314 51.3048396,59.2397443 50.9570996,57.587979 L47.19,39.694 L60.3609022,27.465587 L60.4699173,27.356864 C61.5757057,26.1712892 60.8652894,24.1852964 59.2093696,24.0109891 L41.358,22.131 L33.8276231,5.18772307 C33.1237872,3.60409231 30.8762128,3.60409231 30.1723769,5.18772307 L22.641,22.131 Z M32,10.924 L38.1723769,24.8122769 L38.245071,24.9593222 C38.5581918,25.532356 39.1343609,25.9199299 39.7906304,25.9890109 L54.414,27.528 L43.6390978,37.534413 L43.525507,37.6487274 C43.0919138,38.1217127 42.9093683,38.7777436 43.0429004,39.412021 L46.109,53.979 L33.0140403,46.2761316 L32.8546067,46.191758 C32.2598057,45.9105129 31.5596998,45.9386374 30.9859597,46.2761316 L17.89,53.979 L20.9570996,39.412021 L20.9839353,39.2531169 C21.0652394,38.6166362 20.835885,37.9754685 20.3609022,37.534413 L9.585,27.528 L24.2093696,25.9890109 C24.9203283,25.9141731 25.5372801,25.4655486 25.8276231,24.8122769 L32,10.924 Z" id="Path" fill="#000000"></path>
    </g>
</svg>