<?xml version="1.0" encoding="UTF-8"?>
<svg width="64px" height="64px" viewBox="0 0 64 64" version="1.1" xmlns="http://www.w3.org/2000/svg" xmlns:xlink="http://www.w3.org/1999/xlink">
    <title>Icon/Financials</title>
    <g id="Icon/Financials" stroke="none" stroke-width="1" fill="none" fill-rule="evenodd">
        <path d="M62,1 C63.0543618,1 63.9181651,1.81587779 63.9945143,2.85073766 L64,3 L64,39 C64,40.0543618 63.1841222,40.9181651 62.1492623,40.9945143 L62,41 L56,41 L56,41 L56,57 C56,60.0192018 52.223578,61.9597644 46.94532,62.6822028 L46.2778802,62.7661531 C45.9404138,62.8049459 45.5974511,62.8389578 45.2495474,62.8681546 L44.5473165,62.9201181 C44.3111532,62.9352925 44.0729584,62.9483168 43.8328967,62.9591809 L43.1072754,62.9852824 C42.7418289,62.9950828 42.372552,63 42,63 C41.627448,63 41.2581711,62.9950828 40.8927246,62.9852824 L40.1671033,62.9591809 C39.9270416,62.9483168 39.6888468,62.9352925 39.4526835,62.9201181 L38.7504526,62.8681546 C38.4025489,62.8389578 38.0595862,62.8049459 37.7221198,62.7661531 L37.05468,62.6822028 C31.8863857,61.9748152 28.1580028,60.0995299 28.0048966,57.1872944 L28,57 L28,41 L28,41 L2,41 C0.945638205,41 0.0818348781,40.1841222 0.00548573643,39.1492623 L0,39 L0,3 C0,1.9456382 0.815877791,1.08183488 1.85073766,1.00548574 L2,1 L62,1 Z M46.94532,54.6822028 L46.2778802,54.7661531 C45.9404138,54.8049459 45.5974511,54.8389578 45.2495474,54.8681546 L44.5473165,54.9201181 C44.3111532,54.9352925 44.0729584,54.9483168 43.8328967,54.9591809 L43.1072754,54.9852824 C42.7418289,54.9950828 42.372552,55 42,55 C41.627448,55 41.2581711,54.9950828 40.8927246,54.9852824 L40.1671033,54.9591809 C39.9270416,54.9483168 39.6888468,54.9352925 39.4526835,54.9201181 L38.7504526,54.8681546 C38.4025489,54.8389578 38.0595862,54.8049459 37.7221198,54.7661531 L37.05468,54.6822028 C35.1344047,54.4193735 33.4129073,53.9953174 31.9997149,53.416751 L32,56.819 C32.0287744,56.8485344 32.0641226,56.8821047 32.1083638,56.9199046 L32.1814487,56.9796487 C32.5832461,57.2949051 33.2624902,57.6293116 34.1574555,57.9276334 C36.1797724,58.601739 38.9921075,59 42,59 C45.0078925,59 47.8202276,58.601739 49.8425445,57.9276334 C50.7375098,57.6293116 51.4167539,57.2949051 51.8185513,56.9796487 C51.8717923,56.937875 51.9159266,56.8998195 51.9513816,56.8665048 L52,56.818 L52.0012883,53.4163403 C50.5879074,53.9951167 48.8660497,54.4193113 46.94532,54.6822028 Z M46.94532,46.6822028 L46.2778802,46.7661531 C45.9404138,46.8049459 45.5974511,46.8389578 45.2495474,46.8681546 L44.5473165,46.9201181 C44.3111532,46.9352925 44.0729584,46.9483168 43.8328967,46.9591809 L43.1072754,46.9852824 C42.7418289,46.9950828 42.372552,47 42,47 C41.627448,47 41.2581711,46.9950828 40.8927246,46.9852824 L40.1671033,46.9591809 C39.9270416,46.9483168 39.6888468,46.9352925 39.4526835,46.9201181 L38.7504526,46.8681546 C38.4025489,46.8389578 38.0595862,46.8049459 37.7221198,46.7661531 L37.05468,46.6822028 C35.1344047,46.4193735 33.4129073,45.9953174 31.9997149,45.416751 L32,48.819 L32.001892,48.820216 C32.0287744,48.8485344 32.0641226,48.8821047 32.1083638,48.9199046 L32.1814487,48.9796487 C32.5832461,49.2949051 33.2624902,49.6293116 34.1574555,49.9276334 C36.1797724,50.601739 38.9921075,51 42,51 C45.0078925,51 47.8202276,50.601739 49.8425445,49.9276334 C50.7375098,49.6293116 51.4167539,49.2949051 51.8185513,48.9796487 C51.8717923,48.937875 51.9159266,48.8998195 51.9513816,48.8665048 L52,48.817 L52.0012883,45.4163403 C50.5879074,45.9951167 48.8660497,46.4193113 46.94532,46.6822028 Z M52.0002326,37.424392 C51.2381128,37.7357793 50.386037,38.0020834 49.4609136,38.2223462 L49.4609136,38.2223462 L48.8620014,38.3563939 C48.5577687,38.420296 48.2464926,38.4795086 47.9287191,38.5340008 L47.9287191,38.5340008 L47.2846705,38.6366821 C47.0672077,38.6688051 46.847019,38.6988209 46.6242661,38.7267204 L46.6242661,38.7267204 L45.9484764,38.8040609 L45.2582723,38.8686485 C44.7935471,38.9074437 44.3198593,38.9377002 43.8385031,38.9593448 L43.8385031,38.9593448 L43.1108794,38.9853435 C42.7443537,38.9951042 42.3738786,39 42,39 C41.6261214,39 41.2556463,38.9951042 40.8891206,38.9853435 L40.8891206,38.9853435 L40.1614969,38.9593448 C39.6801407,38.9377002 39.2064529,38.9074437 38.7417277,38.8686485 L38.7417277,38.8686485 L38.0515236,38.8040609 L37.3757339,38.7267204 C37.152981,38.6988209 36.9327923,38.6688051 36.7153295,38.6366821 L36.7153295,38.6366821 L36.0712809,38.5340008 C35.7535074,38.4795086 35.4422313,38.420296 35.1379986,38.3563939 L35.1379986,38.3563939 L34.5390864,38.2223462 C33.6143621,38.0021785 32.7626224,37.736009 32.0007538,37.424795 L32,40.819 L32.001892,40.820216 C32.0287744,40.8485344 32.0641226,40.8821047 32.1083638,40.9199046 L32.1814487,40.9796487 C32.5832461,41.2949051 33.2624902,41.6293116 34.1574555,41.9276334 C36.1797724,42.601739 38.9921075,43 42,43 C45.0078925,43 47.8202276,42.601739 49.8425445,41.9276334 C50.7375098,41.6293116 51.4167539,41.2949051 51.8185513,40.9796487 C51.8717923,40.937875 51.9159266,40.8998195 51.9513816,40.8665048 L52,40.817 Z M56,37 L60,37 L60.0001873,14.8341145 C54.9753585,13.99119 51.00939,10.0254979 50.1660527,5.00080917 L13.8321473,5.00037847 C13.4195531,7.44085016 12.2585722,9.71199053 10.4852814,11.4852814 C8.71199053,13.2585722 6.44085016,14.4195531 4.00037847,14.8321473 L4.00037847,27.1678527 C6.44085016,27.5804469 8.71199053,28.7414278 10.4852814,30.5147186 C12.2588138,32.2882511 13.4198694,34.5597687 13.8323158,37.000619 L28,37 L28,33 L28.0006389,32.9318087 C28.0174594,32.0358987 28.3659251,31.2366121 28.9870553,30.5372919 C24.9366564,29.2598966 22,25.4728947 22,21 C22,15.4771525 26.4771525,11 32,11 C37.5228475,11 42,15.4771525 42,21 C42,23.2741669 41.2408625,25.3710277 39.9621708,27.0509992 L40.1614969,27.0406552 L40.8891206,27.0146565 C41.2556463,27.0048958 41.6261214,27 42,27 L42,27 L42.3727239,27.0016308 C42.6204232,27.0038044 42.866529,27.0081494 43.1108794,27.0146565 L43.1108794,27.0146565 L43.8385031,27.0406552 C44.3198593,27.0622998 44.7935471,27.0925563 45.2582723,27.1313515 L45.2582723,27.1313515 L45.9484764,27.1959391 L46.6242661,27.2732796 C46.847019,27.3011791 47.0672077,27.3311949 47.2846705,27.3633179 L47.2846705,27.3633179 L47.9287191,27.4659992 C48.2464926,27.5204914 48.5577687,27.579704 48.8620014,27.6436061 L48.8620014,27.6436061 L49.4609136,27.7776538 C53.3888966,28.7128676 56,30.4781023 56,33 L56,32.999 L56,37 Z M4.00067311,31.254184 L4,37 L9.74607293,37.0003219 C9.39179845,35.6281425 8.67601746,34.362309 7.65685425,33.3431458 C6.63793739,32.3242289 5.37246945,31.6085476 4.00067311,31.254184 Z M42,31 C38.9770443,31 36.1643036,31.396563 34.1471742,32.0689395 C33.2553445,32.366216 32.5797952,32.6995309 32.1809672,33.0138427 L32.199,32.999 L32.3088568,33.0809659 C32.6263543,33.3032593 33.0764836,33.5321672 33.6385135,33.7488103 L33.8861741,33.8408515 L34.1471742,33.9310605 C36.1643036,34.603437 38.9770443,35 42,35 C45.0229557,35 47.8356964,34.603437 49.8528258,33.9310605 C50.7446555,33.633784 51.4202048,33.3004691 51.8190328,32.9861573 L51.801,32.999 L51.6911432,32.9190341 C51.3282889,32.6649845 50.7922013,32.4022956 50.1138259,32.1591485 L50.1138259,32.1591485 L49.8528258,32.0689395 C47.8356964,31.396563 45.0229557,31 42,31 Z M32,15 C28.6862915,15 26,17.6862915 26,21 C26,24.3137085 28.6862915,27 32,27 C35.3137085,27 38,24.3137085 38,21 C38,17.6862915 35.3137085,15 32,15 Z M16,19 C17.1045695,19 18,19.8954305 18,21 C18,22.0543618 17.1841222,22.9181651 16.1492623,22.9945143 L16,23 L12,23 C10.8954305,23 10,22.1045695 10,21 C10,19.9456382 10.8158778,19.0818349 11.8507377,19.0054857 L12,19 L16,19 Z M52,19 C53.1045695,19 54,19.8954305 54,21 C54,22.0543618 53.1841222,22.9181651 52.1492623,22.9945143 L52,23 L48,23 C46.8954305,23 46,22.1045695 46,21 C46,19.9456382 46.8158778,19.0818349 47.8507377,19.0054857 L48,19 L52,19 Z M60,5 L54.2521271,5.0003581 C54.9758348,7.8116172 57.1892428,10.0247771 60.000644,10.7481308 L60,5 Z M9.7457288,5.00101048 L4,5 L4.00067311,10.745816 C5.37246945,10.3914524 6.63793739,9.67577111 7.65685425,8.65685425 C8.67568758,7.63802092 9.39133505,6.37267693 9.7457288,5.00101048 Z" id="Combined-Shape" fill="#000000"></path>
    </g>
</svg>