<?xml version="1.0" encoding="UTF-8"?>
<svg width="64px" height="64px" viewBox="0 0 64 64" version="1.1" xmlns="http://www.w3.org/2000/svg" xmlns:xlink="http://www.w3.org/1999/xlink">
    <title>Icon/Grid Layout</title>
    <g id="Icon/Grid-Layout" stroke="none" stroke-width="1" fill="none" fill-rule="evenodd">
        <path d="M26,36 C27.0543618,36 27.9181651,36.8158778 27.9945143,37.8507377 L28,38 L28,62 C28,63.0543618 27.1841222,63.9181651 26.1492623,63.9945143 L26,64 L2,64 C0.945638205,64 0.0818348781,63.1841222 0.00548573643,62.1492623 L0,62 L0,38 C0,36.9456382 0.815877791,36.0818349 1.85073766,36.0054857 L2,36 L26,36 Z M62,36 C63.1045695,36 64,36.8954305 64,38 L64,38 L64,62 C64,63.1045695 63.1045695,64 62,64 L62,64 L38,64 C36.8954305,64 36,63.1045695 36,62 L36,62 L36,38 C36,36.8954305 36.8954305,36 38,36 L38,36 Z M24,40 L4,40 L4,60 L24,60 L24,40 Z M60,40 L40,40 L40,60 L60,60 L60,40 Z M26,0 C27.0543618,0 27.9181651,0.815877791 27.9945143,1.85073766 L28,2 L28,26 C28,27.0543618 27.1841222,27.9181651 26.1492623,27.9945143 L26,28 L2,28 C0.945638205,28 0.0818348781,27.1841222 0.00548573643,26.1492623 L0,26 L0,2 C0,0.945638205 0.815877791,0.0818348781 1.85073766,0.00548573643 L2,0 L26,0 Z M62,0 C63.0543618,0 63.9181651,0.815877791 63.9945143,1.85073766 L64,2 L64,26 C64,27.0543618 63.1841222,27.9181651 62.1492623,27.9945143 L62,28 L38,28 C36.9456382,28 36.0818349,27.1841222 36.0054857,26.1492623 L36,26 L36,2 C36,0.945638205 36.8158778,0.0818348781 37.8507377,0.00548573643 L38,0 L62,0 Z M24,4 L4,4 L4,24 L24,24 L24,4 Z M60,4 L40,4 L40,24 L60,24 L60,4 Z" id="Combined-Shape" fill="#000000"></path>
    </g>
</svg>