<?xml version="1.0" encoding="UTF-8"?>
<svg width="64px" height="64px" viewBox="0 0 64 64" version="1.1" xmlns="http://www.w3.org/2000/svg" xmlns:xlink="http://www.w3.org/1999/xlink">
    <title>Icon/help</title>
    <g id="Icon/help" stroke="none" stroke-width="1" fill="none" fill-rule="evenodd">
        <path d="M32,0 C49.673112,0 64,14.326888 64,32 C64,49.673112 49.673112,64 32,64 C14.326888,64 0,49.673112 0,32 C0,14.326888 14.326888,0 32,0 Z M32,4 C16.536027,4 4,16.536027 4,32 C4,47.463973 16.536027,60 32,60 C47.463973,60 60,47.463973 60,32 C60,16.536027 47.463973,4 32,4 Z M32,45 C33.1045695,45 34,45.8954305 34,47 C34,48.1045695 33.1045695,49 32,49 C30.8954305,49 30,48.1045695 30,47 C30,45.8954305 30.8954305,45 32,45 Z M32.47,15 C38.799985,15 42,19.7861979 42,24.528 C42,27.3878532 40.8173141,29.9559417 37.6591073,33.1945958 L37.111939,33.7474259 L36.6555685,34.2193877 C36.5832239,34.2956427 36.5127108,34.3707253 36.4439891,34.4446807 L36.052833,34.8752494 C35.9293981,35.0145052 35.8128063,35.1496146 35.7027351,35.28094 L35.3917611,35.6639262 C34.3695621,36.9671817 34.030721,37.8931889 34.0020293,38.861358 L34,39 L34,41 C34,42.1045695 33.1045695,43 32,43 C30.9456382,43 30.0818349,42.1841222 30.0054857,41.1492623 L30,41 L30,39 C30,36.4093415 31.0913582,34.1789844 34.228829,30.9748624 L34.5289904,30.6715825 C37.2091403,27.9922056 38,26.332881 38,24.528 C38,21.7353328 36.1711776,19 32.47,19 C28.3077273,19 26,21.6317515 26,24.528 C26,25.6325695 25.1045695,26.528 24,26.528 C22.8954305,26.528 22,25.6325695 22,24.528 C22,19.5309894 25.9731288,15 32.47,15 Z" id="Combined-Shape" fill="#000000"></path>
    </g>
</svg>