<?xml version="1.0" encoding="UTF-8"?>
<svg width="64px" height="64px" viewBox="0 0 64 64" version="1.1" xmlns="http://www.w3.org/2000/svg" xmlns:xlink="http://www.w3.org/1999/xlink">
    <title>Icon/import</title>
    <g id="Icon/import" stroke="none" stroke-width="1" fill="none" fill-rule="evenodd">
        <path d="M38.8733264,4.34754531 C40.2009427,3.44235233 42,4.39315851 42,6 L42,6 L42,13.045 L42.3048343,13.0600401 C53.956406,13.6824801 60.428487,19.1136888 62.8512536,27.910265 L62.8512536,27.910265 L62.9424427,28.2502513 C63.7402067,31.3058206 63.9662895,33.8716202 63.996351,37.9482179 L63.996351,37.9482179 L64,39 C64,41.054428 61.2736414,41.7736398 60.2602497,39.9865439 C57.5925172,35.2820514 55.1616731,32.5084568 52.0011315,30.9251757 L52,59 C52,60.0543618 51.1841222,60.9181651 50.1492623,60.9945143 L50,61 L2,61 C0.945638205,61 0.0818348781,60.1841222 0.00548573643,59.1492623 L0,59 L0,21 C0,19.9456382 0.815877791,19.0818349 1.85073766,19.0054857 L2,19 L17.382,18.9995823 Z M17.383,22.9995823 L4,23 L4,57 L48,57 L48.000418,29.5894434 C46.3129885,29.2479876 44.4154703,29.0798687 42.2271177,29.0232202 L42.2271177,29.0232202 L42,29.018 L42,36 C42,37.5566277 40.3116269,38.4975816 38.9991023,37.7319157 L38.9991023,37.7319157 L38.8733264,37.6524547 L17.383,22.9995823 Z M38,9.783 L21.55,21 L38,32.216 L38,27 C38,25.944613 38.8174057,25.0803582 39.8533377,25.0052924 L39.8533377,25.0052924 L40.0027499,25.0000019 L40.5992899,25.0008241 C46.2477031,25.0164466 49.4012116,25.4099938 52.7549287,26.9071268 C55.1576434,27.9797228 57.3417501,29.5845934 59.3779716,31.8308796 L59.3779716,31.8308796 L59.653,32.139 L59.6146586,31.8740529 C59.4974435,31.1062101 59.3473381,30.3604259 59.1564879,29.5917068 L59.1564879,29.5917068 L59.0721775,29.2607205 C57.0294519,21.4367413 51.4276924,17 40,17 C38.8954305,17 38,16.1045695 38,15 L38,15 L38,9.783 Z" id="Combined-Shape" fill="#000000"></path>
    </g>
</svg>