<?xml version="1.0" encoding="UTF-8"?>
<svg width="64px" height="64px" viewBox="0 0 64 64" version="1.1" xmlns="http://www.w3.org/2000/svg" xmlns:xlink="http://www.w3.org/1999/xlink">
    <title>Icon/information</title>
    <g id="Icon/information" stroke="none" stroke-width="1" fill="none" fill-rule="evenodd">
        <path d="M32,0 C49.673112,0 64,14.326888 64,32 C64,49.673112 49.673112,64 32,64 C14.326888,64 0,49.673112 0,32 C0,14.326888 14.326888,0 32,0 Z M32,4 C16.536027,4 4,16.536027 4,32 C4,47.463973 16.536027,60 32,60 C47.463973,60 60,47.463973 60,32 C60,16.536027 47.463973,4 32,4 Z M32,26 C33.0543618,26 33.9181651,26.8158778 33.9945143,27.8507377 L34,28 L34,47.511 L36,47.5112849 C37.1045695,47.5112849 38,48.4067154 38,49.5112849 C38,50.5656467 37.1841222,51.42945 36.1492623,51.5057991 L36,51.5112849 L28,51.5112849 C26.8954305,51.5112849 26,50.6158544 26,49.5112849 C26,48.4569231 26.8158778,47.5931198 27.8507377,47.5167706 L28,47.5112849 L30,47.511 L30,30 L28,30 C26.9456382,30 26.0818349,29.1841222 26.0054857,28.1492623 L26,28 C26,26.9456382 26.8158778,26.0818349 27.8507377,26.0054857 L28,26 L32,26 Z M31,13 C33.209139,13 35,14.790861 35,17 C35,19.209139 33.209139,21 31,21 C28.790861,21 27,19.209139 27,17 C27,14.790861 28.790861,13 31,13 Z" id="Combined-Shape" fill="#000000"></path>
    </g>
</svg>