<?xml version="1.0" encoding="UTF-8"?>
<svg width="64px" height="64px" viewBox="0 0 64 64" version="1.1" xmlns="http://www.w3.org/2000/svg" xmlns:xlink="http://www.w3.org/1999/xlink">
    <title>Icon/invisible</title>
    <g id="Icon/invisible" stroke="none" stroke-width="1" fill="none" fill-rule="evenodd">
        <path d="M63.4142136,0.585786438 C64.1541543,1.3257272 64.1930986,2.50121136 63.5310463,3.28699879 L63.4142136,3.41421356 L3.41421356,63.4142136 C2.63316498,64.1952621 1.36683502,64.1952621 0.585786438,63.4142136 C-0.154154326,62.6742728 -0.193098576,61.4987886 0.468953686,60.7130012 L0.585786438,60.5857864 L14.6827733,46.4884088 C9.36803187,43.0868359 4.69861223,38.7577763 0.900801779,33.7010683 C0.380390949,33.0081518 0.365425958,32.0589168 0.863735491,31.3499398 L1.14847459,30.9599049 C1.24221028,30.834648 1.3527399,30.6891743 1.47979507,30.524821 L1.99196898,29.8757177 C2.35168465,29.4286164 2.74777006,28.9536217 3.17924683,28.4557639 C5.02267467,26.3287318 7.14297857,24.2035704 9.51602637,22.2165686 C16.375665,16.4728521 23.9365602,13.0001367 32.0233832,13.0001367 C36.5629279,13.0532148 41.0295707,14.0993626 45.1118677,16.0578354 L60.5857864,0.585786438 C61.366835,-0.195262146 62.633165,-0.195262146 63.4142136,0.585786438 Z M53.2331461,21.2254046 C56.9498411,24.1361384 60.267262,27.5233997 63.0999415,31.2999127 C63.6196486,31.9927944 63.6343117,32.9414537 63.1362667,33.6500571 L62.8515277,34.0400935 C62.757792,34.1653508 62.6472624,34.310825 62.5202073,34.4751789 L62.0080335,35.1242847 C61.6483178,35.5713878 61.2522325,36.0463842 60.8207557,36.544244 C58.9773281,38.6712844 56.8570243,40.7964541 54.4839766,42.7834637 C47.6243377,48.5272034 40.0634417,52.0001374 32.0045279,52.0001374 C29.7952642,52.0050662 27.5930246,51.7523313 25.4424745,51.2469644 C24.3671958,50.9942801 23.7003512,49.9177533 23.9530356,48.8424745 C24.2057199,47.7671958 25.2822467,47.1003512 26.3575255,47.3530356 C28.2052016,47.7872289 30.097309,48.0043721 32,48.0000697 C38.9865583,48.0000697 45.7131623,44.9104099 51.9160234,39.716606 C54.1148507,37.8754753 56.0867344,35.8990662 57.7979943,33.9245278 C58.096457,33.5801463 58.3758138,33.2485391 58.6355739,32.9318566 L58.977,32.509 L58.8959034,32.4062233 C56.6753324,29.64015 54.1650769,27.1186098 51.4075711,24.8849302 L50.7668539,24.3745954 C49.8972289,23.6935476 49.7443568,22.4364789 50.4254046,21.5668539 C51.1064524,20.6972289 52.3635211,20.5443568 53.2331461,21.2254046 Z M44,30 C45.1045695,30 46,30.8954305 46,32 C46,39.7319865 39.7319865,46 32,46 C30.8954305,46 30,45.1045695 30,44 C30,42.8954305 30.8954305,42 32,42 C37.5228475,42 42,37.5228475 42,32 C42,30.8954305 42.8954305,30 44,30 Z M31.9999994,17 C25.0134398,17 18.286835,20.0896479 12.0839736,25.2834314 C9.88514643,27.1245546 7.91326283,29.1009557 6.20200317,31.0754861 C5.90354044,31.4198661 5.62418373,31.751472 5.36442363,32.0681532 L5.023,32.489 L5.41792378,32.9772249 C8.85675202,37.1623594 12.9681299,40.7482848 17.584649,43.5871599 L20.7708075,40.3987449 C16.6524823,34.9068826 17.0908087,27.0807644 22.0857866,22.0857866 C27.0807644,17.0908087 34.9068826,16.6524823 40.3987449,20.7708075 L42.0864343,19.0840265 C38.8898109,17.7512657 35.4621581,17.0405892 31.9999994,17 Z M24.9142137,24.9142137 C21.4853265,28.3431009 21.0608222,33.6386723 23.6407009,37.5297592 L37.5297592,23.6407009 C33.6386723,21.0608222 28.3431009,21.4853265 24.9142137,24.9142137 Z" id="Combined-Shape" fill="#000000"></path>
    </g>
</svg>