<?xml version="1.0" encoding="UTF-8"?>
<svg width="64px" height="64px" viewBox="0 0 64 64" version="1.1" xmlns="http://www.w3.org/2000/svg" xmlns:xlink="http://www.w3.org/1999/xlink">
    <title>Icon/IT Infrastructure</title>
    <g id="Icon/IT-Infrastructure" stroke="none" stroke-width="1" fill="none" fill-rule="evenodd">
        <path d="M6.903,1.088 C10.7689932,1.088 13.903,4.22200675 13.903,8.088 C13.903,9.59946679 13.4239565,10.999047 12.6094148,12.1431952 L21.8038993,22.255737 C22.2287489,21.9453192 22.8003613,21.8723967 23.3015679,22.0969877 L23.4307271,22.16245 L25.315,23.233 L25.4691681,23.1253159 C25.8153169,22.8921466 26.1744303,22.6771205 26.5460455,22.4807275 L26.9218108,22.2905638 L27.11,22.202 L27.1105611,20 C27.1105611,19.2690349 27.6334119,18.6601881 28.3255261,18.5270472 L28.466101,18.5068666 L28.6105611,18.5 L35.4752475,18.5 C36.2549436,18.5 36.8956962,19.0948881 36.9683809,19.85554 L36.9752475,20 L36.975,22.289 L37.1303655,22.3600312 C37.5061594,22.5406815 37.8731061,22.7418429 38.2305485,22.9633534 L38.5847984,23.191641 L38.757,23.311 L40.5514161,22.2594245 C40.7138752,22.1641502 40.8868406,22.1029322 41.0620622,22.0735787 C41.0820803,22.0424649 41.1042788,22.0116277 41.1274703,21.9812824 L41.2381199,21.8486544 L50.4583235,11.7067824 C50.1064854,10.8717013 49.912,9.95406289 49.912,8.991 C49.912,5.12500675 53.0460068,1.991 56.912,1.991 C60.7779932,1.991 63.912,5.12500675 63.912,8.991 C63.912,12.8569932 60.7779932,15.991 56.912,15.991 C55.4776754,15.991 54.1441079,15.5596074 53.0339668,14.8194916 L44.1978801,24.5393456 C44.0775328,24.6717276 43.943494,24.7842477 43.7998832,24.8767097 L46.0435121,28.7866335 C46.4428144,29.4823178 46.221756,30.3591769 45.5642968,30.7883794 L45.435954,30.8634553 L43.706,31.764 L43.7282346,32.0106705 L43.7413064,32.2385496 L43.7499786,32.4663738 L43.7541036,32.9214222 L43.7443449,33.3410681 L43.719356,33.7624114 L43.701,33.95 L45.7661586,35.1770927 C46.3851756,35.5448616 46.6445829,36.2897293 46.4210136,36.9478004 L46.3698234,37.0781199 L46.3055346,37.2053001 L44.9329691,39.6305375 C45.217957,39.7170684 45.4866868,39.8682053 45.71569,40.082713 L45.8365883,40.2060705 L54.2561316,49.5620753 C55.1011005,49.2002947 56.0316596,49 57.009,49 C60.8749932,49 64.009,52.1340068 64.009,56 C64.009,59.8659932 60.8749932,63 57.009,63 C53.1430068,63 50.009,59.8659932 50.009,56 C50.009,54.5656754 50.4403926,53.2321079 51.1805084,52.1219668 L43.005,43.038 L42.8731914,43.2719668 C42.4798751,43.9671533 41.617934,44.2251981 40.9144369,43.8837644 L40.7845411,43.8126808 L38.85,42.629 L38.6746147,42.7578658 C38.3068384,43.0161058 37.9239565,43.25364 37.5268135,43.4697276 L37.1249481,43.6786387 L36.889,43.789 L36.8894389,46 C36.8894389,46.7309651 36.3665881,47.3398119 35.6744739,47.4729528 L35.533899,47.4931334 L35.3894389,47.5 L28.5247525,47.5 C27.7450564,47.5 27.1043038,46.9051119 27.0316191,46.14446 L27.0247525,46 L27.024,43.794 L26.830513,43.7042425 C26.4437176,43.5153093 26.0665296,43.3045967 25.6997334,43.0723315 L25.3364302,42.8328904 L25.119,42.678 L23.1561382,43.7604859 C22.5476081,44.0957306 21.8062709,43.9643659 21.3470811,43.4826188 L12.7401887,52.0896668 C13.5341822,53.2248857 14,54.606544 14,56.097 C14,59.9629932 10.8659932,63.097 7,63.097 C3.13400675,63.097 -2.27373675e-13,59.9629932 -2.27373675e-13,56.097 C-2.27373675e-13,52.2310068 3.13400675,49.097 7,49.097 C7.9119133,49.097 8.78309907,49.2713752 9.5820324,49.5886008 L19.252,39.918 L17.6990621,37.2133665 C17.312481,36.5398456 17.5061915,35.6914852 18.1249857,35.2482007 L18.2459532,35.1699734 L20.211,34.026 L20.1946878,33.8479804 L20.1805425,33.6401987 L20.1700716,33.4325314 L20.1601734,33.017946 C20.1577286,32.8136174 20.1606193,32.6093364 20.1689977,32.4042397 L20.1857001,32.095875 L20.21,31.807 L18.5123296,30.8351904 C17.8801442,30.4733696 17.610768,29.7208253 17.8353864,29.0551877 L17.8869356,28.9233605 L17.9518911,28.7946999 L19.7811402,25.5622867 C19.500715,25.4765174 19.236085,25.3280989 19.0096335,25.1180971 L18.8881199,24.9953456 L9.44785972,14.6110355 C8.65910406,14.9189842 7.8007899,15.088 6.903,15.088 C3.03700675,15.088 -0.097,11.9539932 -0.097,8.088 C-0.097,4.22200675 3.03700675,1.088 6.903,1.088 Z M7,53.097 C5.34314575,53.097 4,54.4401458 4,56.097 C4,57.7538542 5.34314575,59.097 7,59.097 C8.65685425,59.097 10,57.7538542 10,56.097 C10,54.4401458 8.65685425,53.097 7,53.097 Z M57.009,53 C55.3521458,53 54.009,54.3431458 54.009,56 C54.009,57.6568542 55.3521458,59 57.009,59 C58.6658542,59 60.009,57.6568542 60.009,56 C60.009,54.3431458 58.6658542,53 57.009,53 Z M33.975,21.5 L30.11,21.5 L30.1105611,23.2066667 C30.1105611,23.7346407 29.8339977,24.215958 29.3952679,24.4851263 L29.2716796,24.5531516 L29.1405657,24.6099111 L28.7858772,24.7435566 C27.9215012,25.0899212 27.1165642,25.5728456 26.4012091,26.1745705 C25.96106,26.5448044 25.3523086,26.6280574 24.833696,26.4006297 L24.6946855,26.3308833 L23.255,25.513 L21.297,28.972 L22.5767793,29.7048096 C23.037221,29.9683357 23.3178742,30.450656 23.33125,30.9675578 L23.3282054,31.10925 L23.3115131,31.2518266 L23.2505164,31.6182536 C23.1847867,32.0696726 23.1544984,32.5256989 23.1600377,32.9907911 C23.1632466,33.5134527 23.2124054,34.0347823 23.3069293,34.5486169 C23.4126347,35.1232341 23.1748969,35.702019 22.707341,36.0379208 L22.58573,36.1166933 L21.043,37.013 L22.999,40.421 L24.5402315,39.5728475 C24.9904934,39.3247941 25.5290504,39.3275365 25.9706644,39.5634568 L26.100055,39.6412106 L26.2225177,39.7328493 L26.5244039,39.984041 C27.2787511,40.584954 28.1253289,41.0569421 29.0305678,41.3811893 C29.5810084,41.5783514 29.9623669,42.0750588 30.0177804,42.6485026 L30.0247525,42.7933333 L30.024,44.5 L33.889,44.5 L33.8894389,42.7933333 C33.8894389,42.2679967 34.1632854,41.7885988 34.5986518,41.5186281 L34.7213083,41.450315 L34.8514677,41.3931237 L35.1910007,41.2629625 C36.122859,40.8844667 36.9848708,40.3487153 37.7401652,39.678231 C38.1958828,39.2736848 38.8462911,39.1880574 39.3865073,39.4483556 L39.5190893,39.5206526 L41.026,40.443 L42.971,37.006 L41.3163496,36.0229073 C40.8664368,35.7556062 40.5943726,35.2778345 40.5828275,34.7675492 L40.5862001,34.6277081 L40.6028637,34.487057 L40.6588417,34.1521747 C40.7200405,33.7394092 40.751896,33.3226963 40.7542052,32.8978617 C40.7601076,32.3256452 40.71091,31.7542154 40.6073137,31.1916634 C40.4965635,30.5902645 40.7620842,29.9871001 41.2681387,29.6602687 L41.3891285,29.589878 L42.663,28.925 L40.763,25.613 L39.4089799,26.4072421 C38.9603687,26.6703309 38.4150685,26.6790443 37.9648156,26.4476994 L37.8327829,26.3711085 L37.7076035,26.2802 L37.4119683,26.0410132 C36.6739817,25.4687567 35.850912,25.0184335 34.9733953,24.7068907 C34.4210611,24.5107966 34.037928,24.0132965 33.9822527,23.4385103 L33.9752475,23.2933333 L33.975,21.5 Z M32,27.5 C35.0375661,27.5 37.5,29.9624339 37.5,33 C37.5,36.0375661 35.0375661,38.5 32,38.5 C28.9624339,38.5 26.5,36.0375661 26.5,33 C26.5,29.9624339 28.9624339,27.5 32,27.5 Z M32,30.5 C30.6192881,30.5 29.5,31.6192881 29.5,33 C29.5,34.3807119 30.6192881,35.5 32,35.5 C33.3807119,35.5 34.5,34.3807119 34.5,33 C34.5,31.6192881 33.3807119,30.5 32,30.5 Z M56.912,5.991 C55.2551458,5.991 53.912,7.33414575 53.912,8.991 C53.912,10.6478542 55.2551458,11.991 56.912,11.991 C58.5688542,11.991 59.912,10.6478542 59.912,8.991 C59.912,7.33414575 58.5688542,5.991 56.912,5.991 Z M6.903,5.088 C5.24614575,5.088 3.903,6.43114575 3.903,8.088 C3.903,9.74485425 5.24614575,11.088 6.903,11.088 C8.55985425,11.088 9.903,9.74485425 9.903,8.088 C9.903,6.43114575 8.55985425,5.088 6.903,5.088 Z" id="Combined-Shape" fill="#000000"></path>
    </g>
</svg>