<?xml version="1.0" encoding="UTF-8"?>
<svg width="64px" height="64px" viewBox="0 0 64 64" version="1.1" xmlns="http://www.w3.org/2000/svg" xmlns:xlink="http://www.w3.org/1999/xlink">
    <title>Icon/Licenses</title>
    <g id="Icon/Licenses" stroke="none" stroke-width="1" fill="none" fill-rule="evenodd">
        <path d="M29,1 C29.0537518,1 29.1070083,1.00212047 29.1596905,1.00628231 L29,1 C29.0768891,1 29.1533217,1.00442752 29.2289569,1.01314139 C29.26486,1.01705955 29.3001843,1.02205819 29.3351994,1.0279668 C29.3534687,1.03137877 29.3725185,1.03489492 29.3915001,1.03868414 C29.4251494,1.0449926 29.4577435,1.05233843 29.4900256,1.06046906 C29.5125614,1.06664168 29.5356425,1.07290982 29.5585932,1.07958624 C29.5900059,1.08818139 29.6203739,1.09781293 29.6504185,1.10814001 C29.6686338,1.11497292 29.6873169,1.12170499 29.7058936,1.1287128 C29.7486001,1.14425783 29.790229,1.16162623 29.831118,1.1803323 C29.8376185,1.18383617 29.8442536,1.18691091 29.8508721,1.19002213 C29.952848,1.2375119 30.0500741,1.29386017 30.141707,1.35768102 C30.1522725,1.36523156 30.1627776,1.37268673 30.1732153,1.38024704 C30.2050277,1.40315876 30.2361728,1.42718352 30.2665709,1.45208609 C30.27276,1.4572223 30.2785892,1.46205018 30.2843934,1.46691315 L30.3110075,1.4895757 C30.3374748,1.51256835 30.3633318,1.53624517 30.3885511,1.56057861 L30.4142136,1.58578644 L46.4142136,17.5857864 L46.445234,17.6174983 C46.4630513,17.6361189 46.4805123,17.6550833 46.4976061,17.6743804 L46.4142136,17.5857864 C46.4618847,17.6334576 46.5069007,17.6832874 46.5491666,17.7350462 C46.5723595,17.7633198 46.5949537,17.7925541 46.6167406,17.8224148 C46.6263063,17.8357738 46.6356473,17.8489344 46.6448221,17.8621978 C46.737667,17.9958418 46.8145259,18.1415568 46.8727303,18.2964029 C46.8774281,18.3104353 46.8826414,18.3247978 46.8876903,18.3392203 C46.9022985,18.3793241 46.9150769,18.4199677 46.9265704,18.4611473 C46.92991,18.4749687 46.9334942,18.4883239 46.9369407,18.5017196 C46.9468206,18.538279 46.9553251,18.5758759 46.9627545,18.6138577 C46.9660398,18.6324998 46.9693245,18.6505272 46.9723627,18.6686102 C46.9788622,18.705655 46.984106,18.7437037 46.9882643,18.782078 C46.9896305,18.7960525 46.9910189,18.8100875 46.9922594,18.8241472 L46.9935797,18.838573 C46.9939033,18.8426245 46.9942149,18.8466794 46.9945143,18.8507377 L47,19 L47,23.05 L47.1006398,23.0494583 C49.2059817,23.0761082 51.1785572,24.0620828 52.4326316,25.6755353 L52.5920837,25.8895168 C52.9299589,26.333906 53.4548999,26.5963765 54,26.6 L54,26.6 L54.1,26.6 C54.2280741,26.6 54.355852,26.6123022 54.4815735,26.636737 C56.4410783,27.0175801 58.1396255,28.2283689 59.1387152,29.956524 C60.1378049,31.6846792 60.3395172,33.7608257 59.6917776,35.6489819 L59.6917776,35.6489819 L59.5709402,35.9680912 C59.3202279,36.7039316 59.3452991,37.5087179 59.6461538,38.2307692 L59.634,38.198 L59.644164,38.2179743 L59.693,38.335 C59.7780743,38.4707225 59.8460158,38.6136243 59.8967247,38.7654601 L59.8967247,38.7654601 L59.9415953,38.9202002 C60.399709,40.7740389 60.0690643,42.7348342 59.0283526,44.3359292 C58.4970649,45.1532949 57.8049795,45.8396003 57.0008515,46.3607079 L57,61.3 C57,62.8433294 55.3375725,63.7859113 54.02539,63.0468515 L53.8954138,62.9673 L47,58.399 L40.1045862,62.9673 C38.8179897,63.8196702 37.1140591,62.954369 37.0054669,61.4522904 L37,61.3 L37,59 L5,59 C3.9456382,59 3.08183488,58.1841222 3.00548574,57.1492623 L3,57 L3,3 C3,1.9456382 3.81587779,1.08183488 4.85073766,1.00548574 L5,1 L29,1 L29,1 Z M41.0011071,47.6791756 L41,57.575 L45.8954138,54.3327 C46.5171712,53.9207857 47.3117378,53.8913633 47.9581822,54.2444327 L48.1045862,54.3327 L53,57.576 L53.0002272,47.9704021 C52.8161559,48.1054638 52.6454942,48.2600756 52.4915017,48.4324499 L52.4915017,48.4324499 L52.3729132,48.5543514 L52.2453561,48.6649726 L52.133,48.745 L51.9672152,48.9265808 C50.716054,50.2316676 48.9949175,50.9994402 47.1733089,51.0485827 L47.1733089,51.0485827 L46.8993602,51.0505417 C44.7024817,51.0227331 42.6501655,49.9503668 41.3727775,48.1628186 L41.3727775,48.1628186 L41.1928274,47.8844499 C41.1367554,47.808163 41.0722972,47.7393989 41.0011071,47.6791756 Z M27,5 L7,5 L7,55 L37,55 L37.000426,46.2007895 C36.3221446,45.7272156 35.7279431,45.1310023 35.2523338,44.4344016 L35.0993999,44.200375 C34.0102744,42.4577743 33.7545383,40.3204078 34.4018007,38.370048 C34.426821,38.2946557 34.4563108,38.2208209 34.4901132,38.1489362 L34.4901132,38.1489362 L34.5685348,37.964746 C34.8299404,37.2815963 34.8037999,36.5181554 34.4901132,35.8510638 L34.507,35.891 L34.4420664,35.7644413 C34.3585599,35.5850942 34.2957914,35.3967887 34.2549883,35.2032071 L34.2549883,35.2032071 L34.231,35.07 L34.1957466,34.9220641 C33.8217314,33.2351622 34.0945271,31.4685746 34.9599685,29.973069 L34.9599685,29.973069 L35.1188344,29.7120417 C36.1638086,28.0775948 37.8485517,26.9585469 39.8460931,26.6161826 C40.4766062,26.5354839 41.0527023,26.2176378 41.4572042,25.7272938 L41.4572042,25.7272938 L41.5766054,25.595014 C41.6597178,25.5108012 41.7496472,25.4346328 41.8451562,25.3670924 L41.8451562,25.3670924 L41.866,25.353 L42.0327848,25.1734192 C42.330192,24.8631937 42.6541545,24.5833283 42.9997094,24.3362585 L43,21 L29,21 C27.9456382,21 27.0818349,20.1841222 27.0054857,19.1492623 L27,19 L27,5 Z M47.0500109,27.0491379 C46.1266851,27.0374502 45.2529854,27.4661768 44.6972673,28.2036349 L44.6972673,28.2036349 L44.5890443,28.3352122 C44.4757923,28.461535 44.3478523,28.571895 44.2088174,28.6645008 L44.2088174,28.6645008 L44.165,28.69 L43.9464751,28.904755 C43.0311155,29.7543177 41.8951534,30.3229373 40.7131873,30.5296901 L40.7131873,30.5296901 L40.4396887,30.5709418 C39.6361955,30.7094226 38.9281151,31.1797471 38.488923,31.8666885 C38.049731,32.5536299 37.9200043,33.3937216 38.1315254,34.1811459 L38.1315254,34.1811459 L38.139,34.216 L38.2308939,34.4218786 C38.9187233,36.071484 38.9187233,37.928516 38.2308939,39.5781214 L38.2308939,39.5781214 L38.18,39.692 L38.1421451,39.8204012 C37.9612179,40.5230148 38.0504075,41.2684353 38.3919899,41.9085305 L38.3919899,41.9085305 L38.4913932,42.0803793 C38.9491415,42.8127767 39.7095149,43.3030339 40.5655462,43.4177071 L40.5655462,43.4177071 L40.472,43.401 L40.5087559,43.4029592 C42.1864799,43.4943255 43.7113693,44.3899427 44.6097317,45.7983076 L44.6097317,45.7983076 L44.654,45.872 L44.7471553,45.9935206 C45.2460546,46.6000705 45.9703364,46.9785186 46.7531601,47.0416884 L46.7531601,47.0416884 L46.9499891,47.0508621 C47.8733149,47.0625498 48.7470146,46.6338232 49.3027327,45.8963651 L49.3027327,45.8963651 L49.4109557,45.7647878 C49.5242077,45.638465 49.6521477,45.528105 49.7911826,45.4354992 L49.7911826,45.4354992 L49.884,45.378 L49.943907,45.3201739 C50.9249262,44.3946926 52.1428676,43.7580595 53.4476617,43.4868783 L53.4476617,43.4868783 L53.7502415,43.4308202 C53.8281601,43.4169806 53.9051697,43.400018 53.9811111,43.3800376 C54.1650593,43.2693901 54.3690564,43.1885642 54.5860047,43.1429005 C55.0242341,42.9166399 55.4003648,42.5778424 55.6745781,42.1559758 C56.0026286,41.6512828 56.1628099,41.061552 56.1411693,40.4695261 L56.1411693,40.4695261 L56.131,40.335 L56.0765312,40.222796 C56.0177566,40.0927774 55.972493,39.9553879 55.9425191,39.8124344 L55.9425191,39.8124344 L55.92,39.684 L55.8376068,39.4718708 C55.2541311,37.8758215 55.2541311,36.1241785 55.8376068,34.5281292 L55.8376068,34.5281292 L55.915,34.327 L55.9688568,34.1511092 C56.1462632,33.4801284 56.0770084,32.7673156 55.7737582,32.143034 L55.7737582,32.143034 L55.6757759,31.9585358 C55.2558686,31.2322097 54.5419865,30.7233275 53.7184265,30.563263 L53.757,30.572 L53.86,30.596 L53.7306772,30.5926177 C52.113415,30.5104812 50.6019204,29.753499 49.5371389,28.4698544 L49.5371389,28.4698544 L49.3727775,28.2628186 C48.8359044,27.5115302 47.9733367,27.0608255 47.0500109,27.0491379 Z M47,31 C50.3137085,31 53,33.6862915 53,37 C53,40.3137085 50.3137085,43 47,43 C43.6862915,43 41,40.3137085 41,37 C41,33.6862915 43.6862915,31 47,31 Z M47,35 C45.8954305,35 45,35.8954305 45,37 C45,38.1045695 45.8954305,39 47,39 C48.1045695,39 49,38.1045695 49,37 C49,35.8954305 48.1045695,35 47,35 Z M31,7.83 L31,17 L40.171,17 L31,7.83 Z" id="Combined-Shape" fill="#000000"></path>
    </g>
</svg>