<?xml version="1.0" encoding="UTF-8"?>
<svg width="64px" height="64px" viewBox="0 0 64 64" version="1.1" xmlns="http://www.w3.org/2000/svg" xmlns:xlink="http://www.w3.org/1999/xlink">
    <title>Icon/logout</title>
    <g id="Icon/logout" stroke="none" stroke-width="1" fill="none" fill-rule="evenodd">
        <path d="M35,3 C36.0543618,3 36.9181651,3.81587779 36.9945143,4.85073766 L37,5 L37,21 C37,22.1045695 36.1045695,23 35,23 C33.9456382,23 33.0818349,22.1841222 33.0054857,21.1492623 L33,21 L33,7 L5,7 L5,55 L33,55 L33,41 C33,39.9456382 33.8158778,39.0818349 34.8507377,39.0054857 L35,39 C36.0543618,39 36.9181651,39.8158778 36.9945143,40.8507377 L37,41 L37,57 C37,58.0543618 36.1841222,58.9181651 35.1492623,58.9945143 L35,59 L3,59 C1.9456382,59 1.08183488,58.1841222 1.00548574,57.1492623 L1,57 L1,5 C1,3.9456382 1.81587779,3.08183488 2.85073766,3.00548574 L3,3 L35,3 Z M50.0196739,18.2790907 L50.1623828,18.372334 L50.2918845,18.4732274 L63.3121469,29.4905663 L63.4200876,29.5916848 L63.5529488,29.7387847 L63.6605042,29.8836537 L63.7521963,30.0347989 L63.8195436,30.1684547 L63.8874358,30.3368509 L63.9311844,30.4779635 L63.9505355,30.5561069 C63.9829477,30.6991245 64,30.8475709 64,31 C64,31.1039264 63.9920732,31.2060015 63.9767912,31.3056535 L63.9570247,31.4141744 L63.9002234,31.6260233 L63.8371808,31.7927443 L63.7674057,31.9382278 L63.689356,32.0722889 L63.6075557,32.1911064 L63.5206907,32.2997714 C63.4561701,32.3745067 63.3865762,32.4446774 63.3121469,32.5094337 L50.2918845,43.5267726 C49.4486713,44.2402607 48.1867155,44.1350977 47.4732274,43.2918845 C46.7954137,42.4908319 46.8564326,41.3118642 47.587179,40.5842433 L47.7081155,40.4732274 L56.54,33 L15,33 C13.8954305,33 13,32.1045695 13,31 C13,29.9456382 13.8158778,29.0818349 14.8507377,29.0054857 L15,29 L56.54,29 L47.7081155,21.5267726 C46.907063,20.8489589 46.7721008,19.6761531 47.372334,18.8376172 L47.4732274,18.7081155 C48.1133848,17.9515659 49.1950629,17.7891524 50.0196739,18.2790907 Z" id="Combined-Shape" fill="#000000"></path>
    </g>
</svg>