<?xml version="1.0" encoding="UTF-8"?>
<svg width="64px" height="64px" viewBox="0 0 64 64" version="1.1" xmlns="http://www.w3.org/2000/svg" xmlns:xlink="http://www.w3.org/1999/xlink">
    <title>Icon/Media Content</title>
    <g id="Icon/Media-Content" stroke="none" stroke-width="1" fill="none" fill-rule="evenodd">
        <path d="M61,48 C62.1045695,48 63,48.8954305 63,50 C63,51.0543618 62.1841222,51.9181651 61.1492623,51.9945143 L61,52 L33,52 C31.8954305,52 31,51.1045695 31,50 C31,48.9456382 31.8158778,48.0818349 32.8507377,48.0054857 L33,48 L61,48 Z M61,36 C62.1045695,36 63,36.8954305 63,38 C63,39.0543618 62.1841222,39.9181651 61.1492623,39.9945143 L61,40 L33,40 C31.8954305,40 31,39.1045695 31,38 C31,36.9456382 31.8158778,36.0818349 32.8507377,36.0054857 L33,36 L61,36 Z M61,24 C62.1045695,24 63,24.8954305 63,26 C63,27.0543618 62.1841222,27.9181651 61.1492623,27.9945143 L61,28 L33,28 C31.8954305,28 31,27.1045695 31,26 C31,24.9456382 31.8158778,24.0818349 32.8507377,24.0054857 L33,24 L61,24 Z M61,12 C62.1045695,12 63,12.8954305 63,14 C63,15.0543618 62.1841222,15.9181651 61.1492623,15.9945143 L61,16 L33,16 C31.8954305,16 31,15.1045695 31,14 C31,12.9456382 31.8158778,12.0818349 32.8507377,12.0054857 L33,12 L61,12 Z M23,34 C24.0543618,34 24.9181651,34.8158778 24.9945143,35.8507377 L25,36 L25,56 C25,57.0543618 24.1841222,57.9181651 23.1492623,57.9945143 L23,58 L3,58 C1.9456382,58 1.08183488,57.1841222 1.00548574,56.1492623 L1,56 L1,36 C1,34.9456382 1.81587779,34.0818349 2.85073766,34.0054857 L3,34 L23,34 Z M21,38 L5,38 L5,54 L21,54 L21,38 Z M23,6 C24.0543618,6 24.9181651,6.81587779 24.9945143,7.85073766 L25,8 L25,28 C25,29.0543618 24.1841222,29.9181651 23.1492623,29.9945143 L23,30 L3,30 C1.9456382,30 1.08183488,29.1841222 1.00548574,28.1492623 L1,28 L1,8 C1,6.9456382 1.81587779,6.08183488 2.85073766,6.00548574 L3,6 L23,6 Z M21,10 L5,10 L5,26 L21,26 L21,10 Z" id="Combined-Shape" fill="#000000"></path>
    </g>
</svg>