<?xml version="1.0" encoding="UTF-8"?>
<svg width="64px" height="64px" viewBox="0 0 64 64" version="1.1" xmlns="http://www.w3.org/2000/svg" xmlns:xlink="http://www.w3.org/1999/xlink">
    <title>Icon/more</title>
    <g id="Icon/more" stroke="none" stroke-width="1" fill="none" fill-rule="evenodd">
        <path d="M8,24 C3.581722,24 0,27.581722 0,32 C0,36.418278 3.581722,40 8,40 C12.418278,40 16,36.418278 16,32 C16,27.581722 12.418278,24 8,24 Z M8,28 C10.209139,28 12,29.790861 12,32 C12,34.209139 10.209139,36 8,36 C5.790861,36 4,34.209139 4,32 C4,29.790861 5.790861,28 8,28 Z M56,24 C51.581722,24 48,27.581722 48,32 C48,36.418278 51.581722,40 56,40 C60.418278,40 64,36.418278 64,32 C64,27.581722 60.418278,24 56,24 Z M56,28 C58.209139,28 60,29.790861 60,32 C60,34.209139 58.209139,36 56,36 C53.790861,36 52,34.209139 52,32 C52,29.790861 53.790861,28 56,28 Z M32,24 C27.581722,24 24,27.581722 24,32 C24,36.418278 27.581722,40 32,40 C36.418278,40 40,36.418278 40,32 C40,27.581722 36.418278,24 32,24 Z M32,28 C34.209139,28 36,29.790861 36,32 C36,34.209139 34.209139,36 32,36 C29.790861,36 28,34.209139 28,32 C28,29.790861 29.790861,28 32,28 Z" id="More" fill="#000000"></path>
    </g>
</svg>