<?xml version="1.0" encoding="UTF-8"?>
<svg width="64px" height="64px" viewBox="0 0 64 64" version="1.1" xmlns="http://www.w3.org/2000/svg" xmlns:xlink="http://www.w3.org/1999/xlink">
    <title>Icon/move-to-bottom</title>
    <g id="Icon/move-to-bottom" stroke="none" stroke-width="1" fill="none" fill-rule="evenodd">
        <path d="M32.6854168,51.6034294 L32.4977221,51.6610788 L32.3710924,51.6889758 L32.2313458,51.7100264 L32.0720214,51.721994 L32,51.7232704 L31.903578,51.7209981 L31.7291784,51.705079 L31.6289203,51.6889803 L31.5019872,51.6610778 L31.3849387,51.6273849 L31.2725357,51.5876799 L31.1140865,51.5178625 L31.0629284,51.4921761 L30.9310492,51.4155182 L30.820757,51.3407441 L30.7229401,51.2651427 L30.619067,51.1727103 L30.5191926,51.0708027 L19.3191926,38.7940732 C18.5767425,37.9802464 18.6378477,36.7215789 19.4556751,35.9827605 C20.2304588,35.2828274 21.4064529,35.3005629 22.1593784,35.9963409 L22.2808074,36.1185753 L30,44.5798574 L30,1.99021663 C30,0.891050337 30.8954305,0 32,0 C33.0543618,0 33.9181651,0.811886774 33.9945143,1.84168443 L34,1.99021663 L34,44.5798574 L41.7191926,36.1185753 C42.4616428,35.3047485 43.7264976,35.2439422 44.5443249,35.9827605 C45.3191087,36.6826937 45.4147292,37.8491951 44.7913654,38.6620181 L44.6808074,38.7940732 L33.4808074,51.0708027 L33.4127163,51.1419162 L33.309749,51.2372043 L33.2461001,51.2902241 L33.1035856,51.3936344 L33.0340349,51.4369733 C32.985587,51.4666261 32.9362534,51.4934971 32.8860883,51.5181465 C32.8205071,51.5503709 32.7535049,51.5787986 32.6854168,51.6034294 Z M60,60.0195667 C61.1045695,60.0195667 62,60.9106171 62,62.0097834 C62,63.0589876 61.1841222,63.9185654 60.1492623,63.9945411 L60,64 L4,64 C2.8954305,64 2,63.1089497 2,62.0097834 C2,60.9605792 2.81587779,60.1010013 3.85073766,60.0250256 L4,60.0195667 L60,60.0195667 Z" id="Combined-Shape" fill="#000000"></path>
    </g>
</svg>