<?xml version="1.0" encoding="UTF-8"?>
<svg width="64px" height="64px" viewBox="0 0 64 64" version="1.1" xmlns="http://www.w3.org/2000/svg" xmlns:xlink="http://www.w3.org/1999/xlink">
    <title>Icon/move to</title>
    <g id="Icon/move-to" stroke="none" stroke-width="1" fill="none" fill-rule="evenodd">
        <path d="M32,0 C49.673112,0 64,14.326888 64,32 C64,49.673112 49.673112,64 32,64 C14.326888,64 0,49.673112 0,32 C0,14.326888 14.326888,0 32,0 Z M32,4 C16.536027,4 4,16.536027 4,32 C4,47.463973 16.536027,60 32,60 C47.463973,60 60,47.463973 60,32 C60,16.536027 47.463973,4 32,4 Z M43.3020504,20.4588383 L43.4291848,20.5757584 L51.3115867,28.4680201 C51.7200537,28.8165995 51.9864832,29.3267236 52.0119892,29.8995068 C52.0121522,29.9128009 52.0126738,29.925799 52.0130694,29.9388002 C52.0137833,29.9556802 52.014,29.9728148 52.014,29.99 L52.0137037,30.034531 C52.0060423,30.4809307 51.8498223,30.9252459 51.5450687,31.2869716 L51.4283019,31.4141252 L43.4283019,39.4151252 C42.6473022,40.1962226 41.3809722,40.1963017 40.5998748,39.4153019 C39.8598878,38.6754074 39.8208701,37.4999257 40.4828733,36.7140969 L40.5996981,36.5868748 L45.195,31.989 L22,31.99 C19.790861,31.99 18,33.780861 18,35.9893337 C18.0007136,38.1315903 19.6845789,39.8803508 21.8010208,39.9850403 L22.0006663,39.99 C23.1052358,39.9903681 24.0003679,40.8860969 24,41.9906663 C23.9996319,43.0952358 23.1039031,43.9903679 21.9993337,43.99 C17.5820335,43.9885282 14.0014718,40.4079665 14,35.99 C14,31.6550857 17.4478378,28.1254571 21.7508207,27.9938068 L22,27.99 L45.179,27.989 L40.5988152,23.4022416 C39.8593829,22.6617927 39.8212463,21.486282 40.4838383,20.7009496 L40.6007584,20.5738152 C41.3412073,19.8343829 42.516718,19.7962463 43.3020504,20.4588383 Z" id="Combined-Shape" fill="#000000"></path>
    </g>
</svg>