<?xml version="1.0" encoding="UTF-8"?>
<svg width="64px" height="64px" viewBox="0 0 64 64" version="1.1" xmlns="http://www.w3.org/2000/svg" xmlns:xlink="http://www.w3.org/1999/xlink">
    <title>Icon/news</title>
    <g id="Icon/news" stroke="none" stroke-width="1" fill="none" fill-rule="evenodd">
        <path d="M54,2 C55.1045695,2 56,2.8954305 56,4 L56,4 L56,6 L62,6 C63.0543618,6 63.9181651,6.81587779 63.9945143,7.85073766 L64,8 L64,52 C64,53.0543618 63.1841222,53.9181651 62.1492623,53.9945143 L62,54 L40,54 C36.7616031,54 34.1224282,56.5655749 34.0041385,59.7750617 L34,60 C34,61.3219716 33.01697,61.9885899 32.0255633,61.9998548 C32.0168361,61.9999479 32.0084241,62 32,62 L31.9754391,61.9998659 C31.0287721,61.9895313 30.0894433,61.3816642 30.0060056,60.1762648 L30,60 L29.9958615,59.7750617 C29.8803227,56.6402141 27.3597859,54.1196773 24.2249383,54.0041385 L24,54 L2,54 C0.945638205,54 0.0818348781,53.1841222 0.00548573643,52.1492623 L0,52 L0,8 C0,6.9456382 0.815877791,6.08183488 1.85073766,6.00548574 L2,6 L24,6 C27.2712911,6 30.175708,7.57077573 32.000156,9.99923272 C33.7720857,7.64026572 36.5633741,6.09059738 39.7200952,6.0038418 L40,6 L40,4 C40,2.8954305 40.8954305,2 42,2 L42,2 Z M56,26 C56,27.5973908 54.2197091,28.5501736 52.8905996,27.6641006 L52.8905996,27.6641006 L48,24.404 L43.1094004,27.6641006 C41.8218256,28.5224838 40.1108276,27.6551439 40.0051476,26.1478304 L40.0051476,26.1478304 L40,26 L40,10 C36.7616031,10 34.1224282,12.5655749 34.0041385,15.7750617 L34,16 L34.0002399,51.9990875 C35.6020231,50.7960163 37.5768312,50.0627447 39.7200952,50.0038418 L40,50 L60,50 L60,10 L56,10 Z M24,10 L4,10 L4,50 L24,50 C26.1217719,50 28.0892046,50.6608048 29.7077237,51.78784 L29.9896832,51.9915288 L30,51.999 L30,16 C30,12.8369146 27.5523666,10.2455046 24.447787,10.0164572 L24.2249383,10.0041385 L24,10 Z M52,6 L44,6 L44,22.262 L46.8905996,20.3358994 C47.5144128,19.9200239 48.3136103,19.8903186 48.9624784,20.2467832 L48.9624784,20.2467832 L49.1094004,20.3358994 L52,22.262 L52,6 Z" id="Combined-Shape" fill="#000000"></path>
    </g>
</svg>