<?xml version="1.0" encoding="UTF-8"?>
<svg width="64px" height="64px" viewBox="0 0 64 64" version="1.1" xmlns="http://www.w3.org/2000/svg" xmlns:xlink="http://www.w3.org/1999/xlink">
    <title>Icon/notification</title>
    <g id="Icon/notification" stroke="none" stroke-width="1" fill="none" fill-rule="evenodd">
        <path d="M57.994721,7.85009175 L58,8 L58.0007658,20.2540392 C60.0526252,20.7841247 61.8410888,22.1170625 62.9282033,24 C64.3572657,26.4752086 64.3572657,29.5247914 62.9282033,32 C61.8410888,33.8829375 60.0526252,35.2158753 58.0007658,35.7459608 L58,48 C58,49.6456554 56.1233658,50.587076 54.8042351,49.6031676 C46.64646,43.5184758 36.782752,40.1632644 26.6224198,40.0056505 L26,40 L22.014,39.9995073 L22.0152316,40.0594231 L22.028777,40.6363423 L22.0476181,41.1707389 L22.0723919,41.669966 L22.1037353,42.1413765 L22.1422853,42.5923234 L22.1886788,43.0301599 L22.2435528,43.4622388 L22.3075444,43.8959132 C22.3190048,43.9687337 22.3308716,44.0419271 22.3431582,44.1156465 C23.1289526,48.8304127 25.5153762,52.0520845 30.7427814,54.1430466 C31.7683484,54.5532734 32.2671802,55.7172143 31.8569534,56.7427814 C31.4467266,57.7683484 30.2827857,58.2671802 29.2572186,57.8569534 C22.6717583,55.2227693 19.4039028,50.8111644 18.3975825,44.7732424 L18.3559592,44.5168042 L18.2812845,44.0138631 L18.2173942,43.5173981 L18.1635144,43.0192841 L18.1188713,42.5113961 L18.0826912,41.9856089 L18.0542003,41.4337975 L18.0326247,40.8478368 L18.013,39.9995073 L8,40 C3.66508574,40 0.135457134,36.5521622 0.00380682464,32.2491793 L0,32 L0,24 C0,19.6650857 3.44783777,16.1354571 7.75082067,16.0038068 L8,16 L20,16 L20,16 L20.017,16.0005073 L25.939697,16.0009093 C36.0909353,15.6946953 45.9356456,12.4786046 54.3050602,6.74222648 L54.848788,6.36454568 C56.1324538,5.46096093 57.8863557,6.32216609 57.994721,7.85009175 Z M54,11.699 L53.7254933,11.8674857 C45.5757559,16.770048 36.3059316,19.5654664 26.7195589,19.9738512 L26,20 L22,19.9995073 L22,35.9995073 L26.0052887,36.000007 C35.5415659,36.0252242 44.8564829,38.6514857 52.9642814,43.5502052 L53.5279708,43.8956593 L54,44.192 L54.0000901,34.0191858 C54.0000301,34.0127976 54,34.0064023 54,34 L54,33.9775073 L54.0001559,22.0252355 C54.0000521,22.0168361 54,22.0084241 54,22 L54,21.9745073 L54,11.699 Z M18,19.9995073 L8,20 C5.85780461,20 4.10892112,21.6839685 4.00489531,23.8003597 L4,24 L4,32 C4,34.1421954 5.68396847,35.8910789 7.80035966,35.9951047 L8,36 L18,35.9995073 L18,19.9995073 Z M58.0014988,24.5367641 L58.0014988,31.4632359 C58.5989263,31.1179667 59.1071346,30.6182852 59.4641017,30 C60.1786329,28.7623957 60.1786329,27.2376043 59.4641017,26 C59.1071346,25.3817148 58.5989263,24.8820333 58.0014988,24.5367641 Z" id="Combined-Shape" fill="#000000"></path>
    </g>
</svg>