<?xml version="1.0" encoding="UTF-8"?>
<svg width="64px" height="64px" viewBox="0 0 64 64" version="1.1" xmlns="http://www.w3.org/2000/svg" xmlns:xlink="http://www.w3.org/1999/xlink">
    <title>Icon/Organization</title>
    <g id="Icon/Organization" stroke="none" stroke-width="1" fill="none" fill-rule="evenodd">
        <path d="M23,20 C25.4188915,20 27.4366008,21.7176654 27.8999437,23.999812 L36.1000008,24.0000852 C36.5493221,21.7863647 38.4611826,20.1037188 40.7831104,20.0046195 L41,20 L59,20 C61.6887547,20 63.8818181,22.1223067 63.9953805,24.7831104 L64,25 L64,39 C64,41.6887547 61.8776933,43.8818181 59.2168896,43.9953805 L59,44 L58,44 L58,55 C58,57.6887547 55.8776933,59.8818181 53.2168896,59.9953805 L53,60 L47,60 C44.3112453,60 42.1181819,57.8776933 42.0046195,55.2168896 L42,55 L42.0011864,47.8997409 C41.7585781,47.9490493 41.5095877,47.9807908 41.2556009,47.9935798 L41,48 L40,48 L40,59 C40,61.6140671 37.9939616,63.7595988 35.4373428,63.9811372 L35.2168896,63.9953805 L35,64 L29,64 C26.3112453,64 24.1181819,61.8776933 24.0046195,59.2168896 L24,59 L24,48 L23,48 C22.6575643,48 22.3231687,47.9655758 22.0000852,47.8999992 L22,55 C22,57.6887547 19.8776933,59.8818181 17.2168896,59.9953805 L17,60 L11,60 C8.3112453,60 6.11818189,57.8776933 6.00461951,55.2168896 L6,55 L6,44 L5,44 C2.3112453,44 0.118181885,41.8776933 0.00461951385,39.2168896 L0,39 L0,25 C0,22.3112453 2.12230671,20.1181819 4.78311038,20.0046195 L5,20 L23,20 Z M41,28 L23,28 C22.4871642,28 22.0644928,28.3860402 22.0067277,28.8833789 L22,29 L22,43 C22,43.5128358 22.3860402,43.9355072 22.8833789,43.9932723 L23,44 L26,44 C27.0543618,44 27.9181651,44.8158778 27.9945143,45.8507377 L28,46 L28,59 C28,59.5128358 28.3860402,59.9355072 28.8833789,59.9932723 L29,60 L35,60 C35.5128358,60 35.9355072,59.6139598 35.9932723,59.1166211 L36,59 L36,46 C36,44.9456382 36.8158778,44.0818349 37.8507377,44.0054857 L38,44 L41,44 C41.5128358,44 41.9355072,43.6139598 41.9932723,43.1166211 L42,43 L42,29 C42,28.4477153 41.5522847,28 41,28 Z M59,24 L41,24 L41.2168896,24.0046195 C43.8037821,24.1150274 45.8816786,26.191013 45.9951212,28.7771185 L46,29 L46,55 C46,55.5128358 46.3860402,55.9355072 46.8833789,55.9932723 L47,56 L53,56 C53.5128358,56 53.9355072,55.6139598 53.9932723,55.1166211 L54,55 L54,42 C54,40.9456382 54.8158778,40.0818349 55.8507377,40.0054857 L56,40 L59,40 C59.5128358,40 59.9355072,39.6139598 59.9932723,39.1166211 L60,39 L60,25 C60,24.4871642 59.6139598,24.0644928 59.1166211,24.0067277 L59,24 Z M18,29 C18,26.3112453 20.1223067,24.1181819 22.7831104,24.0046195 L23,24 L5,24 C4.48716416,24 4.06449284,24.3860402 4.00672773,24.8833789 L4,25 L4,39 C4,39.5128358 4.38604019,39.9355072 4.88337887,39.9932723 L5,40 L8,40 C9.0543618,40 9.91816512,40.8158778 9.99451426,41.8507377 L10,42 L10,55 C10,55.5128358 10.3860402,55.9355072 10.8833789,55.9932723 L11,56 L17,56 C17.5128358,56 17.9355072,55.6139598 17.9932723,55.1166211 L18,55 L18,29 Z M32,6 C36.418278,6 40,9.581722 40,14 C40,18.418278 36.418278,22 32,22 C27.581722,22 24,18.418278 24,14 C24,9.581722 27.581722,6 32,6 Z M50,2 C54.418278,2 58,5.581722 58,10 C58,14.418278 54.418278,18 50,18 C45.581722,18 42,14.418278 42,10 C42,5.581722 45.581722,2 50,2 Z M32,10 C29.790861,10 28,11.790861 28,14 C28,16.209139 29.790861,18 32,18 C34.209139,18 36,16.209139 36,14 C36,11.790861 34.209139,10 32,10 Z M14,2 C18.418278,2 22,5.581722 22,10 C22,14.418278 18.418278,18 14,18 C9.581722,18 6,14.418278 6,10 C6,5.581722 9.581722,2 14,2 Z M50,6 C47.790861,6 46,7.790861 46,10 C46,12.209139 47.790861,14 50,14 C52.209139,14 54,12.209139 54,10 C54,7.790861 52.209139,6 50,6 Z M14,6 C11.790861,6 10,7.790861 10,10 C10,12.209139 11.790861,14 14,14 C16.209139,14 18,12.209139 18,10 C18,7.790861 16.209139,6 14,6 Z" id="Combined-Shape" fill="#202020" fill-rule="nonzero"></path>
    </g>
</svg>