<?xml version="1.0" encoding="UTF-8"?>
<svg width="64px" height="64px" viewBox="0 0 64 64" version="1.1" xmlns="http://www.w3.org/2000/svg" xmlns:xlink="http://www.w3.org/1999/xlink">
    <title>Icon/presets</title>
    <g id="Icon/presets" stroke="none" stroke-width="1" fill="none" fill-rule="evenodd">
        <path d="M44,54 C45.1045695,54 46,54.8954305 46,56 C46,57.0543618 45.1841222,57.9181651 44.1492623,57.9945143 L44,58 L2,58 C0.8954305,58 0,57.1045695 0,56 C0,54.9456382 0.815877791,54.0818349 1.85073766,54.0054857 L2,54 L44,54 Z M43,19 C50.1797017,19 56,24.8202983 56,32 C56,34.8679018 55.0713309,37.5189013 53.498305,39.6686863 L63.4142136,49.5857864 C64.1952621,50.366835 64.1952621,51.633165 63.4142136,52.4142136 C62.6742728,53.1541543 61.4987886,53.1930986 60.7130012,52.5310463 L60.5857864,52.4142136 L50.6686863,42.498305 C48.5189013,44.0713309 45.8679018,45 43,45 C35.8202983,45 30,39.1797017 30,32 C30,24.8202983 35.8202983,19 43,19 Z M24,38 C25.1045695,38 26,38.8954305 26,40 C26,41.0543618 25.1841222,41.9181651 24.1492623,41.9945143 L24,42 L2,42 C0.8954305,42 0,41.1045695 0,40 C0,38.9456382 0.815877791,38.0818349 1.85073766,38.0054857 L2,38 L24,38 Z M43,23 C38.0294373,23 34,27.0294373 34,32 C34,36.9705627 38.0294373,41 43,41 C47.9705627,41 52,36.9705627 52,32 C52,27.0294373 47.9705627,23 43,23 Z M24,22.02 C25.1045695,22.02 26,22.9154305 26,24.02 C26,25.0743618 25.1841222,25.9381651 24.1492623,26.0145143 L24,26.02 L2,26.02 C0.8954305,26.02 0,25.1245695 0,24.02 C0,22.9656382 0.815877791,22.1018349 1.85073766,22.0254857 L2,22.02 L24,22.02 Z M44,6 C45.1045695,6 46,6.8954305 46,8 C46,9.0543618 45.1841222,9.91816512 44.1492623,9.99451426 L44,10 L2,10 C0.8954305,10 0,9.1045695 0,8 C0,6.9456382 0.815877791,6.08183488 1.85073766,6.00548574 L2,6 L44,6 Z" id="Combined-Shape" fill="#000000"></path>
    </g>
</svg>