<?xml version="1.0" encoding="UTF-8"?>
<svg width="64px" height="64px" viewBox="0 0 64 64" version="1.1" xmlns="http://www.w3.org/2000/svg" xmlns:xlink="http://www.w3.org/1999/xlink">
    <title>Icon/print</title>
    <g id="Icon/print" stroke="none" stroke-width="1" fill="none" fill-rule="evenodd">
        <path d="M50,2 C51.0543618,2 51.9181651,2.81587779 51.9945143,3.85073766 L52,4 L52,18 L62,18 C63.0543618,18 63.9181651,18.8158778 63.9945143,19.8507377 L64,20 L64,46 C64,47.0543618 63.1841222,47.9181651 62.1492623,47.9945143 L62,48 L52,48 L52,60 C52,61.0543618 51.1841222,61.9181651 50.1492623,61.9945143 L50,62 L14,62 C12.9456382,62 12.0818349,61.1841222 12.0054857,60.1492623 L12,60 L12,48 L2,48 C0.945638205,48 0.0818348781,47.1841222 0.00548573643,46.1492623 L0,46 L0,20 C0,18.9456382 0.815877791,18.0818349 1.85073766,18.0054857 L2,18 L12,18 L12,4 C12,2.9456382 12.8158778,2.08183488 13.8507377,2.00548574 L14,2 L50,2 Z M48,38 L16,38 L16,58 L48,58 L48,38 Z M42,50 C43.1045695,50 44,50.8954305 44,52 C44,53.0543618 43.1841222,53.9181651 42.1492623,53.9945143 L42,54 L22,54 C20.8954305,54 20,53.1045695 20,52 C20,50.9456382 20.8158778,50.0818349 21.8507377,50.0054857 L22,50 L42,50 Z M42,42 C43.1045695,42 44,42.8954305 44,44 C44,45.0543618 43.1841222,45.9181651 42.1492623,45.9945143 L42,46 L22,46 C20.8954305,46 20,45.1045695 20,44 C20,42.9456382 20.8158778,42.0818349 21.8507377,42.0054857 L22,42 L42,42 Z M60,22 L4,22 L4,44 L12,44 L12,36 C12,34.9456382 12.8158778,34.0818349 13.8507377,34.0054857 L14,34 L50,34 C51.0543618,34 51.9181651,34.8158778 51.9945143,35.8507377 L52,36 L52,44 L60,44 L60,22 Z M10,24 C12.209139,24 14,25.790861 14,28 C14,30.209139 12.209139,32 10,32 C7.790861,32 6,30.209139 6,28 C6,25.790861 7.790861,24 10,24 Z M54,26 C55.1045695,26 56,26.8954305 56,28 C56,29.0543618 55.1841222,29.9181651 54.1492623,29.9945143 L54,30 L50,30 C48.8954305,30 48,29.1045695 48,28 C48,26.9456382 48.8158778,26.0818349 49.8507377,26.0054857 L50,26 L54,26 Z M48,6 L16,6 L16,18 L48,18 L48,6 Z" id="Combined-Shape" fill="#000000"></path>
    </g>
</svg>