<?xml version="1.0" encoding="UTF-8"?>
<svg width="64px" height="64px" viewBox="0 0 64 64" version="1.1" xmlns="http://www.w3.org/2000/svg" xmlns:xlink="http://www.w3.org/1999/xlink">
    <title>Icon/recuringcost</title>
    <g id="Icon/recuringcost" stroke="none" stroke-width="1" fill="none" fill-rule="evenodd">
        <path d="M35.8136,5.1101 C46.7676,8.2831 54.4766,17.6641 55.8256,28.5721 L60.3816,21.9071 C61.0056,20.9961 62.2506,20.7621 63.1626,21.3851 C64.0286,21.9781 64.2826,23.1311 63.7716,24.0261 L63.6846,24.1651 L55.5166,36.1121 L55.5076,36.1251 C55.4496,36.2091 55.3846,36.2871 55.3156,36.3611 C55.1896,36.4931 55.0536,36.6031 54.9086,36.6911 C54.8856,36.7031 54.8646,36.7161 54.8416,36.7291 C54.8266,36.7381 54.8106,36.7471 54.7936,36.7551 L54.7096,36.7971 L54.7096,36.7971 C54.6906,36.8061 54.6726,36.8141 54.6546,36.8211 C54.6256,36.8341 54.5956,36.8461 54.5656,36.8571 C54.5506,36.8621 54.5366,36.8681 54.5206,36.8731 C54.4916,36.8831 54.4616,36.8931 54.4326,36.9021 C54.4136,36.9071 54.3926,36.9121 54.3736,36.9181 C54.3366,36.9281 54.3006,36.9361 54.2646,36.9431 C54.2546,36.9441 54.2466,36.9461 54.2366,36.9481 C54.1476,36.9661 54.0566,36.9771 53.9636,36.9821 L53.9376,36.9821 C53.9016,36.9841 53.8686,36.9841 53.8356,36.9841 C53.6896,36.9821 53.5426,36.9631 53.3986,36.9291 C53.3776,36.9231 53.3586,36.9181 53.3386,36.9131 C53.3166,36.9071 53.2926,36.9011 53.2696,36.8941 C53.2456,36.8851 53.2216,36.8771 53.1986,36.8691 C53.1676,36.8591 53.1356,36.8471 53.1046,36.8341 C53.0916,36.8281 53.0806,36.8231 53.0686,36.8181 C53.0376,36.8051 53.0066,36.7911 52.9756,36.7761 L52.9176,36.7441 L52.9176,36.7441 C52.8996,36.7351 52.8816,36.7261 52.8646,36.7161 C52.8376,36.7001 52.8116,36.6841 52.7856,36.6671 C52.7676,36.6561 52.7506,36.6451 52.7346,36.6331 C52.7086,36.6151 52.6836,36.5981 52.6586,36.5781 L52.6316,36.5581 L52.6176,36.5471 C52.5826,36.5191 52.5476,36.4891 52.5146,36.4581 L52.5116,36.4551 L41.6936,26.5081 C40.8806,25.7611 40.8276,24.4961 41.5756,23.6831 C42.2836,22.9121 43.4566,22.8241 44.2686,23.4531 L44.4016,23.5641 L51.9916,30.5441 C51.3836,20.5711 44.5826,11.8151 34.7016,8.9521 C23.4476,5.6921 11.4846,11.0281 6.3916,21.5791 C1.2976,32.1301 4.5606,44.8161 14.1116,51.6001 C23.6646,58.3841 36.7166,57.2851 45.0016,49.0011 C45.7826,48.2201 47.0476,48.2201 47.8296,49.0011 C48.6106,49.7821 48.6106,51.0481 47.8296,51.8291 C38.1666,61.4941 22.9386,62.7751 11.7956,54.8601 C0.6526,46.9461 -3.1534,32.1481 2.7886,19.8391 C8.7306,7.5321 22.6866,1.3071 35.8136,5.1101 Z M29.2839,20.1067 C30.4659,20.1067 31.8089,20.2727 33.3139,20.6037 L33.3139,20.6037 L32.9789,23.2027 C31.7639,22.8287 30.5439,22.6417 29.3179,22.6417 C27.4899,22.6417 26.0829,23.1847 25.0959,24.2697 C24.1099,25.3557 23.5829,26.9037 23.5159,28.9147 L23.5159,28.9147 L29.9199,28.9147 L29.9199,30.9197 L23.4999,30.9197 L23.4999,33.1177 L29.9199,33.1177 L29.9199,35.1067 L23.4999,35.1067 C23.5439,37.1927 24.0679,38.7957 25.0719,39.9197 C26.0739,41.0427 27.4949,41.6037 29.3349,41.6037 C30.6279,41.6037 31.8429,41.4217 32.9789,41.0587 L32.9789,41.0587 L33.3139,43.6257 C31.9759,43.9467 30.6389,44.1067 29.3009,44.1067 C26.5369,44.1067 24.3609,43.3237 22.7719,41.7557 C21.1839,40.1897 20.3569,37.9727 20.2899,35.1067 L20.2899,35.1067 L17.3139,35.1067 L17.3139,33.1177 L20.2899,33.1177 L20.2899,30.9197 L17.3139,30.9197 L17.3139,28.9147 L20.2899,28.9147 C20.4009,26.1117 21.2509,23.9437 22.8389,22.4087 C24.4269,20.8747 26.5759,20.1067 29.2839,20.1067 Z" id="Combined-Shape" fill="#000000"></path>
    </g>
</svg>