<?xml version="1.0" encoding="UTF-8"?>
<svg width="64px" height="64px" viewBox="0 0 64 64" version="1.1" xmlns="http://www.w3.org/2000/svg" xmlns:xlink="http://www.w3.org/1999/xlink">
    <title>Icon/refresh</title>
    <g id="Icon/refresh" stroke="none" stroke-width="1" fill="none" fill-rule="evenodd">
        <path d="M55.7581442,27.4170709 L55.8269739,27.4604631 C55.839613,27.4686447 55.8521579,27.4769667 55.8646062,27.4854273 C55.9342598,27.5318368 56.0010632,27.5836472 56.0648857,27.6401443 C56.0743971,27.6492528 56.0837821,27.6576932 56.093088,27.6662224 C56.11726,27.6878275 56.1410662,27.7108368 56.1643901,27.7345387 C56.181441,27.7521136 56.1987018,27.7702242 56.2156277,27.7886627 C56.2277277,27.8018209 56.2399575,27.815576 56.2520315,27.829538 L56.2607432,27.8395144 C56.2983247,27.8833498 56.3340747,27.9288845 56.3678574,27.976013 L63.6106001,37.8142651 C64.2654634,38.703775 64.0752448,39.9557368 63.1857349,40.6106001 C62.3407005,41.2327203 61.1685532,41.0921539 60.4919877,40.3138985 L60.3893999,40.1857349 L56.7157266,35.1955987 C55.6594322,43.3916118 50.5730524,50.7051439 42.9050836,54.4567361 C33.3100013,59.1511782 21.7923492,57.2312617 14.2388346,49.6782617 C13.4577594,48.8972398 13.4577163,47.6309098 14.2387383,46.8498346 C15.0197602,46.0687594 16.2860902,46.0687163 17.0671654,46.8497383 C23.4122143,53.1943549 33.0871895,54.8071093 41.1471815,50.8637179 C47.9501471,47.5353328 52.3341061,40.86933 52.8655524,33.5174386 L47.3372807,38.4871719 C46.5591669,39.1868601 45.3832707,39.1634554 44.6336726,38.460691 L44.5128281,38.3372807 C43.8131399,37.5591669 43.8365446,36.3832707 44.539309,35.6336726 L44.6627193,35.5128281 L53.4037193,27.6528281 L53.4304243,27.6289657 C53.4574106,27.6055163 53.4850518,27.5827653 53.5133228,27.560745 L53.4037193,27.6528281 C53.4481431,27.6128817 53.4938189,27.5753125 53.5405972,27.5401052 C53.568291,27.5190341 53.5975138,27.4982472 53.6273313,27.4782303 C53.6412868,27.468976 53.6544742,27.4603402 53.6677337,27.4518791 L53.6789374,27.4447309 C53.7626093,27.392236 53.8506537,27.3456788 53.9425548,27.3057228 C53.9592134,27.2981937 53.9761838,27.2910775 53.9932236,27.2842091 C54.02197,27.2729545 54.0513322,27.261935 54.0810425,27.2515848 C54.1059617,27.2425159 54.1305068,27.2344925 54.1551578,27.2269618 C54.1793132,27.2200066 54.2043301,27.2128958 54.2295636,27.2062561 C54.2538026,27.1994261 54.2777888,27.193589 54.3018462,27.1882049 C54.3218349,27.1841877 54.3422814,27.1799396 54.3628546,27.1759994 C54.3949394,27.1694165 54.4269698,27.1641031 54.4590743,27.159575 C54.4701155,27.1583956 54.4812661,27.1569051 54.4924498,27.1555044 L54.530009,27.1508583 C54.5500176,27.1487611 54.5700462,27.1469663 54.5900875,27.1454732 L54.4924498,27.1555044 C54.5585356,27.1472274 54.6242714,27.1422752 54.6894894,27.1405172 C54.7064159,27.140118 54.7234701,27.1399104 54.7405201,27.1399193 C54.7781414,27.1397354 54.8155435,27.1407387 54.8527247,27.1427756 C54.8624168,27.1436521 54.872085,27.1442666 54.881748,27.1449507 C54.9273916,27.1477477 54.9727047,27.152477 55.0176089,27.1587178 C55.0212474,27.1597159 55.0252334,27.1602828 55.0292178,27.1608617 C55.076148,27.1671793 55.1222996,27.1755729 55.1679351,27.1855418 C55.1724454,27.1869783 55.1777708,27.1881576 55.1830918,27.1893586 C55.2297307,27.1995071 55.2749911,27.2114952 55.3196513,27.2250172 C55.3235535,27.2264395 55.3275496,27.2276554 55.3315424,27.2288838 C55.3588718,27.2371191 55.3860155,27.2461706 55.4129142,27.2557867 C55.4375526,27.264591 55.461829,27.2737505 55.4859429,27.2833906 C55.5288825,27.3007885 55.5713584,27.3196245 55.6130714,27.3398807 C55.6664036,27.3654034 55.712723,27.3902808 55.7581442,27.4170709 Z M31.9143538,6.99995969 C38.5466074,6.99120653 44.9090783,9.62509219 49.5945037,14.3190777 C50.3748391,15.1008388 50.3736834,16.3671682 49.5919223,17.1475037 C48.8101612,17.9278391 47.5438318,17.9266834 46.7634963,17.1449223 C42.829722,13.203961 37.4879367,10.9926107 31.9176368,10.9999797 C25.9318002,11.0018855 20.2310268,13.5571296 16.2466058,18.0241726 C13.1672604,21.4765107 11.3390995,25.8173502 10.9811294,30.3565687 L16.7023069,25.4781614 C17.5007707,24.7973001 18.6799624,24.853826 19.4103627,25.5817943 L19.5218386,25.7023069 C20.2026999,26.5007707 20.146174,27.6799624 19.4182057,28.4103627 L19.2976931,28.5218386 L10.3891641,36.1190931 C10.2966097,36.2009913 10.1961956,36.2745884 10.0889753,36.3385592 C10.085018,36.339808 10.0816842,36.3417866 10.0783463,36.3437545 C10.0348029,36.3704953 9.9893782,36.3949313 9.94288052,36.4176391 C9.93764265,36.4192725 9.93331776,36.4213676 9.92898749,36.423446 C9.88618216,36.4448797 9.84147811,36.4643374 9.7958978,36.4821935 C9.78857398,36.4842986 9.78190115,36.4868746 9.77521854,36.489413 C9.733881,36.5058421 9.69117979,36.5204111 9.64779753,36.5335693 C9.63837873,36.5357813 9.6296774,36.5383575 9.62096392,36.5408725 C9.57747382,36.5540474 9.53257634,36.5653402 9.48703803,36.5751134 C9.4793841,36.5761751 9.47270348,36.5775704 9.46601807,36.5789309 C9.41980487,36.5889332 9.37197525,36.5969256 9.32352443,36.603226 C9.3189154,36.6031885 9.31457634,36.6037337 9.31023618,36.6042646 C9.30425825,36.6056474 9.2981597,36.6063722 9.29205156,36.6070701 C8.96781132,36.6441192 8.65283574,36.601436 8.36672013,36.4945968 C8.36375487,36.4924269 8.35975671,36.4909309 8.35576277,36.4894219 C8.31002875,36.4730553 8.26604049,36.4544646 8.22284287,36.434364 C8.21813831,36.4314675 8.21281709,36.4289784 8.20750543,36.4264651 C8.0623182,36.3580351 7.92671445,36.272174 7.8030314,36.1715922 C7.79630826,36.1659088 7.78956618,36.160343 7.78285481,36.1547275 C7.74909941,36.1267728 7.71640427,36.0976039 7.68467969,36.0673813 C7.68073299,36.0631142 7.67652563,36.0590571 7.67233302,36.0549785 L7.61454855,35.9971875 C7.59711028,35.9788494 7.58000998,35.9601725 7.56325908,35.9411657 C7.56106346,35.9376195 7.55833747,35.9344953 7.55561939,35.9313606 C7.50456883,35.8733694 7.46169301,35.8181729 7.42171711,35.7606911 L0.388074841,26.183933 C-0.265793284,25.2936913 -0.0741746547,24.041943 0.816067029,23.3880748 C1.66179663,22.7669001 2.83378597,22.9087772 3.50948076,23.6877888 L3.61192516,23.816067 L7.1455579,28.6282645 C7.81226566,23.7415419 9.91692993,19.1113167 13.2615241,15.361601 C18.004592,10.0440184 24.7908087,7.00224855 31.9143538,6.99995969 Z" id="Combined-Shape" fill="#000000"></path>
    </g>
</svg>