<?xml version="1.0" encoding="UTF-8"?>
<svg width="64px" height="64px" viewBox="0 0 64 64" version="1.1" xmlns="http://www.w3.org/2000/svg" xmlns:xlink="http://www.w3.org/1999/xlink">
    <title>Icon/Release</title>
    <g id="Icon/Release" stroke="none" stroke-width="1" fill="none" fill-rule="evenodd">
        <path d="M38.6177714,16.110053 L38.7527847,16.1723324 L55.1907608,24.7483334 C55.995914,25.1683969 56.2399258,26.1851133 55.7423203,26.9165256 L55.6575616,27.0295122 L51.06,32.605 L55.6602312,38.3656293 C56.2267715,39.0751733 56.0633058,40.1093428 55.3299645,40.6139969 L55.2264462,40.679451 L51,43.128 L51,53.4540298 C51,53.9894775 50.7265815,54.4840005 50.2819982,54.7669592 L50.1764102,54.8284241 L33.2180769,63.8212322 C33.0294581,63.9212546 32.8253966,63.9793043 32.6188529,63.9953814 C32.5795003,63.9983893 32.5399324,64 32.5,64 C32.4496938,64 32.3999661,63.9974437 32.350932,63.99245 C32.320053,63.9897145 32.2889416,63.985712 32.257946,63.9807503 C32.2468638,63.9780901 32.2356655,63.97608 32.2245105,63.9739425 C32.1159167,63.9551172 32.0094695,63.9235868 31.9065526,63.880329 L31.7819231,63.8212322 L14.8235898,54.8284241 C14.3532786,54.5790234 14.0462664,54.1049324 14.004807,53.5767905 L14,53.4540298 L14,43.677 L8.78042306,40.6888401 C7.9818031,40.2315435 7.76159276,39.1889241 8.28093876,38.4495081 L8.35635784,38.3506415 L12.662,33.141 L8.33337923,27.5559462 C7.76798267,26.8264391 7.94553117,25.7630586 8.68607228,25.2636552 L8.8076522,25.1896197 L25.2614248,16.1826039 C25.845679,15.8627753 26.5572734,15.9722743 27.0256163,16.4390254 L27.1221172,16.5444854 L31.885,22.252 L36.908766,16.5162923 C37.3359866,16.0284429 38.024659,15.8708323 38.6177714,16.110053 Z M31,44.767 L26.486309,49.4770126 C26.0256415,49.9575602 25.3149297,50.0861589 24.7205548,49.8098521 L24.6033395,49.7491762 L17.083,45.443 L17.0833333,52.5166965 L31,59.896 L31,44.767 Z M47.916,44.915 L39.5002515,49.7917779 C38.9232414,50.1261184 38.2028722,50.0505908 37.708327,49.6172158 L37.6125383,49.5257849 L34,45.772 L34,59.895 L47.9166667,52.5159199 L47.916,44.915 Z M48.6233859,34.5191665 L34.5623542,41.8870915 L38.9991777,46.4971855 L52.117752,38.8956907 L48.6233859,34.5191665 Z M15.574,34.799 L15.5515683,34.8125161 C15.4322459,34.8788762 15.3075884,34.9272007 15.1807528,34.9581536 L11.9139721,38.9088823 L15.568,41.001 L15.6834724,41.0064828 C16.1774869,41.0518706 16.6041385,41.3320567 16.8525505,41.7353378 L25.0898058,46.4537306 L29.4515731,41.904163 L15.574,34.799 Z M32.3684867,25.4452632 L32.2871536,25.5014552 L32.2011829,25.5529744 L18.837,32.984 L32.0042554,39.7252127 L45.866,32.462 L32.3684867,25.4452632 Z M25.6131651,19.5401437 L11.8503237,27.0735694 L15.0535576,31.2069383 C15.1977845,31.2128479 15.3422543,31.2390603 15.4826712,31.2864636 L29.0973327,23.7162307 L25.6131651,19.5401437 Z M38.4049911,19.3839119 L34.9090293,23.3760329 L48.804419,30.599549 L52.142367,26.5511058 L38.4049911,19.3839119 Z M31.8387097,1.16129032 C32.1114344,1.16331915 32.3741378,1.24844993 32.5899956,1.4167185 L32.6650237,1.48035459 L32.7355989,1.55106135 L37.5355887,6.7768678 C37.9758893,7.25622843 37.9312726,7.99024796 37.4359343,8.41634631 C36.9666665,8.82001842 36.2612224,8.80251211 35.8138907,8.3919653 L35.7418101,8.31990639 L32.8387097,5.15829032 L32.8387097,15.6774194 C32.8387097,16.3187823 32.3909944,16.8387097 31.8387097,16.8387097 C31.3115288,16.8387097 30.8796271,16.3649742 30.8414525,15.7640878 L30.8387097,15.6774194 L30.8387097,5.15829032 L27.9356092,8.31990639 C27.5184823,8.77403752 26.8157825,8.83669137 26.3217984,8.47973002 L26.2414851,8.41634631 C25.7722172,8.01267419 25.7074751,7.33264068 26.0763343,6.85459058 L26.1418307,6.7768678 L30.9418204,1.55106135 C31.1745241,1.29771401 31.4931936,1.16787163 31.8140135,1.16153422 L31.8387097,1.16129032 L31.8387097,1.16129032 Z" id="Combined-Shape" stroke="#333333" fill="#202020" fill-rule="nonzero"></path>
    </g>
</svg>