<?xml version="1.0" encoding="UTF-8"?>
<svg width="64px" height="64px" viewBox="0 0 64 64" version="1.1" xmlns="http://www.w3.org/2000/svg" xmlns:xlink="http://www.w3.org/1999/xlink">
    <title>Icon/resize-horizontal</title>
    <g id="Icon/resize-horizontal" stroke="none" stroke-width="1" fill="none" fill-rule="evenodd">
        <path d="M32,4 C33.0543618,4 33.9181651,4.81587779 33.9945143,5.85073766 L34,6 L34,30 L55.74,30 L50.6712723,25.4948186 C49.8891576,24.7996056 49.7812537,23.6284367 50.3960205,22.8051282 L50.5051814,22.6712723 C51.2003944,21.8891576 52.3715633,21.7812537 53.1948718,22.3960205 L53.3287277,22.5051814 L62.3708236,30.5436809 L62.5042518,30.6818806 L62.6193244,30.8259643 L62.6706224,30.8991311 C62.7251042,30.9822777 62.7737058,31.069488 62.8157369,31.1603035 L62.8880444,31.3382457 L62.9358826,31.4958833 L62.9670643,31.6371418 L62.9871664,31.7727731 L62.9993948,31.9505929 L62.9976433,32.0979513 L62.9831961,32.2597575 L62.9586958,32.4058839 L62.9214103,32.5570062 L62.8740819,32.7004497 C62.8208373,32.8422858 62.7523451,32.976149 62.6703758,33.1003328 L62.603145,33.1960933 L62.5042532,33.3181366 L62.4362964,33.3917826 L62.3708236,33.4563191 L53.3287277,41.4948186 C52.5031621,42.2286547 51.2390174,42.1542932 50.5051814,41.3287277 C49.8099683,40.546613 49.840118,39.3708704 50.5471709,38.6253159 L50.6712723,38.5051814 L55.74,34 L34,34 L34,58 C34,59.1045695 33.1045695,60 32,60 C30.9456382,60 30.0818349,59.1841222 30.0054857,58.1492623 L30,58 L30,34 L8.259,34 L13.3287277,38.5051814 C14.1108424,39.2003944 14.2187463,40.3715633 13.6039795,41.1948718 L13.4948186,41.3287277 C12.7996056,42.1108424 11.6284367,42.2187463 10.8051282,41.6039795 L10.6712723,41.4948186 L1.62917638,33.4563191 L1.49574818,33.3181194 L1.38067558,33.1740357 L1.3293776,33.1008689 C1.27489583,33.0177223 1.22629423,32.930512 1.18426312,32.8396965 L1.11195559,32.6617543 L1.06411738,32.5041167 L1.03293573,32.3628582 L1.01283356,32.2272269 L1.00131659,32.0729709 L1,32 L1.00235666,31.9020487 L1.01680394,31.7402425 L1.04130417,31.5941161 L1.07858972,31.4429938 L1.12591814,31.2995503 C1.17916268,31.1577142 1.24765494,31.023851 1.32962422,30.8996672 L1.39685502,30.8039067 L1.4957468,30.6818634 L1.56370358,30.6082174 L1.62917638,30.5436809 L10.6712723,22.5051814 C11.4968379,21.7713453 12.7609826,21.8457068 13.4948186,22.6712723 C14.1900317,23.453387 14.159882,24.6291296 13.4528291,25.3746841 L13.3287277,25.4948186 L8.259,30 L30,30 L30,6 C30,4.8954305 30.8954305,4 32,4 Z" id="Combined-Shape" fill="#000000"></path>
    </g>
</svg>