<?xml version="1.0" encoding="UTF-8"?>
<svg width="64px" height="64px" viewBox="0 0 64 64" version="1.1" xmlns="http://www.w3.org/2000/svg" xmlns:xlink="http://www.w3.org/1999/xlink">
    <title>Icon/Running Process</title>
    <g id="Icon/Running-Process" stroke="none" stroke-width="1" fill="none" fill-rule="evenodd">
        <g id="Orion_reload" transform="translate(1.999867, 7.999958)">
            <path d="M54.2521649,18.8296 L54.3517336,18.9543271 L58.6107336,23.8143271 C59.2655969,24.703837 59.0753782,25.9557989 58.1858684,26.6106622 C57.340834,27.2327823 56.1686867,27.092216 55.4921211,26.3139605 L55.3895333,26.185797 L54.9111901,25.6844167 C54.6620694,34.8757949 49.3487549,43.3257549 40.9052171,47.4567981 C31.3101348,52.1512403 19.7924827,50.2313238 12.2389681,42.6783238 C11.4578929,41.8973018 11.4578497,40.6309719 12.2388717,39.8498967 C13.0198937,39.0688215 14.2862236,39.0687783 15.0672988,39.8498003 C21.4123478,46.1944169 31.087323,47.8071714 39.1473149,43.8637799 C46.6347192,40.2005298 51.1918842,32.4942904 50.9076435,24.280377 L49.3374142,25.4872339 C48.5593004,26.1869221 47.3834042,26.1635174 46.6338061,25.4607531 L46.5129616,25.3373428 C45.8132734,24.559229 45.8366781,23.3833328 46.5394424,22.6337347 L46.6628527,22.5128902 L51.4038527,18.6528902 C52.2426248,17.8986574 53.5277251,17.9918841 54.2521649,18.8296 Z M29.9144873,2.17473389e-05 C36.5467409,-0.00873141305 42.9092118,2.62515425 47.5946371,7.31913977 C48.3749725,8.10090086 48.3738168,9.36723029 47.5920557,10.1475657 C46.8102947,10.9279011 45.5439652,10.9267454 44.7636298,10.1449843 C40.8298554,6.20402305 35.4880702,3.9926728 29.9177702,4.00004175 C23.9319337,4.00194754 18.2311602,6.5571917 14.2467392,11.0242347 C11.2100841,14.4287115 9.39016251,18.6972253 8.99699802,23.1679597 L9.70244034,22.4782235 C10.5009042,21.7973622 11.6800958,21.853888 12.4104961,22.5818563 L12.521972,22.7023689 C13.2028333,23.5008328 13.1463075,24.6800244 12.4183392,25.4104247 L12.2978266,25.5219006 L7.36282657,30.1409006 C6.52096976,30.8587637 5.26728573,30.752008 4.55575285,29.9314227 L4.45320829,29.802995 L0.388208294,24.183995 C-0.26565983,23.2937533 -0.0740412009,22.042005 0.816200482,21.3881369 C1.66193008,20.7669622 2.83391942,20.9088393 3.50961422,21.6878509 L3.61205861,21.8161291 L4.95143687,23.681491 C5.25068366,18.0472344 7.45166673,12.6331477 11.2616576,8.36166306 C16.0047254,3.04408042 22.7909422,0.0023106098 29.9144873,2.17473389e-05 Z" id="Combined-Shape" fill="#000000" fill-rule="nonzero"></path>
            <path d="M33.475381,11.0000419 L33.475381,14.2933752 C34.6325667,14.7042084 35.707767,15.3205596 36.6502985,16.1133752 L36.6502985,16.1133752 L39.3103645,14.5533752 L42.7427077,20.5333752 L40.0826417,21.9200419 C40.2036782,22.577298 40.2611544,23.2448833 40.2542589,23.9133752 C40.250966,24.5240001 40.1935308,25.1331 40.0826417,25.7333752 L40.0826417,25.7333752 L43.0001335,27.4667085 L39.5677902,33.5333752 L36.7361071,31.8000419 C35.7547118,32.6712387 34.6193269,33.3475205 33.3895724,33.7933752 L33.3895724,33.7933752 L33.3895724,37.0000419 L26.5248859,37.0000419 L26.5248859,33.7933752 C25.3311219,33.3657813 24.2257116,32.7194072 23.2641599,31.8867085 L23.2641599,31.8867085 L20.4324767,33.4467085 L17.0001335,27.4667085 L19.8318166,25.8200419 C19.7213795,25.2197026 19.6639482,24.6106435 19.6601995,24.0000419 C19.6522005,23.3315079 19.709686,22.6638137 19.8318166,22.0067085 L19.8318166,22.0067085 L17.2575592,20.5333752 L20.6899024,14.4667085 L23.435777,16.0267085 C24.3783085,15.233893 25.4535088,14.6175417 26.6106945,14.2067085 L26.6106945,14.2067085 L26.6106945,11.0000419 L33.475381,11.0000419 Z M30.0001335,20.0000419 C27.7909945,20.0000419 26.0001335,21.7909029 26.0001335,24.0000419 C26.0001335,26.2091809 27.7909945,28.0000419 30.0001335,28.0000419 C32.2092725,28.0000419 34.0001335,26.2091809 34.0001335,24.0000419 C34.0001335,21.7909029 32.2092725,20.0000419 30.0001335,20.0000419 Z" id="Combined-Shape" stroke="#000000" stroke-width="3" stroke-linecap="round" stroke-linejoin="round"></path>
        </g>
    </g>
</svg>