<?xml version="1.0" encoding="UTF-8"?>
<svg width="64px" height="64px" viewBox="0 0 64 64" version="1.1" xmlns="http://www.w3.org/2000/svg" xmlns:xlink="http://www.w3.org/1999/xlink">
    <title>Icon/search</title>
    <g id="Icon/search" stroke="none" stroke-width="1" fill="none" fill-rule="evenodd">
        <path d="M24.2,3.64153152e-12 C37.5652909,3.64153152e-12 48.4,10.8347091 48.4,24.2 C48.4,30.1621433 46.2439181,35.6207068 42.6689216,39.8385232 L63.4142136,60.5857864 C64.1952621,61.366835 64.1952621,62.633165 63.4142136,63.4142136 C62.6742728,64.1541543 61.4987886,64.1930986 60.7130012,63.5310463 L60.5857864,63.4142136 L39.8385232,42.6689216 C35.6207068,46.2439181 30.1621433,48.4 24.2,48.4 C10.8347091,48.4 2.30926389e-13,37.5652909 2.30926389e-13,24.2 C2.30926389e-13,10.8347091 10.8347091,3.64153152e-12 24.2,3.64153152e-12 Z M24.2,4 C13.0438481,4 4,13.0438481 4,24.2 C4,35.3561519 13.0438481,44.4 24.2,44.4 C35.3561519,44.4 44.4,35.3561519 44.4,24.2 C44.4,13.0438481 35.3561519,4 24.2,4 Z" id="Combined-Shape" fill="#000000"></path>
    </g>
</svg>