<?xml version="1.0" encoding="UTF-8"?>
<svg width="64px" height="64px" viewBox="0 0 64 64" version="1.1" xmlns="http://www.w3.org/2000/svg" xmlns:xlink="http://www.w3.org/1999/xlink">
    <title>Icon/secure</title>
    <g id="Icon/secure" stroke="none" stroke-width="1" fill="none" fill-rule="evenodd">
        <path d="M30.5656993,0.606163071 C31.3511156,-0.202054357 32.6488844,-0.202054357 33.4343007,0.606163071 C39.3472747,6.69079376 47.4957341,10.0859852 55.9797553,10.0001025 C57.0468515,9.98930038 57.9344611,10.8181915 57.9966059,11.8835313 C58.0002609,11.9461889 58.0047418,12.0383276 58.0094994,12.1589139 L58.0094994,12.1589139 L58.0305924,12.8686597 C58.0883178,15.4956698 57.954428,18.8616268 57.4913282,22.7117594 C56.757845,28.8098132 55.3292288,34.8357961 53.0349054,40.4903607 C48.9060148,50.6663801 42.3518124,58.7168616 32.9453796,63.7624578 C32.3549175,64.0791807 31.6450825,64.0791807 31.0546204,63.7624578 C21.6481876,58.7168616 15.0939852,50.6663801 10.9650946,40.4903607 C8.67077121,34.8357961 7.24215501,28.8098132 6.50867182,22.7117594 C6.01984424,18.6477305 5.89782167,15.123169 5.9807791,12.4377105 L5.9807791,12.4377105 L6.00339412,11.8835313 C6.06553894,10.8181915 6.95314855,9.98930038 8.02024471,10.0001025 C16.5042659,10.0859852 24.6527253,6.69079376 30.5656993,0.606163071 Z M32,4.787 L31.5353668,5.20673935 C25.5854841,10.4751127 18.0108631,13.5663384 10.062824,13.959033 L10.062824,13.959033 L9.957,13.963 L9.957,14.2451638 C9.96512373,16.3319925 10.0952365,18.8348692 10.4097954,21.6305623 L10.4097954,21.6305623 L10.4800468,22.2340764 C11.1737816,28.0016689 12.5220092,33.6885684 14.6716105,38.9864526 C18.3194407,47.9768557 23.9562145,55.0808579 31.9357148,59.6762314 L31.9357148,59.6762314 L32,59.712 L32.5706646,59.3793728 C40.1186906,54.8755243 45.5240928,48.082074 49.0978072,39.5458909 L49.0978072,39.5458909 L49.3283895,38.9864526 C51.4779908,33.6885684 52.8262184,28.0016689 53.5199532,22.2340764 C53.8855526,19.1945457 54.03431,16.4810517 54.0428038,14.2451638 L54.0428038,14.2451638 L54.042,13.963 L53.937176,13.959033 C45.8084997,13.5574135 38.0704078,10.3332086 32.0614917,4.84416452 L32.0614917,4.84416452 L32,4.787 Z M46.4142136,22.5857864 C47.1541543,23.3257272 47.1930986,24.5012114 46.5310463,25.2869988 L46.4142136,25.4142136 L32.4142136,39.4142136 C31.6742728,40.1541543 30.4987886,40.1930986 29.7130012,39.5310463 L29.5857864,39.4142136 L22.5857864,32.4142136 C21.8047379,31.633165 21.8047379,30.366835 22.5857864,29.5857864 C23.3257272,28.8458457 24.5012114,28.8069014 25.2869988,29.4689537 L25.4142136,29.5857864 L31,35.171 L43.5857864,22.5857864 C44.366835,21.8047379 45.633165,21.8047379 46.4142136,22.5857864 Z" id="Combined-Shape" fill="#000000"></path>
    </g>
</svg>