<?xml version="1.0" encoding="UTF-8"?>
<svg width="64px" height="64px" viewBox="0 0 64 64" version="1.1" xmlns="http://www.w3.org/2000/svg" xmlns:xlink="http://www.w3.org/1999/xlink">
    <title>Icon/settings</title>
    <g id="Icon/settings" stroke="none" stroke-width="1" fill="none" fill-rule="evenodd">
        <path d="M34.518,-1.70530257e-13 C36.5244634,-1.70530257e-13 38.2768722,1.35723618 38.7785487,3.30022074 L38.7785487,3.30022074 L39.794,7.237 C41.3266213,7.7146655 42.8041643,8.32990472 44.219,9.079 L44.219,9.079 L47.6520778,7.06165067 C49.3162779,6.08156288 51.4159199,6.30464577 52.8354976,7.58890178 L52.8354976,7.58890178 L52.9962136,7.74178644 L56.4071827,11.1527555 C57.8254142,12.5709251 58.1051328,14.7687144 57.0874479,16.4967549 L57.0874479,16.4967549 L55.063,19.933 C55.8097388,21.3430538 56.4235155,22.8171837 56.899,24.343 L56.899,24.343 L60.7,25.3275083 C62.5733794,25.8112128 63.9023077,27.4579599 63.9948416,29.3740393 L63.9948416,29.3740393 L64,29.588 L64,34.4101102 C64.0028994,36.4181645 62.6459078,38.1734282 60.7020548,38.676219 L60.7020548,38.676219 L56.945,39.648 L56.7507068,40.2626582 C56.2984599,41.6215845 55.7339212,42.9409156 55.0627718,44.2069278 L55.0627718,44.2069278 L55.047,44.234 L57.0133493,47.5730778 C57.9934371,49.2372779 57.7703542,51.3369199 56.4860982,52.7564976 L56.4860982,52.7564976 L56.3332136,52.9172136 L52.9212445,56.3291827 C51.5030749,57.7474142 49.3052856,58.0271328 47.5772117,57.0094282 L47.5772117,57.0094282 L44.238,55.043 L43.6911371,55.326539 C42.4313128,55.9581003 41.1216395,56.485737 39.7751749,56.9040109 L39.7751749,56.9040109 L39.758,56.909 L38.7784917,60.7 C38.2947872,62.5733794 36.6480401,63.9023077 34.7319607,63.9948416 L34.7319607,63.9948416 L34.518,64 L29.693,64 C27.6868744,64 25.935026,62.6423702 25.4331511,60.6986144 L25.4331511,60.6986144 L24.465,56.938 L23.8674819,56.7467029 C22.5217758,56.2981615 21.2149429,55.7394804 19.9603173,55.076176 L19.9603173,55.076176 L19.941,55.066 L16.5039222,57.0903493 C14.8397221,58.0704371 12.7400801,57.8473542 11.3205024,56.5630982 L11.3205024,56.5630982 L11.1597864,56.4102136 L7.74781734,52.9982445 C6.32958583,51.5800749 6.04986719,49.3822856 7.06683101,47.6554709 L7.06683101,47.6554709 L9.085,44.221 L8.79527016,43.6582887 C8.16040058,42.3870657 7.63128512,41.0653317 7.21347189,39.7064878 L7.21347189,39.7064878 L7.207,39.684 L3.30000011,38.6724917 C1.42700021,38.1888853 0.0977194027,36.5426628 0.00515980401,34.6269237 L0.00515980401,34.6269237 L7.38964445e-13,34.413 L7.38964445e-13,29.588 C7.38964445e-13,27.5815366 1.35723618,25.8291278 3.29909831,25.3277414 L3.29909831,25.3277414 L7.254,24.304 L7.43696252,23.7451095 C7.81613237,22.6245161 8.27178828,21.5312685 8.80071085,20.4730907 L8.80071085,20.4730907 L9.067,19.955 L6.98665067,16.4229222 C6.00656288,14.7587221 6.22964577,12.6590801 7.51390178,11.2395024 L7.51390178,11.2395024 L7.66678644,11.0787864 L11.0787555,7.66681734 C12.4969251,6.24858583 14.6947144,5.96886719 16.4227732,6.98656291 L16.4227732,6.98656291 L19.956,9.067 L20.5020131,8.78611166 C21.7595004,8.15897576 23.0663533,7.63529317 24.4096097,7.22043361 L24.4096097,7.22043361 L24.42,7.217 L25.4335083,3.30000011 C25.9171147,1.42700021 27.5633372,0.0977194027 29.4790763,0.005159804 L29.4790763,0.005159804 L29.693,-1.70530257e-13 Z M34.518,4 L29.693,4 C29.5112515,4 29.3521071,4.12333207 29.306326,4.30064117 L29.306326,4.30064117 L28.006326,9.32864117 C27.8242958,10.0326781 27.274473,10.5824366 26.5704148,10.7643845 C24.5954993,11.2747568 22.7018079,12.0592465 20.9445346,13.0949886 C20.3181585,13.4641765 19.5407659,13.4643482 18.9142268,13.0954371 L18.9142268,13.0954371 L14.3930778,10.4333493 C14.235968,10.3408236 14.036169,10.3662525 13.9072136,10.4952136 L13.9072136,10.4952136 L10.4951827,13.9072445 C10.3662525,14.036169 10.3408236,14.235968 10.4333389,14.3930601 L10.4333389,14.3930601 L13.0953389,18.9130601 C13.4642136,19.5393988 13.4642208,20.3165624 13.0953577,20.942908 C12.0787184,22.6692055 11.3043511,24.5271322 10.7940253,26.4644568 C10.6096665,27.1643289 10.061582,27.7099957 9.36090169,27.8912586 L9.36090169,27.8912586 L4.29999999,29.2004917 C4.12340871,29.2460873 4,29.4054277 4,29.588 L4,29.588 L4,34.413 C4,34.5947485 4.12333207,34.7538929 4.3013889,34.7998675 L4.3013889,34.7998675 L9.3213889,36.0998675 C10.0263143,36.2824179 10.5763183,36.8336728 10.7572666,37.5390111 C11.2698557,39.5370876 12.0628529,41.4524949 13.112633,43.2281691 C13.4828787,43.8544294 13.4838498,44.6323463 13.115169,45.2595291 L13.115169,45.2595291 L10.5143493,49.6839222 C10.4218236,49.841032 10.4472525,50.040831 10.5762136,50.1697864 L10.5762136,50.1697864 L13.9882445,53.5818173 C14.117169,53.7107475 14.316968,53.7361764 14.473956,53.6437224 L14.473956,53.6437224 L18.899956,51.0367224 C19.5270519,50.6673508 20.3052991,50.667788 20.9319796,51.037864 C22.7050877,52.0849443 24.6173391,52.8760612 26.6119544,53.3877245 C27.3183025,53.5689186 27.8700496,54.120193 28.0518489,54.8263856 L28.0518489,54.8263856 L29.3064917,59.7000001 C29.3521071,59.8766679 29.5112515,60 29.693,60 L29.693,60 L34.518,60 C34.7005723,60 34.8599127,59.8765913 34.9056831,59.6993238 L34.9056831,59.6993238 L36.1726831,54.7993238 C36.3544503,54.0963563 36.9029281,53.5471186 37.6056432,53.3643782 C39.5856152,52.8494881 41.4834637,52.0590777 43.2435845,51.0163048 C43.8705213,50.6448798 44.6498557,50.6438328 45.2777883,51.0135718 L45.2777883,51.0135718 L49.6069222,53.5626507 C49.764032,53.6551764 49.963831,53.6297475 50.0927864,53.5007864 L50.0927864,53.5007864 L53.5048173,50.0887555 C53.6337475,49.959831 53.6591764,49.760032 53.5665718,49.6027883 L53.5665718,49.6027883 L51.0175718,45.2737883 C50.647772,44.6457524 50.6488844,43.8662745 51.0204753,43.2392967 C52.0805489,41.4506562 52.8798392,39.5198349 53.3941551,37.5052705 C53.5745182,36.7987924 54.1250599,36.24645 54.8309452,36.063781 L54.8309452,36.063781 L59.7001688,34.8037231 C59.876903,34.7580096 60,34.5984402 60,34.413 L60,34.413 L60,29.588 C60,29.4054277 59.8765913,29.2460873 59.6989793,29.2002279 L59.6989793,29.2002279 L54.7909793,27.9302279 C54.0891661,27.7486258 53.5405645,27.2014746 53.3571053,26.5001446 C52.8451695,24.5431113 52.0638843,22.6666701 51.0356446,20.924608 C50.6658434,20.2980843 50.6654251,19.5201662 51.0345521,18.8932451 L51.0345521,18.8932451 L53.6406507,14.4670778 C53.7331764,14.309968 53.7077475,14.110169 53.5787864,13.9812136 L53.5787864,13.9812136 L50.1677555,10.5701827 C50.038831,10.4412525 49.839032,10.4158236 49.6805291,10.509169 L49.6805291,10.509169 L45.2575291,13.109169 C44.6305818,13.4777114 43.8529922,13.4768889 43.2268259,13.1070211 C41.4810208,12.0757981 39.6001621,11.2926209 37.6383992,10.7800369 C36.9363788,10.5966078 36.3887684,10.047348 36.2074513,9.34477926 L36.2074513,9.34477926 L34.9055083,4.29999999 C34.8599127,4.12340871 34.7005723,4 34.518,4 L34.518,4 Z M32.106,16.035 C40.942556,16.035 48.106,23.198444 48.106,32.035 C48.106,40.871556 40.942556,48.035 32.106,48.035 C23.269444,48.035 16.106,40.871556 16.106,32.035 C16.106,23.198444 23.269444,16.035 32.106,16.035 Z M32.106,20.035 C25.478583,20.035 20.106,25.407583 20.106,32.035 C20.106,38.662417 25.478583,44.035 32.106,44.035 C38.733417,44.035 44.106,38.662417 44.106,32.035 C44.106,25.407583 38.733417,20.035 32.106,20.035 Z" id="Combined-Shape" fill="#000000"></path>
    </g>
</svg>