<?xml version="1.0" encoding="UTF-8"?>
<svg width="64px" height="64px" viewBox="0 0 64 64" version="1.1" xmlns="http://www.w3.org/2000/svg" xmlns:xlink="http://www.w3.org/1999/xlink">
    <title>Icon/shopping-orders</title>
    <g id="Icon/shopping-orders" stroke="none" stroke-width="1" fill="none" fill-rule="evenodd">
        <path d="M31.1894198,0.17162372 C31.7055814,-0.0572079068 32.2944186,-0.0572079068 32.8105802,0.17162372 L32.8105802,0.17162372 L62.8105802,13.4716237 C62.8204959,13.4760197 62.8303634,13.4804902 62.8401821,13.4850343 C62.860446,13.4943732 62.8808852,13.5042433 62.9011577,13.5144601 C62.9288511,13.5284884 62.9558093,13.5428806 62.9823499,13.5578365 C63.0031417,13.5694367 63.0239076,13.5816175 63.0444601,13.5941766 C63.0642829,13.606458 63.083842,13.6189034 63.1031449,13.6316619 C63.128898,13.6484432 63.1542305,13.6660094 63.1791726,13.6841756 C63.1971382,13.6976059 63.2143973,13.7106458 63.2314187,13.7239451 C63.2541984,13.7412995 63.2773148,13.7601527 63.3000314,13.7795484 C63.3160444,13.7937551 63.3315708,13.8074673 63.3468667,13.8214044 C63.3558882,13.8290317 63.3647022,13.8371972 63.373448,13.8454484 L63.4403568,13.9123493 C63.444723,13.9168832 63.449067,13.9214368 63.4533886,13.92601 C63.4775644,13.9508525 63.500902,13.9768694 63.5236035,14.0035718 C63.5342297,14.0168376 63.5447855,14.02957 63.5551791,14.0424275 C63.5771241,14.0688275 63.5982867,14.0964688 63.6187824,14.1247589 C63.6297977,14.1406306 63.6408204,14.1562862 63.6516158,14.1720954 C63.6672252,14.1943838 63.6822403,14.2174251 63.6968225,14.2408521 C63.7102633,14.2628596 63.7233979,14.2848312 63.7361095,14.3070516 C63.7441343,14.3208211 63.7519072,14.3348342 63.759529,14.3489721 L63.779349,14.386771 C63.7885038,14.4046015 63.797394,14.4225755 63.8060158,14.440687 L63.8283763,14.4894198 L63.8387159,14.5130453 C63.8525102,14.5452578 63.865472,14.5778654 63.8775807,14.6108366 L63.8283763,14.4894198 C63.8535666,14.5462401 63.8758966,14.6036041 63.8954286,14.6613504 C63.9035819,14.6856968 63.91148,14.7107182 63.9188906,14.7359197 C63.9281694,14.7668473 63.9364365,14.7975591 63.9439413,14.8283342 C63.9463339,14.8393022 63.9488138,14.8499097 63.9512083,14.8605444 C63.9837138,15.0027506 63.9997495,15.1463473 64.0004744,15.2887837 L64,15.3 L64,48.7 C64,49.4910507 63.5337493,50.2077713 62.8105802,50.5283763 L62.8105802,50.5283763 L32.8523604,63.809798 C32.7896769,63.8393718 32.7252092,63.8657848 32.6591627,63.8888316 C32.6443627,63.8934217 32.6303253,63.8981416 32.6162496,63.9027011 C32.5765997,63.9161072 32.5355582,63.9279674 32.4939974,63.9385262 C32.4775204,63.94224 32.4614765,63.9461142 32.445398,63.9497869 C32.3369597,63.974896 32.2249949,63.9907664 32.1104658,63.997001 C32.0935178,63.9978829 32.0768715,63.9985922 32.0602204,63.9990936 C32.0403657,63.9997 32.0202179,64 32,64 L31.9487363,63.9993432 C31.9257442,63.998754 31.9027599,63.9977682 31.8797938,63.996386 L32,64 C31.9104137,64 31.8222031,63.9941098 31.7357344,63.9826956 C31.7314115,63.9818965 31.7264097,63.9812124 31.72141,63.9805093 C31.6712427,63.9737443 31.6222806,63.9650087 31.5739695,63.9545273 C31.5470169,63.9482414 31.5196617,63.9416791 31.4924214,63.9345315 C31.4547171,63.9251486 31.418056,63.9143979 31.3818477,63.9026423 C31.3173954,63.8811687 31.2528587,63.8565008 31.1894198,63.8283763 L31.3255436,63.8834246 C31.2860452,63.8692786 31.2471214,63.8539253 31.2088166,63.8374093 L31.1894198,63.8283763 L1.18941985,50.5283763 C0.466250725,50.2077713 -6.41264819e-13,49.4910507 -6.41264819e-13,48.7 L-6.41264819e-13,48.7 L0.000776275683,15.2276753 C0.00332064537,15.1567208 0.00968119379,15.0855622 0.0199687629,15.0144867 C0.0228764185,14.9974685 0.0254971365,14.9807917 0.0283247765,14.9641721 C0.0332669415,14.9328598 0.0393999548,14.901534 0.0463130548,14.8702624 C0.0501075489,14.8544386 0.0538179502,14.8384996 0.0577195939,14.8226242 C0.0665635614,14.7857749 0.0767290946,14.7491231 0.0879981975,14.7126042 C0.0923329677,14.6989133 0.0964813673,14.6859086 0.100759873,14.6729556 C0.110123069,14.6444493 0.120491874,14.6153745 0.131580171,14.5864149 C0.140574807,14.5628636 0.14985474,14.5398863 0.159550664,14.5171056 C0.163467073,14.5080051 0.167507205,14.4987052 0.17162372,14.4894198 L0.191622274,14.4456665 C0.202273461,14.4231319 0.213339682,14.400809 0.224813571,14.3787088 L0.17162372,14.4894198 C0.200036517,14.4253308 0.23140532,14.3634738 0.265498617,14.3039382 C0.276971837,14.2842688 0.288699761,14.2646349 0.300759282,14.2452089 C0.317969371,14.2169525 0.335856346,14.1895993 0.35433054,14.1628006 C0.364030507,14.1493935 0.37376058,14.1356798 0.383663226,14.1220887 C0.402509287,14.0954835 0.422105304,14.0698869 0.442246578,14.0448569 C0.456704501,14.0276644 0.471260873,14.0102045 0.486118224,13.992989 C0.504533942,13.9708787 0.52371037,13.9496058 0.54329269,13.9288019 C0.560779023,13.9109508 0.578068021,13.8932498 0.595696166,13.8758608 C0.612391211,13.8587236 0.630432557,13.8415843 0.648760416,13.8248138 C0.671333273,13.8047177 0.694131763,13.78476 0.717410993,13.7653022 C0.733311439,13.7515633 0.749439663,13.738531 0.765751253,13.725765 C0.786418471,13.7099478 0.807666454,13.693953 0.829265486,13.6783627 C0.853265708,13.6607851 0.877115528,13.6443911 0.901286915,13.6285349 C0.916032026,13.6190472 0.931260225,13.6093284 0.94664114,13.5998042 C0.973155681,13.5832624 0.99960721,13.5677457 1.02638342,13.552851 C1.07871431,13.5237753 1.13329329,13.4965065 1.18941985,13.4716237 L1.10700109,13.5103715 C1.1246118,13.5015962 1.14234677,13.4930818 1.16019959,13.4848306 L1.18941985,13.4716237 L17.3072142,6.32466165 C17.4864605,6.20798232 17.6832239,6.12078491 17.8893486,6.06621499 Z M4,18.374 L4,47.399 L30,58.925 L30,29.901 L4,18.374 Z M60,18.374 L34,29.9 L34,58.925 L60,47.398 L60,18.374 Z M53.191969,29.7704957 C54.5140725,29.1865667 56,30.1546866 56,31.6 L56,31.6 L56,42.9 C56,43.6920617 55.5325712,44.409499 54.808031,44.7295043 L54.808031,44.7295043 L42.808031,50.0295043 C41.4859275,50.6134333 40,49.6453134 40,48.2 L40,48.2 L40,36.9 C40,36.1079383 40.4674288,35.390501 41.191969,35.0704957 L41.191969,35.0704957 Z M52,34.669 L44,38.203 L44,45.129 L52,41.596 L52,34.669 Z M18.432,10.202 L6.934,15.299 L32,26.412 L43.498,21.314 L18.432,10.202 Z M32,4.187 L23.367,8.014 L48.433,19.127 L57.065,15.3 L32,4.187 Z" id="Combined-Shape" fill="#000000"></path>
    </g>
</svg>