<?xml version="1.0" encoding="UTF-8"?>
<svg width="64px" height="64px" viewBox="0 0 64 64" version="1.1" xmlns="http://www.w3.org/2000/svg" xmlns:xlink="http://www.w3.org/1999/xlink">
    <title>Icon/Simulation</title>
    <g id="Icon/Simulation" stroke="none" stroke-width="1" fill="none" fill-rule="evenodd">
        <path d="M31.3675445,2.1026334 C31.7780781,1.96578887 32.2219219,1.96578887 32.6324555,2.1026334 L32.6324555,2.1026334 L62.6324555,12.1026334 C62.6399418,12.1051288 62.6474057,12.1076656 62.6548471,12.1102434 C62.6889856,12.1219893 62.7231024,12.1348842 62.7568311,12.1486906 C62.7705841,12.1543144 62.78421,12.1600566 62.7977495,12.1659394 C62.8305514,12.1802508 62.862952,12.195397 62.8949264,12.2113953 C62.9099017,12.2187857 62.9244743,12.2262994 62.9389319,12.2339802 C62.9714513,12.2513703 63.0038403,12.2697461 63.0357073,12.2890151 C63.0462056,12.2952605 63.0566865,12.3017357 63.0670978,12.3083017 C63.1007494,12.3295989 63.1335627,12.3516541 63.1657238,12.3746808 C63.1761052,12.3821437 63.1860026,12.3893871 63.1958261,12.3967164 C63.2233746,12.4171551 63.2508964,12.4387702 63.2778634,12.46112 C63.2909439,12.4722087 63.3033655,12.4827979 63.3156481,12.4935308 C63.5402094,12.6888261 63.7238731,12.9374007 63.8451104,13.2280335 C63.9137348,13.3919603 63.9609234,13.5659497 63.9839127,13.7462352 C63.9938544,13.8210027 63.9991578,13.8954837 64.0003048,13.9695625 L64,50 C64,50.8608608 63.4491398,51.6251385 62.6324555,51.8973666 L62.6324555,51.8973666 L32.6324555,61.8973666 C32.6285018,61.8986845 32.6245449,61.8999898 32.620585,61.9012823 C32.5688993,61.9187208 32.515752,61.9336698 32.4617589,61.9464304 C32.4587069,61.946691 32.4556908,61.9473993 32.4526734,61.9481004 C32.3971668,61.9613979 32.3407941,61.9719274 32.2836438,61.9800411 C32.2694343,61.981818 32.2558013,61.9836236 32.2421552,61.9852879 C32.1994412,61.9906587 32.1556432,61.9945195 32.1114631,61.9969464 C32.0945179,61.9978381 32.0775213,61.9985697 32.0605197,61.9990843 C32.0403657,61.9997 32.0202179,62 32,62 L31.9484816,61.9993365 C31.9247536,61.9987251 31.9010339,61.9976914 31.877334,61.9962353 L32,62 C31.9217843,62 31.8446172,61.9955101 31.7687425,61.9867741 C31.75032,61.9844451 31.7316373,61.9820053 31.7129835,61.9793005 C31.5984119,61.963085 31.4871246,61.9369482 31.3798239,61.9019841 L31.3675445,61.8973666 L1.36754447,51.8973666 C0.55086019,51.6251385 -1.08420217e-19,50.8608608 -1.08420217e-19,50 L-1.08420217e-19,50 L-0.00030480035,13.9695625 C6.63410831e-05,13.9455927 0.000872650932,13.9215808 0.00211931247,13.8975372 C0.00638327218,13.8237112 0.0141542131,13.7510329 0.0257539011,13.679444 C0.0303395377,13.6501782 0.0358063015,13.6208675 0.0419545034,13.5915745 C0.0571769564,13.5189283 0.076144882,13.4480276 0.0988325965,13.3786429 L0.102633404,13.3675445 L0.102633404,13.3675445 L0.122713873,13.3098799 C0.150692681,13.233823 0.183197754,13.1597547 0.219960783,13.0880472 C0.229982215,13.0679106 0.240784134,13.0476249 0.251902286,13.0275848 C0.290158331,12.9595353 0.331997927,12.8937319 0.37751563,12.8305794 C0.469524649,12.7029264 0.570167719,12.5932009 0.680891983,12.4962559 C0.741578908,12.4437901 0.797258629,12.4003256 0.855342154,12.3597855 C0.880334349,12.3423866 0.905828411,12.3254748 0.931683681,12.3091598 C0.94563255,12.3002623 0.959469029,12.291759 0.973424517,12.2834163 C1.0000216,12.267632 1.02715608,12.2522617 1.05462946,12.2375316 C1.07392639,12.2270764 1.09321597,12.2171409 1.11270263,12.2075039 C1.1414288,12.1933755 1.1705769,12.179803 1.20004032,12.1669338 C1.25462283,12.1431135 1.31043368,12.1216703 1.36754447,12.1026334 L1.24961233,12.1460661 C1.27896445,12.1341695 1.3086078,12.1229623 1.33851673,12.1124571 L1.36754447,12.1026334 Z M3.9996952,16.775 L3.9996952,37.027 L17.7963627,41.6894479 C18.7409771,40.2479086 20.3444098,39.2769257 22.1787929,39.2043672 L22.4,39.2 C25.4375661,39.2 27.9,41.6624339 27.9,44.7 C27.9,47.1068961 26.3539349,49.1526893 24.200741,49.8984434 L24.2,55.1 C24.2,55.1632755 24.1970616,55.2258646 24.1913137,55.2876384 L29.9996952,57.224 L30,25.441 L13.6996952,20.008 L13.7008756,26.8752824 C15.6840109,27.6501484 17.1071932,29.5429151 17.1956328,31.7787929 L17.2,32 C17.2,35.0375661 14.7375661,37.5 11.7,37.5 C8.66243388,37.5 6.2,35.0375661 6.2,32 C6.2,29.6681501 7.65115653,27.6752361 9.69965055,26.8750768 L9.6996952,18.675 L3.9996952,16.775 Z M59.9996952,16.774 L34,25.441 L33.9996952,48.422 L46.913572,44.0894062 C46.909666,44.0335655 46.9065937,43.9774951 46.9043672,43.9212071 L46.9,43.7 C46.9,40.6624339 49.3624339,38.2 52.4,38.2 C55.4375661,38.2 57.9,40.6624339 57.9,43.7 C57.9,46.7375661 55.4375661,49.2 52.4,49.2 C50.9521147,49.2 49.6349021,48.6405241 48.6527553,47.7259655 L34.4362719,52.4960902 C34.2916611,52.5446173 34.1453989,52.5756867 33.9997737,52.5904367 L33.9996952,57.224 L60,48.558 L59.9996952,26.669 L48.0971316,30.5793334 C48.0048398,33.4603811 45.6967893,35.7818899 42.8212071,35.8956328 L42.6,35.9 C39.5624339,35.9 37.1,33.4375661 37.1,30.4 C37.1,27.3624339 39.5624339,24.9 42.6,24.9 C44.2636326,24.9 45.7547485,25.6386317 46.7632945,26.8058418 L59.8758723,22.4998778 L59.9996952,22.463 L59.9996952,16.774 Z M3.9996952,41.248 L4,48.558 L20.1996952,53.958 L20.1995896,49.7421726 C18.5306007,49.0127976 17.2935415,47.4790452 16.9784639,45.6309676 L16.8597096,45.594737 L3.9996952,41.248 Z M22.4,43.2 C21.5715729,43.2 20.9,43.8715729 20.9,44.7 C20.9,45.5284271 21.5715729,46.2 22.4,46.2 C23.2284271,46.2 23.9,45.5284271 23.9,44.7 C23.9,43.8715729 23.2284271,43.2 22.4,43.2 Z M52.4,42.2 C51.5715729,42.2 50.9,42.8715729 50.9,43.7 C50.9,44.5284271 51.5715729,45.2 52.4,45.2 C53.2284271,45.2 53.9,44.5284271 53.9,43.7 C53.9,42.8715729 53.2284271,42.2 52.4,42.2 Z M11.7,30.5 C10.8715729,30.5 10.2,31.1715729 10.2,32 C10.2,32.8284271 10.8715729,33.5 11.7,33.5 C12.5284271,33.5 13.2,32.8284271 13.2,32 C13.2,31.1715729 12.5284271,30.5 11.7,30.5 Z M42.6,28.9 C41.7715729,28.9 41.1,29.5715729 41.1,30.4 C41.1,31.2284271 41.7715729,31.9 42.6,31.9 C43.4284271,31.9 44.1,31.2284271 44.1,30.4 C44.1,29.5715729 43.4284271,28.9 42.6,28.9 Z M16.4378956,11.2952228 L8.3246952,13.999 L32,21.891 L55.6746952,13.999 L48.1986952,11.507 L37.6272262,14.9991017 L37.5530219,15.0221016 C37.1994248,17.7184184 34.8928021,19.8 32.1,19.8 C29.2130088,19.8 26.8455434,17.5756454 26.6179227,14.7472551 L16.8675445,11.4973666 C16.7134552,11.4460035 16.5697789,11.3777022 16.4378956,11.2952228 Z M32.1,12.8 C31.2715729,12.8 30.6,13.4715729 30.6,14.3 C30.6,15.1284271 31.2715729,15.8 32.1,15.8 C32.9284271,15.8 33.6,15.1284271 33.6,14.3 C33.6,13.4715729 32.9284271,12.8 32.1,12.8 Z M32,6.108 L22.6746952,9.216 L27.7661188,10.9132398 C28.7304569,9.6809619 30.2089346,8.87041801 31.8787929,8.8043672 L32.1,8.8 C33.9560738,8.8 35.5974106,9.71939803 36.5934346,11.1276181 L41.8496952,9.391 L32,6.108 Z" id="Combined-Shape" fill="#000000"></path>
    </g>
</svg>