<?xml version="1.0" encoding="UTF-8"?>
<svg width="64px" height="64px" viewBox="0 0 64 64" version="1.1" xmlns="http://www.w3.org/2000/svg" xmlns:xlink="http://www.w3.org/1999/xlink">
    <title>Icon/switch to</title>
    <g id="Icon/switch-to" stroke="none" stroke-width="1" fill="none" fill-rule="evenodd">
        <path d="M18.534413,11.6390978 C19.2860185,10.8296765 20.5514809,10.7828075 21.3609022,11.534413 C22.1277224,12.2464604 22.2101466,13.4196977 21.5776313,14.2294504 L21.465587,14.3609022 L11.585,24.9999914 L45,24.9999914 C46.0543618,24.9999914 46.9181651,25.8158778 46.9945143,26.8507377 L47,26.9999914 C47,28.0543618 46.1841222,28.9181651 45.1492623,28.9945143 L45,28.9999914 L7,28.9999914 C5.30503334,28.9999914 4.40023218,27.0394199 5.4349708,25.7540191 L5.53441302,25.6390978 L18.534413,11.6390978 Z M57,35 C58.6949667,35 59.5997678,36.9605801 58.5650292,38.2459809 L58.465587,38.3609022 L45.465587,52.3609022 C44.7139815,53.1703235 43.4485191,53.2171925 42.6390978,52.465587 C41.8722776,51.7535396 41.7898534,50.5803023 42.4223687,49.7705496 L42.534413,49.6390978 L52.413,39 L19,39 C17.9456382,39 17.0818349,38.1841222 17.0054857,37.1492623 L17,37 C17,35.9456382 17.8158778,35.0818349 18.8507377,35.0054857 L19,35 L57,35 Z" id="Combined-Shape" fill="#000000"></path>
    </g>
</svg>