<?xml version="1.0" encoding="UTF-8"?>
<svg width="64px" height="64px" viewBox="0 0 64 64" version="1.1" xmlns="http://www.w3.org/2000/svg" xmlns:xlink="http://www.w3.org/1999/xlink">
    <title>Icon/system</title>
    <g id="Icon/system" stroke="none" stroke-width="1" fill="none" fill-rule="evenodd">
        <path d="M24,0.027864045 C20.6830716,0.027864045 17.7101745,2.07470447 16.5266211,5.17328733 L16.4274602,5.44770966 C15.4258473,8.3852767 16.2159571,11.6406904 18.4527405,13.7922779 L18.5857864,13.9142136 C18.8739124,14.2023396 19.1226044,14.9606463 19.045934,15.4863862 C18.9902034,15.8685393 18.8334618,16 18,16 L2,16 C0.8954305,16 0,16.8954305 0,18 L0,26 C0,28.7944228 1.56294971,30.6579398 3.93638621,31.004066 C5.70710022,31.2622951 7.72933956,30.5990876 8.91421356,29.4142136 L9.00087466,29.3218832 C9.7523064,28.4687028 10.8386256,27.9858943 11.9754509,27.9998493 C13.8264118,28.0085213 15.4206735,29.2655017 15.8572919,31.0485615 C16.2939103,32.8316213 15.4607922,34.6829949 13.8367115,35.5387401 C12.2750955,36.361572 10.3676847,36.0607684 9.13527628,34.8200332 L8.91421356,34.5857864 C7.72933956,33.4009124 5.70710022,32.7377049 3.93638621,32.995934 C1.56294971,33.3420602 0,35.2055772 0,38 L0,62 C0,63.1045695 0.8954305,64 2,64 L26,64 C28.7944228,64 30.6579398,62.4370503 31.004066,60.0636138 C31.2622951,58.2928998 30.5990876,56.2706604 29.4142136,55.0857864 L29.3218832,54.9991253 C28.4687028,54.2476936 27.9858943,53.1613744 27.9998493,52.0245491 C28.0085213,50.1735882 29.2655017,48.5793265 31.0485615,48.1427081 C32.8316213,47.7060897 34.6829949,48.5392078 35.5387401,50.1632885 C36.361572,51.7249045 36.0607684,53.6323153 34.8200332,54.8647237 L34.5857864,55.0857864 C33.4009124,56.2706604 32.7377049,58.2928998 32.995934,60.0636138 C33.3420602,62.4370503 35.2055772,64 38,64 L46,64 C47.1045695,64 48,63.1045695 48,62 L48,50 C48,49.1665382 48.1314607,49.0097966 48.5136138,48.954066 L48.6494872,48.9415113 C49.1158379,48.9211538 49.7030251,49.1101957 50.0043662,49.3431691 L50.08,49.41 L50.0093074,49.333355 C52.4569992,52.0698776 56.4531839,52.7890356 59.7013452,51.0775451 C62.9495065,49.3660547 64.6157428,45.6633075 63.742506,42.0971879 C62.8692692,38.5310683 59.6807457,36.0171076 56.0093074,36.0000217 L55.7114726,36.0020362 C53.6307656,36.0557847 51.6440724,36.9390216 50.2014626,38.4569702 L50.0857864,38.5857864 C49.7976604,38.8739124 49.0393537,39.1226044 48.5136138,39.045934 C48.1569376,38.9939188 48.0186423,38.8539117 48.0017881,38.15784 L48,18 C48,16.8954305 47.1045695,16 46,16 L30,16 C29.1665382,16 29.0097966,15.8685393 28.954066,15.4863862 L28.9415113,15.3505128 C28.9211538,14.8841621 29.1101957,14.2969749 29.3431691,13.9956338 L29.409,13.92 L29.3333333,13.990712 C31.8056258,11.7794264 32.6569322,8.27187018 31.4733789,5.17328733 C30.2898255,2.07470447 27.3169284,0.027864045 24,0.027864045 Z M24,4.02786404 C25.6584642,4.02786404 27.1449128,5.05128426 27.7366894,6.60057569 C28.3027367,8.08250662 27.9379029,9.75152932 26.8232898,10.8614682 L26.5857864,11.0857864 C25.4009124,12.2706604 24.7377049,14.2928998 24.995934,16.0636138 L25.0328109,16.283726 C25.4594391,18.5332083 27.2929029,20 30,20 L44,20 L44,38 C44,40.7944228 45.5629497,42.6579398 47.9363862,43.004066 C49.7071002,43.2622951 51.7293396,42.5990876 52.9142136,41.4142136 L53.0008747,41.3218832 C53.7523064,40.4687028 54.8386256,39.9858943 55.9754509,39.9998493 C57.8264118,40.0085213 59.4206735,41.2655017 59.8572919,43.0485615 C60.2939103,44.8316213 59.4607922,46.6829949 57.8367115,47.5387401 C56.2750955,48.361572 54.3676847,48.0607684 53.1352763,46.8200332 L52.9142136,46.5857864 C51.7293396,45.4009124 49.7071002,44.7377049 47.9363862,44.995934 L47.716274,45.0328109 C45.4667917,45.4594391 44,47.2929029 44,50 L44,60 L38,60 C37.1665382,60 37.0097966,59.8685393 36.954066,59.4863862 L36.9415113,59.3505128 C36.9211538,58.8841621 37.1101957,58.2969749 37.3431691,57.9956338 L37.41,57.919 L37.333355,57.9906926 C40.0698776,55.5430008 40.7890356,51.5468161 39.0775451,48.2986548 C37.3660547,45.0504935 33.6633075,43.3842572 30.0971879,44.257494 C26.5310683,45.1307308 24.0171076,48.3192543 24.0000217,51.9906926 L24.0020362,52.2885274 C24.0557847,54.3692344 24.9390216,56.3559276 26.4569702,57.7985374 L26.5857864,57.9142136 C26.8739124,58.2023396 27.1226044,58.9606463 27.045934,59.4863862 L27.0332705,59.5595096 C26.9662969,59.8854831 26.7778977,60 26,60 L4,60 L4,38 C4,37.1665382 4.13146071,37.0097966 4.51361379,36.954066 L4.64948722,36.9415113 C5.11583792,36.9211538 5.70302513,37.1101957 6.00436619,37.3431691 L6.08,37.41 L6.00930739,37.333355 C8.4569992,40.0698776 12.4531839,40.7890356 15.7013452,39.0775451 C18.9495065,37.3660547 20.6157428,33.6633075 19.742506,30.0971879 C18.8692692,26.5310683 15.6807457,24.0171076 12.0093074,24.0000217 L11.7114726,24.0020362 C9.63076558,24.0557847 7.6440724,24.9390216 6.20146261,26.4569702 L6.08578644,26.5857864 C5.79766044,26.8739124 5.03935368,27.1226044 4.51361379,27.045934 L4.44049041,27.0332705 C4.1378007,26.9710807 4.01743841,26.8041923 4.00178814,26.15784 L4,20 L18,20 C20.7944228,20 22.6579398,18.4370503 23.004066,16.0636138 C23.2622951,14.2928998 22.5990876,12.2706604 21.4142136,11.0857864 L21.3333333,11.009288 C20.0971871,9.90364521 19.6715339,8.14986711 20.2633106,6.60057569 C20.8550872,5.05128426 22.3415358,4.02786404 24,4.02786404 Z" id="Path" fill="#000000"></path>
    </g>
</svg>