<?xml version="1.0" encoding="UTF-8"?>
<svg width="64px" height="64px" viewBox="0 0 64 64" version="1.1" xmlns="http://www.w3.org/2000/svg" xmlns:xlink="http://www.w3.org/1999/xlink">
    <title>Icon/ticket</title>
    <g id="Icon/ticket" stroke="none" stroke-width="1" fill="none" fill-rule="evenodd">
        <path d="M62,12 C63.1045695,12 64,12.8954305 64,14 L64,14 L64,50 C64,51.1045695 63.1045695,52 62,52 L62,52 L2,52 C0.8954305,52 0,51.1045695 0,50 L0,50 L0,14 C0,12.8954305 0.8954305,12 2,12 L2,12 Z M60,16 L4,16 L4,48 L60,48 L60,16 Z M44,18 C45.0543618,18 45.9181651,18.8158778 45.9945143,19.8507377 L46,20 L46,44 C46,45.1045695 45.1045695,46 44,46 C42.9456382,46 42.0818349,45.1841222 42.0054857,44.1492623 L42,44 L42,20 C42,18.8954305 42.8954305,18 44,18 Z M18,40 C19.1045695,40 20,40.8954305 20,42 C20,43.0543618 19.1841222,43.9181651 18.1492623,43.9945143 L18,44 L10,44 C8.8954305,44 8,43.1045695 8,42 C8,40.9456382 8.81587779,40.0818349 9.85073766,40.0054857 L10,40 L18,40 Z M52,38 C53.0543618,38 53.9181651,38.8158778 53.9945143,39.8507377 L54,40 L54,42 C54,43.1045695 53.1045695,44 52,44 C50.9456382,44 50.0818349,43.1841222 50.0054857,42.1492623 L50,42 L50,40 C50,38.8954305 50.8954305,38 52,38 Z M52,20 C53.0543618,20 53.9181651,20.8158778 53.9945143,21.8507377 L54,22 L54,32 C54,33.1045695 53.1045695,34 52,34 C50.9456382,34 50.0818349,33.1841222 50.0054857,32.1492623 L50,32 L50,22 C50,20.8954305 50.8954305,20 52,20 Z M30,28 C31.1045695,28 32,28.8954305 32,30 C32,31.0543618 31.1841222,31.9181651 30.1492623,31.9945143 L30,32 L10,32 C8.8954305,32 8,31.1045695 8,30 C8,28.9456382 8.81587779,28.0818349 9.85073766,28.0054857 L10,28 L30,28 Z M36,20 C37.1045695,20 38,20.8954305 38,22 C38,23.0543618 37.1841222,23.9181651 36.1492623,23.9945143 L36,24 L10,24 C8.8954305,24 8,23.1045695 8,22 C8,20.9456382 8.81587779,20.0818349 9.85073766,20.0054857 L10,20 L36,20 Z" id="ticket" fill="#000000"></path>
    </g>
</svg>