<?xml version="1.0" encoding="UTF-8"?>
<svg width="64px" height="64px" viewBox="0 0 64 64" version="1.1" xmlns="http://www.w3.org/2000/svg" xmlns:xlink="http://www.w3.org/1999/xlink">
    <title>Icon/time</title>
    <g id="Icon/time" stroke="none" stroke-width="1" fill="none" fill-rule="evenodd">
        <path d="M32,0 C49.673112,0 64,14.326888 64,32 C64,49.673112 49.673112,64 32,64 C14.326888,64 0,49.673112 0,32 C0,14.326888 14.326888,0 32,0 Z M32,4 C16.536027,4 4,16.536027 4,32 C4,47.463973 16.536027,60 32,60 C47.463973,60 60,47.463973 60,32 C60,16.536027 47.463973,4 32,4 Z M32,8 C33.0543618,8 33.9181651,8.81587779 33.9945143,9.85073766 L34,10 L34,31.805 L45.9481996,38.2390578 C46.8744297,38.737797 47.2485832,39.8617045 46.8297454,40.8077303 L46.7609422,40.9481996 C46.262203,41.8744297 45.1382955,42.2485832 44.1922697,41.8297454 L44.0518004,41.7609422 L31.0518004,34.7609422 C30.4538129,34.438949 30.0635937,33.8378809 30.0070984,33.1686152 L30,33 L30,10 C30,8.8954305 30.8954305,8 32,8 Z" id="Combined-Shape" fill="#000000"></path>
    </g>
</svg>