<?xml version="1.0" encoding="UTF-8"?>
<svg width="64px" height="64px" viewBox="0 0 64 64" version="1.1" xmlns="http://www.w3.org/2000/svg" xmlns:xlink="http://www.w3.org/1999/xlink">
    <title>Icon/Tree</title>
    <g id="Icon/Tree" stroke="none" stroke-width="1" fill="none" fill-rule="evenodd">
        <path d="M10.1901099,0 C15.6522668,0 20.0802198,4.4771525 20.0802198,10 C20.0802198,14.8458003 16.6713695,18.8865745 12.1460517,19.804469 L12.101,26 L43.7176144,26.0000191 C44.633966,21.4355289 48.6251315,18 53.4098901,18 C58.872047,18 63.3,22.4771525 63.3,28 C63.3,33.5228475 58.872047,38 53.4098901,38 C48.6254809,38 44.6345488,34.5649727 43.7178152,30.0009807 L12.07,30 L11.9143467,48.6181721 L11.9055588,51.0813957 L11.9076322,52.744189 L13.4988266,52.7539016 L16.2580942,52.7527444 L22.8178052,52.7198464 L43.6196771,52.5732679 C44.3044621,47.7262367 48.4268034,44 53.4098901,44 C58.872047,44 63.3,48.4771525 63.3,54 C63.3,59.5228475 58.872047,64 53.4098901,64 C48.9151107,64 45.1206482,60.9682715 43.9175933,56.8169173 L18.7871184,56.9880901 L14.8916016,57 L11.9739282,56.990322 L10.7500721,56.9705332 L10.3110187,56.9554821 L10.0660516,56.9417876 L9.52851382,56.8925823 C9.14219643,56.8483068 9.03657527,56.7919149 8.80926119,56.5555189 L8.31423487,56.0254888 C8.11653573,55.8063084 8.05347369,55.6892141 8.01316363,55.3790826 L7.97629369,54.9936748 L7.95617361,54.7257937 L7.94006167,54.3573775 L7.92301682,53.4426393 L7.91538462,51.9665671 L7.92431677,48.5962939 L8.14304043,21.9542738 L8.15720288,19.7885342 C3.6702546,18.8406679 0.3,14.8182896 0.3,10 C0.3,4.4771525 4.72795302,0 10.1901099,0 Z M53.4098901,47.5 C49.8594881,47.5 46.9813187,50.4101491 46.9813187,54 C46.9813187,57.5898509 49.8594881,60.5 53.4098901,60.5 C56.9602921,60.5 59.8384615,57.5898509 59.8384615,54 C59.8384615,50.4101491 56.9602921,47.5 53.4098901,47.5 Z M53.4098901,21.5 C49.8594881,21.5 46.9813187,24.4101491 46.9813187,28 C46.9813187,31.5898509 49.8594881,34.5 53.4098901,34.5 C56.9602921,34.5 59.8384615,31.5898509 59.8384615,28 C59.8384615,24.4101491 56.9602921,21.5 53.4098901,21.5 Z M10.0912088,3.5 C6.54080683,3.5 3.66263736,6.41014913 3.66263736,10 C3.66263736,13.5898509 6.54080683,16.5 10.0912088,16.5 C13.6416108,16.5 16.5197802,13.5898509 16.5197802,10 C16.5197802,6.41014913 13.6416108,3.5 10.0912088,3.5 Z" id="Combined-Shape" fill="#000000"></path>
    </g>
</svg>