<?xml version="1.0" encoding="UTF-8"?>
<svg width="64px" height="64px" viewBox="0 0 64 64" version="1.1" xmlns="http://www.w3.org/2000/svg" xmlns:xlink="http://www.w3.org/1999/xlink">
    <title>Icon/unlink</title>
    <g id="Icon/unlink" stroke="none" stroke-width="1" fill="none" fill-rule="evenodd">
        <path d="M40.1,47 C41.1543618,47 42.0181651,47.8158778 42.0945143,48.8507377 L42.1,49 L42.1,62 C42.1,63.1045695 41.2045695,64 40.1,64 C39.0456382,64 38.1818349,63.1841222 38.1054857,62.1492623 L38.1,62 L38.1,49 C38.1,47.8954305 38.9954305,47 40.1,47 Z M22.6540374,29.5782709 C23.715379,29.8842573 24.3277155,30.9926957 24.0217291,32.0540374 C23.7157427,33.115379 22.6073043,33.7277155 21.5459626,33.4217291 C19.2036187,32.7464278 16.6860064,33.3584578 14.9086095,35.024744 L14.7142136,35.2142136 L6.01269516,43.9157303 C4.71548998,45.2101544 3.98649346,46.9674403 3.98649346,48.8 C3.98649346,50.5307508 4.63674036,52.1943592 5.78896468,53.4516581 L5.99747905,53.6692476 L10.3157303,57.8873048 C11.6101544,59.18451 13.3674403,59.9135065 15.2,59.9135065 C16.9307508,59.9135065 18.5943592,59.2632596 19.8655908,58.0969378 L20.0857864,57.8857864 L28.7853232,49.1862499 C30.5283719,47.4420585 31.2081531,44.9002679 30.5684692,42.5188341 C30.281925,41.4520791 30.9144109,40.3550134 31.9811659,40.0684692 C33.0479209,39.781925 34.1449866,40.4144109 34.4315308,41.4811659 C35.4131741,45.135656 34.4278504,49.0291949 31.8461446,51.7749546 L31.6142136,52.0142136 L22.9157303,60.7126952 C20.8709154,62.7619033 18.0949131,63.9135065 15.2,63.9135065 C12.4208834,63.9135065 9.751355,62.852189 7.74926554,60.9702512 L3.18730484,56.5157303 C1.13809666,54.4709154 -0.0135065418,51.6949131 -0.0135065418,48.8 C-0.0135065418,46.0208834 1.04781097,43.351355 2.94438123,41.3344599 L3.18578644,41.0857864 L11.8765093,32.3951249 C14.6817356,29.5527273 18.8167675,28.4719803 22.6540374,29.5782709 Z M49.2614839,44.3714248 L49.3953458,44.4760092 L49.5219203,44.5935354 L58.6219203,53.7935354 C59.3986892,54.5788403 59.3917695,55.8451513 58.6064646,56.6219203 C57.8624916,57.3578067 56.6868122,57.390327 55.9046542,56.7239908 L55.7780797,56.6064646 L46.6780797,47.4064646 C45.9013108,46.6211597 45.9082305,45.3548487 46.6935354,44.5780797 C47.3961766,43.8830759 48.4838892,43.8154572 49.2614839,44.3714248 Z M62,36 C63.1045695,36 64,36.8954305 64,38 C64,39.0543618 63.1841222,39.9181651 62.1492623,39.9945143 L62,40 L49.1,40 C47.9954305,40 47.1,39.1045695 47.1,38 C47.1,36.9456382 47.9158778,36.0818349 48.9507377,36.0054857 L49.1,36 L62,36 Z M48.9,0.0864934582 C51.6791166,0.0864934582 54.348645,1.14781097 56.3655401,3.04438123 L56.6142136,3.28578644 L60.9126952,7.58426966 C62.9619033,9.62908455 64.1135065,12.4050869 64.1135065,15.3 C64.1135065,18.0791166 63.052189,20.748645 61.1556188,22.7655401 L60.9142136,23.0142136 L52.2145058,31.7139212 C48.9938997,34.9358589 44.1092715,35.815092 39.9673148,33.9184156 C38.9630316,33.4585363 38.521705,32.271598 38.9815844,31.2673148 C39.4414637,30.2630316 40.628402,29.821705 41.6326852,30.2815844 C44.170078,31.4435021 47.1477605,30.9597338 49.1852252,29.0785533 L49.3857864,28.8857864 L58.0873048,20.1842697 C59.38451,18.8898456 60.1135065,17.1325597 60.1135065,15.3 C60.1135065,13.5692492 59.4632596,11.9056408 58.2969378,10.6344092 L58.0857864,10.4142136 L53.7842697,6.11269516 C52.4898456,4.81548998 50.7325597,4.08649346 48.9,4.08649346 C47.1692492,4.08649346 45.5056408,4.73674036 44.2344092,5.90306219 L44.0142136,6.11421356 L35.3067967,14.8215918 C33.2327363,16.8740666 32.6739802,20.0093086 33.9112911,22.6519288 C34.3796678,23.6522773 33.9484196,24.8429143 32.9480712,25.3112911 C31.9477227,25.7796678 30.7570857,25.3484196 30.2887089,24.3480712 C28.3785391,20.2683739 29.1781331,15.4454477 32.2666034,12.208983 L32.4857864,11.9857864 L41.1842697,3.28730484 C43.2290846,1.23809666 46.0050869,0.0864934582 48.9,0.0864934582 Z M15.1,24 C16.2045695,24 17.1,24.8954305 17.1,26 C17.1,27.0543618 16.2841222,27.9181651 15.2492623,27.9945143 L15.1,28 L2.1,28 C0.9954305,28 0.1,27.1045695 0.1,26 C0.1,24.9456382 0.915877791,24.0818349 1.95073766,24.0054857 L2.1,24 L15.1,24 Z M8.05256742,7.16510235 L8.18699879,7.26895369 L8.31421356,7.38578644 L17.5142136,16.5857864 C18.2952621,17.366835 18.2952621,18.633165 17.5142136,19.4142136 C16.7742728,20.1541543 15.5987886,20.1930986 14.8130012,19.5310463 L14.6857864,19.4142136 L5.48578644,10.2142136 C4.70473785,9.43316498 4.70473785,8.16683502 5.48578644,7.38578644 C6.18461938,6.68695349 7.27194628,6.61339213 8.05256742,7.16510235 Z M24.1,0 C25.1543618,0 26.0181651,0.815877791 26.0945143,1.85073766 L26.1,2 L26.1,15 C26.1,16.1045695 25.2045695,17 24.1,17 C23.0456382,17 22.1818349,16.1841222 22.1054857,15.1492623 L22.1,15 L22.1,2 C22.1,0.8954305 22.9954305,0 24.1,0 Z" id="Combined-Shape" fill="#000000"></path>
    </g>
</svg>