<?xml version="1.0" encoding="UTF-8"?>
<svg width="64px" height="64px" viewBox="0 0 64 64" version="1.1" xmlns="http://www.w3.org/2000/svg" xmlns:xlink="http://www.w3.org/1999/xlink">
    <title>Icon/visible</title>
    <g id="Icon/visible" stroke="none" stroke-width="1" fill="none" fill-rule="evenodd">
        <path d="M32,12.5 C40.0634398,12.5 47.624335,15.9728521 54.4839736,21.7165686 C56.8570214,23.7035704 58.9773253,25.8287318 60.8207532,27.9557639 C61.2522299,28.4536217 61.6483153,28.9286164 62.008031,29.3757177 L62.008031,29.3757177 L62.5202049,30.024821 C62.6472601,30.1891743 62.7577897,30.334648 62.8515254,30.4599049 L62.8515254,30.4599049 L63.1362645,30.8499398 C63.6212452,31.5399529 63.6212452,32.4600471 63.1362645,33.1500602 C63.1201062,33.1730496 63.1020422,33.1984834 63.0820824,33.2263121 L62.9396532,33.4216267 L62.9396532,33.4216267 L62.8515254,33.5400951 L62.5202049,33.975179 C62.0355529,34.6021048 61.4679683,35.2974493 60.8207532,36.0442361 C58.9773253,38.1712682 56.8570214,40.2964296 54.4839736,42.2834314 C47.624335,48.0271479 40.0634398,51.5 32,51.5 C23.9365602,51.5 16.375665,48.0271479 9.51602637,42.2834314 C7.14297857,40.2964296 5.02267467,38.1712682 3.17924683,36.0442361 C2.74777006,35.5463783 2.35168465,35.0713836 1.99196898,34.6242823 L1.99196898,34.6242823 L1.47979507,33.975179 C1.3527399,33.8108257 1.24221028,33.665352 1.14847459,33.5400951 L1.14847459,33.5400951 L0.863735491,33.1500602 C0.378754836,32.4600471 0.378754836,31.5399529 0.863735491,30.8499398 C0.879893763,30.8269504 0.897957784,30.8015166 0.917917615,30.7736879 L1.0603468,30.5783733 L1.0603468,30.5783733 L1.14847459,30.4599049 L1.47979507,30.024821 C1.96444709,29.3978952 2.53203167,28.7025507 3.17924683,27.9557639 C5.02267467,25.8287318 7.14297857,23.7035704 9.51602637,21.7165686 C16.375665,15.9728521 23.9365602,12.5 32,12.5 Z M32,16.5 C25.0134398,16.5 18.286835,19.5896479 12.0839736,24.7834314 C9.88514643,26.6245546 7.91326283,28.6009557 6.20200317,30.5754861 C5.80405286,31.0346595 5.44006882,31.4711232 5.11121389,31.8797799 L5.11121389,31.8797799 L5.015,32 L5.36442363,32.4318468 C5.53759703,32.6429676 5.71948003,32.8607216 5.90992728,33.0844716 L5.90992728,33.0844716 L6.20200317,33.4245139 C7.91326283,35.3990443 9.88514643,37.3754454 12.0839736,39.2165686 C18.286835,44.4103521 25.0134398,47.5 32,47.5 C38.9865602,47.5 45.713165,44.4103521 51.9160264,39.2165686 C54.1148536,37.3754454 56.0867372,35.3990443 57.7979968,33.4245139 C58.1959471,32.9653405 58.5599312,32.5288768 58.8887861,32.1202201 L58.8887861,32.1202201 L58.984,32 L58.6355764,31.5681532 C58.462403,31.3570324 58.28052,31.1392784 58.0900727,30.9155284 L58.0900727,30.9155284 L57.7979968,30.5754861 C56.0867372,28.6009557 54.1148536,26.6245546 51.9160264,24.7834314 C45.713165,19.5896479 38.9865602,16.5 32,16.5 Z M32,19.5 C38.627417,19.5 44,24.872583 44,31.5 C44,38.127417 38.627417,43.5 32,43.5 C25.372583,43.5 20,38.127417 20,31.5 C20,24.872583 25.372583,19.5 32,19.5 Z M32,23.5 C27.581722,23.5 24,27.081722 24,31.5 C24,35.918278 27.581722,39.5 32,39.5 C36.418278,39.5 40,35.918278 40,31.5 C40,27.081722 36.418278,23.5 32,23.5 Z M29.500081,27.7679959 C30.4110899,28.294024 30.7516987,29.4285479 30.3049488,30.361717 L30.2320041,30.500081 C29.8730932,31.1216657 29.8747901,31.887915 30.2364503,32.507904 C30.5702906,33.0802015 31.1635853,33.446858 31.8174037,33.4948006 L31.9820041,33.500081 C33.0865288,33.4901421 33.9899802,34.3774793 33.999919,35.4820041 C34.0098579,36.5865288 33.1225207,37.4899802 32.0179959,37.499919 C29.8647924,37.5192943 27.8663155,36.3833552 26.7813347,34.5233881 C25.6963539,32.663421 25.6912634,30.3646732 26.7679959,28.499919 C27.3203254,27.5433596 28.5435215,27.2156665 29.500081,27.7679959 Z" id="Combined-Shape" fill="#000000"></path>
    </g>
</svg>