<?xml version="1.0" encoding="UTF-8"?>
<svg width="64px" height="64px" viewBox="0 0 64 64" version="1.1" xmlns="http://www.w3.org/2000/svg" xmlns:xlink="http://www.w3.org/1999/xlink">
    <title>Icon/XLSX document</title>
    <g id="Icon/XLSX-document" stroke="none" stroke-width="1" fill="none" fill-rule="evenodd">
        <path d="M38,0 C38.0537518,0 38.1070083,0.00212046669 38.1596905,0.00628231255 C38.1829634,0.00824597658 38.2059969,0.0104961881 38.2289569,0.0131413851 C38.26486,0.0170595479 38.3001843,0.0220581947 38.3351994,0.0279667968 C38.3534687,0.0313787684 38.3725185,0.0348949239 38.3915001,0.0386841376 C38.4251494,0.044992602 38.4577435,0.0523384273 38.4900256,0.0604690626 C38.5125614,0.066641682 38.5356425,0.0729098162 38.5585932,0.07958624 C38.5900059,0.088181388 38.6203739,0.0978129265 38.6504185,0.108140013 C38.6686338,0.114972923 38.6873169,0.121704992 38.7058936,0.128712803 C38.7486001,0.144257831 38.790229,0.161626235 38.831118,0.180332297 C38.8376185,0.183836168 38.8442536,0.18691091 38.8508721,0.190022131 C38.952848,0.237511905 39.0500741,0.293860173 39.141707,0.357681017 C39.1522725,0.365231558 39.1627776,0.372686728 39.1732153,0.380247043 C39.2050277,0.403158762 39.2361728,0.427183524 39.2665709,0.452086089 C39.3179658,0.494232156 39.3671421,0.538714957 39.4142136,0.585786438 L39.3110075,0.489575702 C39.3374748,0.512568354 39.3633318,0.536245166 39.3885511,0.560578607 L39.4142136,0.585786438 L55.4142136,16.5857864 C55.4247925,16.5963654 55.4352408,16.6070507 55.4455572,16.6178398 C55.4630513,16.6361189 55.4805123,16.6550833 55.4976061,16.6743804 C55.515367,16.6944807 55.5324811,16.7146131 55.5491666,16.7350462 C55.5723595,16.7633198 55.5949537,16.7925541 55.6167406,16.8224148 C55.6263063,16.8357738 55.6356473,16.8489344 55.6448221,16.8621978 C55.737667,16.9958418 55.8145259,17.1415568 55.8727303,17.2964029 C55.8774281,17.3104353 55.8826414,17.3247978 55.8876903,17.3392203 C55.9022985,17.3793241 55.9150769,17.4199677 55.9265704,17.4611473 C55.92991,17.4749687 55.9334942,17.4883239 55.9369407,17.5017196 C55.9468206,17.538279 55.9553251,17.5758759 55.9627545,17.6138577 C55.9660398,17.6324998 55.9693245,17.6505272 55.9723627,17.6686102 C55.9788622,17.705655 55.984106,17.7437037 55.9882643,17.782078 C55.9959912,17.854087 56,17.9268368 56,18 L55.9935797,17.838573 C55.9939033,17.8426245 55.9942149,17.8466794 55.9945143,17.8507377 L56,18 L56,62 C56,63.1045695 55.1045695,64 54,64 L54,64 L10,64 C8.8954305,64 8,63.1045695 8,62 L8,62 L8,2 C8,0.8954305 8.8954305,0 10,0 L10,0 L38,0 L38,0 Z M36,4 L12,4 L12,60 L52,60 L52,20 L38,20 C36.9456382,20 36.0818349,19.1841222 36.0054857,18.1492623 L36,18 L36,4 Z M30.984375,32.625 L30.984375,34 L29.8984375,34.1015625 L31.8515625,36.8359375 L33.8046875,34.1015625 L32.7421875,34 L32.7421875,32.625 L37.125,32.625 L37.125,34 L36.1171875,34.1953125 L33.203125,38.1640625 L36.46875,42.4375 L37.5546875,42.6328125 L37.5546875,44 L33,44 L33,42.6328125 L33.9765625,42.5390625 L31.8671875,39.6484375 L29.7109375,42.5390625 L30.6640625,42.6328125 L30.6640625,44 L26.28125,44 L26.28125,42.6328125 L27.2734375,42.4453125 L30.4921875,38.3671875 L27.4609375,34.1953125 L26.5390625,34 L26.5390625,32.625 L30.984375,32.625 Z M40,6.829 L40,16 L49.171,16 L40,6.829 Z" id="Combined-Shape" fill="#000000"></path>
    </g>
</svg>