<?xml version="1.0" encoding="UTF-8"?>
<svg width="64px" height="64px" viewBox="0 0 64 64" version="1.1" xmlns="http://www.w3.org/2000/svg" xmlns:xlink="http://www.w3.org/1999/xlink">
    <title>Icon/Administration</title>
    <g id="Icon/Administration" stroke="none" stroke-width="1" fill="none" fill-rule="evenodd">
        <path d="M62,6 C63.0543618,6 63.9181651,6.81587779 63.9945143,7.85073766 L64,8 L64,56 C64,57.0543618 63.1841222,57.9181651 62.1492623,57.9945143 L62,58 L2,58 C0.945638205,58 0.0818348781,57.1841222 0.00548573643,56.1492623 L0,56 L0,8 C0,6.9456382 0.815877791,6.08183488 1.85073766,6.00548574 L2,6 L62,6 Z M60,22 L4,22 L4,54 L60,54 L60,22 Z M35.4752475,23.5 C36.2549436,23.5 36.8956962,24.0948881 36.9683809,24.85554 L36.9752475,25 L36.975,27.289 L37.1303655,27.3600312 C37.5061594,27.5406815 37.8731061,27.7418429 38.2305485,27.9633534 L38.5847984,28.191641 L38.757,28.311 L40.5514161,27.2594245 C41.1861182,26.8872025 41.9811839,27.034797 42.4446389,27.5715066 L42.5327627,27.683998 L42.6111689,27.8066335 L46.0435121,33.7866335 C46.4428144,34.4823178 46.221756,35.3591769 45.5642968,35.7883794 L45.435954,35.8634553 L43.706,36.764 L43.7282346,37.0106705 L43.7413064,37.2385496 L43.7499786,37.4663738 L43.7541036,37.9214222 L43.7443449,38.3410681 L43.719356,38.7624114 L43.701,38.95 L45.7661586,40.1770927 C46.3851756,40.5448616 46.6445829,41.2897293 46.4210136,41.9478004 L46.3698234,42.0781199 L46.3055346,42.2053001 L42.8731914,48.2719668 C42.4798751,48.9671533 41.617934,49.2251981 40.9144369,48.8837644 L40.7845411,48.8126808 L38.85,47.629 L38.6746147,47.7578658 C38.3068384,48.0161058 37.9239565,48.25364 37.5268135,48.4697276 L37.1249481,48.6786387 L36.889,48.789 L36.8894389,51 C36.8894389,51.7309651 36.3665881,52.3398119 35.6744739,52.4729528 L35.533899,52.4931334 L35.3894389,52.5 L28.5247525,52.5 C27.7450564,52.5 27.1043038,51.9051119 27.0316191,51.14446 L27.0247525,51 L27.024,48.794 L26.830513,48.7042425 C26.4437176,48.5153093 26.0665296,48.3045967 25.6997334,48.0723315 L25.3364302,47.8328904 L25.119,47.678 L23.1561382,48.7604859 C22.5238178,49.1088369 21.7481033,48.9533814 21.294544,48.4245179 L21.2082655,48.3138051 L21.1314054,48.1933665 L17.6990621,42.2133665 C17.312481,41.5398456 17.5061915,40.6914852 18.1249857,40.2482007 L18.2459532,40.1699734 L20.211,39.026 L20.1946878,38.8479804 L20.1805425,38.6401987 L20.1700716,38.4325314 L20.1601734,38.017946 C20.1577286,37.8136174 20.1606193,37.6093364 20.1689977,37.4042397 L20.1857001,37.095875 L20.21,36.807 L18.5123296,35.8351904 C17.8801442,35.4733696 17.610768,34.7208253 17.8353864,34.0551877 L17.8869356,33.9233605 L17.9518911,33.7946999 L21.3842344,27.7280332 C21.7686579,27.0485647 22.6034166,26.7841456 23.3015679,27.0969877 L23.4307271,27.16245 L25.315,28.233 L25.4691681,28.1253159 C25.8153169,27.8921466 26.1744303,27.6771205 26.5460455,27.4807275 L26.9218108,27.2905638 L27.11,27.202 L27.1105611,25 C27.1105611,24.2690349 27.6334119,23.6601881 28.3255261,23.5270472 L28.466101,23.5068666 L28.6105611,23.5 L35.4752475,23.5 Z M33.975,26.5 L30.11,26.5 L30.1105611,28.2066667 C30.1105611,28.7346407 29.8339977,29.215958 29.3952679,29.4851263 L29.2716796,29.5531516 L29.1405657,29.6099111 L28.7858772,29.7435566 C27.9215012,30.0899212 27.1165642,30.5728456 26.4012091,31.1745705 C25.96106,31.5448044 25.3523086,31.6280574 24.833696,31.4006297 L24.6946855,31.3308833 L23.255,30.513 L21.297,33.972 L22.5767793,34.7048096 C23.037221,34.9683357 23.3178742,35.450656 23.33125,35.9675578 L23.3282054,36.10925 L23.3115131,36.2518266 L23.2505164,36.6182536 C23.1847867,37.0696726 23.1544984,37.5256989 23.1600377,37.9907911 C23.1632466,38.5134527 23.2124054,39.0347823 23.3069293,39.5486169 C23.4126347,40.1232341 23.1748969,40.702019 22.707341,41.0379208 L22.58573,41.1166933 L21.043,42.013 L22.999,45.421 L24.5402315,44.5728475 C24.9904934,44.3247941 25.5290504,44.3275365 25.9706644,44.5634568 L26.100055,44.6412106 L26.2225177,44.7328493 L26.5244039,44.984041 C27.2787511,45.584954 28.1253289,46.0569421 29.0305678,46.3811893 C29.5810084,46.5783514 29.9623669,47.0750588 30.0177804,47.6485026 L30.0247525,47.7933333 L30.024,49.5 L33.889,49.5 L33.8894389,47.7933333 C33.8894389,47.2679967 34.1632854,46.7885988 34.5986518,46.5186281 L34.7213083,46.450315 L34.8514677,46.3931237 L35.1910007,46.2629625 C36.122859,45.8844667 36.9848708,45.3487153 37.7401652,44.678231 C38.1958828,44.2736848 38.8462911,44.1880574 39.3865073,44.4483556 L39.5190893,44.5206526 L41.026,45.443 L42.971,42.006 L41.3163496,41.0229073 C40.8664368,40.7556062 40.5943726,40.2778345 40.5828275,39.7675492 L40.5862001,39.6277081 L40.6028637,39.487057 L40.6588417,39.1521747 C40.7200405,38.7394092 40.751896,38.3226963 40.7542052,37.8978617 C40.7601076,37.3256452 40.71091,36.7542154 40.6073137,36.1916634 C40.4965635,35.5902645 40.7620842,34.9871001 41.2681387,34.6602687 L41.3891285,34.589878 L42.663,33.925 L40.763,30.613 L39.4089799,31.4072421 C38.9603687,31.6703309 38.4150685,31.6790443 37.9648156,31.4476994 L37.8327829,31.3711085 L37.7076035,31.2802 L37.4119683,31.0410132 C36.6739817,30.4687567 35.850912,30.0184335 34.9733953,29.7068907 C34.4210611,29.5107966 34.037928,29.0132965 33.9822527,28.4385103 L33.9752475,28.2933333 L33.975,26.5 Z M32,32.5 C35.0375661,32.5 37.5,34.9624339 37.5,38 C37.5,41.0375661 35.0375661,43.5 32,43.5 C28.9624339,43.5 26.5,41.0375661 26.5,38 C26.5,34.9624339 28.9624339,32.5 32,32.5 Z M32,35.5 C30.6192881,35.5 29.5,36.6192881 29.5,38 C29.5,39.3807119 30.6192881,40.5 32,40.5 C33.3807119,40.5 34.5,39.3807119 34.5,38 C34.5,36.6192881 33.3807119,35.5 32,35.5 Z M60,10 L4,10 L4,18 L60,18 L60,10 Z M8,11 C9.65685425,11 11,12.3431458 11,14 C11,15.6568542 9.65685425,17 8,17 C6.34314575,17 5,15.6568542 5,14 C5,12.3431458 6.34314575,11 8,11 Z M15,11 C16.6568542,11 18,12.3431458 18,14 C18,15.6568542 16.6568542,17 15,17 C13.3431458,17 12,15.6568542 12,14 C12,12.3431458 13.3431458,11 15,11 Z M22,11 C23.6568542,11 25,12.3431458 25,14 C25,15.6568542 23.6568542,17 22,17 C20.3431458,17 19,15.6568542 19,14 C19,12.3431458 20.3431458,11 22,11 Z M8,13 C7.44771525,13 7,13.4477153 7,14 C7,14.5522847 7.44771525,15 8,15 C8.55228475,15 9,14.5522847 9,14 C9,13.4477153 8.55228475,13 8,13 Z M15,13 C14.4477153,13 14,13.4477153 14,14 C14,14.5522847 14.4477153,15 15,15 C15.5522847,15 16,14.5522847 16,14 C16,13.4477153 15.5522847,13 15,13 Z M22,13 C21.4477153,13 21,13.4477153 21,14 C21,14.5522847 21.4477153,15 22,15 C22.5522847,15 23,14.5522847 23,14 C23,13.4477153 22.5522847,13 22,13 Z" id="Combined-Shape" fill="#000000"></path>
    </g>
</svg>