<?xml version="1.0" encoding="UTF-8"?>
<svg width="64px" height="64px" viewBox="0 0 64 64" version="1.1" xmlns="http://www.w3.org/2000/svg" xmlns:xlink="http://www.w3.org/1999/xlink">
    <title>Icon/Analytics</title>
    <g id="Icon/Analytics" stroke="none" stroke-width="1" fill="none" fill-rule="evenodd">
        <path d="M2,64 C0.8954305,64 0,63.1045695 0,62 C0,60.9456382 0.815877791,60.0818349 1.85073766,60.0054857 L2,60 L2,50 C2,48.9456382 2.81587779,48.0818349 3.85073766,48.0054857 L4,48 L12,48 C13.0543618,48 13.9181651,48.8158778 13.9945143,49.8507377 L14,50 L14,60 L18,60 L18,36 C18,34.9456382 18.8158778,34.0818349 19.8507377,34.0054857 L20,34 L28,34 C29.0543618,34 29.9181651,34.8158778 29.9945143,35.8507377 L30,36 L30,60 L34,60 L34,42 C34,40.9456382 34.8158778,40.0818349 35.8507377,40.0054857 L36,40 L44,40 C45.0543618,40 45.9181651,40.8158778 45.9945143,41.8507377 L46,42 L46,60 L49.999,60 L50,22 C50,20.9456382 50.8158778,20.0818349 51.8507377,20.0054857 L52,20 L60,20 C61.0543618,20 61.9181651,20.8158778 61.9945143,21.8507377 L62,22 L61.999,60 L62,60 C63.1045695,60 64,60.8954305 64,62 C64,63.0543618 63.1841222,63.9181651 62.1492623,63.9945143 L62,64 L2,64 Z M10,52 L6,52 L6,60 L10,60 L10,52 Z M26,38 L22,38 L22,60 L26,60 L26,38 Z M58,24 L54,24 L53.999,60 L57.999,60 L58,24 Z M42,44 L38,44 L38,60 L42,60 L42,44 Z M56.0266039,0.00017584584 L56.0782916,0.00152345474 L56.0782916,0.00152345474 L56.094,0.002 L56.0976315,0.00234126279 L56.106,0.003 L56.1299372,0.00419932886 L56.1299372,0.00419932886 L56.121,0.004 L56.1940538,0.00929360727 L56.1940538,0.00929360727 C56.2194128,0.011836278 56.2447699,0.0147812195 56.2700739,0.0182104939 C56.3021794,0.0224164827 56.3338707,0.0274830344 56.3653043,0.0332846127 C56.38744,0.0375433983 56.4097658,0.0420613477 56.4320241,0.0469629953 C56.4565432,0.0521807379 56.4809494,0.0580432685 56.5051769,0.0643486335 C56.532433,0.0716051443 56.5597175,0.0793187728 56.5868602,0.0876226054 C56.6124825,0.0953407705 56.6375811,0.10359177 56.6624549,0.112320502 C56.683931,0.119922414 56.7058375,0.128020105 56.7276251,0.136514179 C56.759129,0.148797466 56.7898563,0.161716355 56.8201819,0.175369049 C56.8351601,0.182044502 56.8503416,0.189093824 56.8654509,0.196343931 L56.8813586,0.204170819 C56.9699893,0.247751425 57.0549236,0.297700122 57.1355648,0.353420014 L57.1457206,0.360284841 C57.1583093,0.369102969 57.1708192,0.378082967 57.1832473,0.387224836 C57.2130105,0.409280935 57.2421636,0.431974776 57.2706561,0.455441693 C57.2871983,0.468983775 57.3029316,0.482379377 57.3185031,0.49605786 C57.3420167,0.516736889 57.3655492,0.538384628 57.3885511,0.560578607 C57.397458,0.569175654 57.4058635,0.577436412 57.4142136,0.585786438 L57.4442592,0.616480304 L57.4725555,0.646624828 L57.4725555,0.646624828 L57.461,0.635 L57.49,0.667 L57.5457513,0.730658227 L57.5457513,0.730658227 C57.568358,0.758289195 57.5903515,0.78654239 57.6115891,0.815386365 L57.64177,0.857218519 L57.64177,0.857218519 C57.7005046,0.941680962 57.7532703,1.03128024 57.7989312,1.12497839 L57.8036561,1.13454909 C57.8123247,1.15261457 57.8207062,1.1707833 57.8288008,1.18904844 C57.8409147,1.21643024 57.8523866,1.24391177 57.8632549,1.2716958 C57.8696778,1.28823114 57.8760266,1.30516996 57.8821379,1.322175 C57.8951801,1.35817716 57.9071148,1.39456752 57.9180174,1.43140117 L57.9286095,1.46910581 L57.9286095,1.46910581 C57.9385528,1.50471437 57.9473709,1.54071436 57.9552,1.57708189 C57.9591538,1.59627488 57.9630158,1.61558749 57.9665909,1.63494269 C57.972791,1.66762727 57.9780404,1.70069615 57.9824691,1.73402429 C57.9851739,1.75525184 57.9876752,1.7766031 57.9898331,1.79798248 C57.991692,1.81562918 57.9932168,1.8331518 57.9945143,1.85073766 L57.9969425,1.88910982 C57.9980677,1.90949812 57.9988824,1.92990035 57.9993864,1.95030883 L58,2 L58,10 C58,11.1045695 57.1045695,12 56,12 C54.9456382,12 54.0818349,11.1841222 54.0054857,10.1492623 L54,10 L54,6.828 L39.4142136,21.4142136 C38.8460744,21.9823527 37.9981149,22.1516871 37.2615586,21.8587299 L37.1055728,21.7888544 L26.316,16.394 L9.32872768,31.4948186 C8.54661296,32.1900317 7.37087036,32.159882 6.62531595,31.4528291 L6.50518136,31.3287277 C5.80996828,30.546613 5.84011804,29.3708704 6.54717087,28.6253159 L6.67127232,28.5051814 L24.6712723,12.5051814 C25.2417613,11.99808 26.0467601,11.8628339 26.7462706,12.1444113 L26.8944272,12.2111456 L37.604,17.566 L51.17,4 L48,4 C46.9456382,4 46.0818349,3.18412221 46.0054857,2.14926234 L46,2 C46,0.945638205 46.8158778,0.0818348781 47.8507377,0.00548573643 L48,0 L56.0266039,0.00017584584 Z" id="Combined-Shape" fill="#000000"></path>
    </g>
</svg>