<?xml version="1.0" encoding="UTF-8"?>
<svg width="64px" height="64px" viewBox="0 0 64 64" version="1.1" xmlns="http://www.w3.org/2000/svg" xmlns:xlink="http://www.w3.org/1999/xlink">
    <title>Icon/calendar</title>
    <g id="Icon/calendar" stroke="none" stroke-width="1" fill="none" fill-rule="evenodd">
        <path d="M46.5,0 C47.5543618,0 48.4181651,0.815877791 48.4945143,1.85073766 L48.5,2 L48.5,6 L62,6 C63.0543618,6 63.9181651,6.81587779 63.9945143,7.85073766 L64,8 L64,62 C64,63.0543618 63.1841222,63.9181651 62.1492623,63.9945143 L62,64 L2,64 C0.945638205,64 0.0818348781,63.1841222 0.00548573643,62.1492623 L0,62 L0,8 C0,6.9456382 0.815877791,6.08183488 1.85073766,6.00548574 L2,6 L16.5,6 L16.5,2 C16.5,0.8954305 17.3954305,0 18.5,0 C19.5543618,0 20.4181651,0.815877791 20.4945143,1.85073766 L20.5,2 L20.5,6 L44.5,6 L44.5,2 C44.5,0.8954305 45.3954305,0 46.5,0 Z M60,25 L4,25 L4,60 L60,60 L60,25 Z M60,10 L48.5,10 L48.5,16 C48.5,17.1045695 47.6045695,18 46.5,18 C45.4456382,18 44.5818349,17.1841222 44.5054857,16.1492623 L44.5,16 L44.5,10 L20.5,10 L20.5,16 C20.5,17.1045695 19.6045695,18 18.5,18 C17.4456382,18 16.5818349,17.1841222 16.5054857,16.1492623 L16.5,16 L16.5,10 L4,10 L4,21 L60,21 L60,10 Z M16,47 C14.3431458,47 13,48.3431458 13,50 C13,51.6568542 14.3431458,53 16,53 C17.6568542,53 19,51.6568542 19,50 C19,48.3431458 17.6568542,47 16,47 Z M32,47 C30.3431458,47 29,48.3431458 29,50 C29,51.6568542 30.3431458,53 32,53 C33.6568542,53 35,51.6568542 35,50 C35,48.3431458 33.6568542,47 32,47 Z M47,47 C45.3431458,47 44,48.3431458 44,50 C44,51.6568542 45.3431458,53 47,53 C48.6568542,53 50,51.6568542 50,50 C50,48.3431458 48.6568542,47 47,47 Z M16,33 C14.3431458,33 13,34.3431458 13,36 C13,37.6568542 14.3431458,39 16,39 C17.6568542,39 19,37.6568542 19,36 C19,34.3431458 17.6568542,33 16,33 Z M32,33 C30.3431458,33 29,34.3431458 29,36 C29,37.6568542 30.3431458,39 32,39 C33.6568542,39 35,37.6568542 35,36 C35,34.3431458 33.6568542,33 32,33 Z M47,33 C45.3431458,33 44,34.3431458 44,36 C44,37.6568542 45.3431458,39 47,39 C48.6568542,39 50,37.6568542 50,36 C50,34.3431458 48.6568542,33 47,33 Z" id="Combined-Shape" fill="#000000"></path>
    </g>
</svg>