<?xml version="1.0" encoding="UTF-8"?>
<svg width="64px" height="64px" viewBox="0 0 64 64" version="1.1" xmlns="http://www.w3.org/2000/svg" xmlns:xlink="http://www.w3.org/1999/xlink">
    <title>Icon/close big</title>
    <g id="Icon/close-big" stroke="none" stroke-width="1" fill="none" fill-rule="evenodd">
        <path d="M13.2888518,9.46898294 L13.4160639,9.58581858 L32.001,28.172 L50.5858507,9.58935819 C51.3669348,8.80834511 52.6332648,8.80840267 53.4142778,9.58948675 C54.154185,10.3294611 54.1930758,11.5049471 53.5309878,12.2907044 L53.4141493,12.4179139 L34.83,31 L53.4142457,49.5858186 C54.1952765,50.3668849 54.1952478,51.6332149 53.4141814,52.4142457 C52.6742238,53.1541696 51.4987388,53.1930872 50.7129664,52.5310171 L50.5857543,52.4141814 L32.001,33.829 L13.4141493,52.4142778 C12.6330652,53.1952909 11.3667352,53.1952334 10.5857222,52.4141493 C9.84581503,51.6741749 9.80692421,50.498689 10.4690122,49.7129316 L10.5858507,49.5857222 L29.173,31 L10.5875725,12.4141814 C9.80654165,11.6331151 9.80657043,10.3667851 10.5876368,9.5857543 C11.2864856,8.88693724 12.3738142,8.81340059 13.1544228,9.36512855 L13.2888518,9.46898294 Z" id="Shape" fill="#000000"></path>
    </g>
</svg>