<?xml version="1.0" encoding="UTF-8"?>
<svg width="64px" height="64px" viewBox="0 0 64 64" version="1.1" xmlns="http://www.w3.org/2000/svg" xmlns:xlink="http://www.w3.org/1999/xlink">
    <title>Icon/cloud</title>
    <g id="Icon/cloud" stroke="none" stroke-width="1" fill="none" fill-rule="evenodd">
        <path d="M29.9202043,12.230159 C22.4698303,13.3943977 16.4636447,18.8235173 14.4816269,25.9819464 L14.4358518,26.1504935 L14.2436794,26.1312842 C10.0927156,25.7514775 5.94966186,27.3810253 3.16715084,30.6088995 C-0.127928014,34.4313822 -0.92485373,39.8106308 1.12042811,44.4242779 C3.16570995,49.0379251 7.68686381,52.059609 12.7319851,52.1847869 L48.9358251,52.1854048 C57.2555392,52.1854048 64,45.440944 64,37.1212299 L63.9967685,36.8060591 C63.8354543,28.9462433 57.6543466,22.5651746 49.8765427,22.0859501 L49.6900381,22.0751321 L49.5830772,21.8753587 C45.8062111,15.0119069 38.1590278,11.1041043 30.2939145,12.1755129 L29.9202043,12.230159 Z M46.6025978,24.8910909 C46.9272302,25.6111947 47.64379,26.0741684 48.4336859,26.0741684 L48.9358251,26.0741684 C55.0369488,26.0741684 59.9828867,31.0201063 59.9828867,37.1212299 C59.9828867,43.2223536 55.0369488,48.1682915 48.9358251,48.1682915 L12.7818054,48.1682915 C9.3388494,48.0822479 6.20881981,45.9903129 4.79285545,42.7962495 C3.3768911,39.602186 3.92860891,35.8780909 6.20981734,33.2317567 C8.49102578,30.5854226 12.0931319,29.490841 15.4610089,30.4205725 C16.619572,30.7404039 17.7977873,29.9779579 17.9806655,28.7900538 C18.9957018,22.1967819 24.2262298,17.0562847 30.8361297,16.1558649 C37.4460296,15.2554451 43.8609634,18.8095636 46.6025978,24.8910909 Z" id="Path" fill="#000000"></path>
    </g>
</svg>