<?xml version="1.0" encoding="UTF-8"?>
<svg width="64px" height="64px" viewBox="0 0 64 64" version="1.1" xmlns="http://www.w3.org/2000/svg" xmlns:xlink="http://www.w3.org/1999/xlink">
    <title>Icon/cloud-upload</title>
    <g id="Icon/cloud-upload" stroke="none" stroke-width="1" fill="none" fill-rule="evenodd">
        <path d="M31.7273536,28.014211 L31.8298913,28.016794 L31.9894035,28.0313505 L32.1463237,28.0583449 L32.2030549,28.0711502 L32.259365,28.0857443 C32.3669824,28.1153666 32.4709672,28.153756 32.5705031,28.200096 L32.6658809,28.2476333 L32.7614756,28.301767 L32.8983679,28.3925087 L33.0395005,28.5047773 L33.1415672,28.5999974 L41.1415672,36.5999974 C41.9226158,37.381046 41.9226158,38.647376 41.1415672,39.4284245 C40.4016264,40.1683653 39.2261422,40.2073096 38.4403548,39.5452573 L38.31314,39.4284245 L33.7273536,34.843211 L33.7273536,52.014211 C33.7273536,53.1187805 32.8319231,54.014211 31.7273536,54.014211 C30.6729918,54.014211 29.8091885,53.1983332 29.7328393,52.1634733 L29.7273536,52.014211 L29.7273536,34.843211 L25.1415672,39.4284245 C24.4016264,40.1683653 23.2261422,40.2073096 22.4403548,39.5452573 L22.31314,39.4284245 C21.5731993,38.6884838 21.534255,37.5129996 22.1963073,36.7272122 L22.31314,36.5999974 L30.31314,28.5999974 C30.362224,28.5509135 30.4132245,28.5049141 30.4659007,28.4619994 L30.5953733,28.3649568 L30.7112776,28.2910051 L30.8648598,28.209139 L31.0113072,28.1461958 L31.1635627,28.0947771 L31.2355864,28.0751195 L31.4147719,28.0385163 L31.5669867,28.0205591 L31.7273536,28.014211 Z M49.3718483,19.8332887 L49.4783536,20.032211 L49.6640636,20.0429829 C57.4087333,20.5201659 63.5635089,26.8740506 63.7241358,34.7003828 L63.7273536,35.014211 C63.7273536,43.193618 57.1805672,49.8439412 49.0411818,50.0109932 L48.7273536,50.014211 L41.7273536,50.014211 C40.6227841,50.014211 39.7273536,49.1187805 39.7273536,48.014211 C39.7273536,46.9598492 40.5432314,46.0960459 41.5780913,46.0196967 L41.7273536,46.014211 L48.7273536,46.014211 C54.8024859,46.014211 59.7273536,41.0893432 59.7273536,35.014211 C59.7273536,29.0355094 54.95759,24.1708458 49.0157611,24.0179184 L48.7273536,24.014211 L48.2273536,24.014211 C47.4408226,24.014211 46.7273156,23.5532096 46.404066,22.8361736 C43.6741113,16.7805542 37.2865058,13.2415765 30.7047647,14.1381605 C24.1230236,15.0347444 18.9147782,20.1533426 17.904066,26.7185265 C17.7219669,27.90137 16.548771,28.6605679 15.3951435,28.342099 C12.041614,27.4163283 8.45485316,28.5062468 6.1833629,31.1413073 C3.91187264,33.7763678 3.36250521,37.484598 4.77243741,40.6650544 C6.14208584,43.7546406 9.12236137,45.8086082 12.4342959,46.0019968 L12.7273536,46.014211 L21.7273536,46.014211 C22.8319231,46.014211 23.7273536,46.9096415 23.7273536,48.014211 C23.7273536,49.0685728 22.9114758,49.9323761 21.876616,50.0087253 L21.7273536,50.014211 L12.6777456,50.0135957 C7.65411701,49.8889511 3.15222371,46.8801399 1.11565498,42.2861473 C-0.92091376,37.6921547 -0.127383028,32.3358222 3.15365846,28.5296238 C5.92431571,25.3155006 10.0497197,23.6928948 14.1829999,24.0710836 L14.3743536,24.090211 L14.4199337,23.9223819 C16.393508,16.7944485 22.3741066,11.3884575 29.7927412,10.2291785 L30.1648594,10.1747652 C37.9964665,9.10792086 45.611072,12.9990759 49.3718483,19.8332887 Z" id="Combined-Shape" fill="#000000"></path>
    </g>
</svg>