<?xml version="1.0" encoding="UTF-8"?>
<svg width="64px" height="64px" viewBox="0 0 64 64" version="1.1" xmlns="http://www.w3.org/2000/svg" xmlns:xlink="http://www.w3.org/1999/xlink">
    <title>Icon/component</title>
    <g id="Icon/component" stroke="none" stroke-width="1" fill="none" fill-rule="evenodd">
        <path d="M32,3 C36.8241651,3 41,5.38619138 41,9 C41,9.78709847 40.8019061,10.515961 40.442165,11.1746171 L46.2461302,13.8578797 C47.6416382,13.3034757 49.2795918,13 51,13 C55.8241651,13 60,15.3861914 60,19 C60,19.397678 59.949432,19.78049 59.8529966,20.146892 L62.8390115,21.5274096 L62.941,21.578 L63.0010013,21.6112945 L63.0010013,21.6112945 C63.0202484,21.6225457 63.0396365,21.6342046 63.0588243,21.6461833 C63.0825046,21.6606859 63.1050435,21.675367 63.1272056,21.6904454 L63.1577094,21.7120035 L63.1577094,21.7120035 C63.2397869,21.7697883 63.3157799,21.8328062 63.3862314,21.9005066 C63.7050091,22.2050313 63.9270058,22.6170165 63.9849824,23.0934319 C63.9882603,23.1218933 63.9912993,23.1508945 63.9937035,23.1799834 L63.9979103,23.243018 L63.9984113,23.2610776 L63.9984113,23.2610776 L63.9993676,23.2775884 L63.9993676,23.2775884 L63.999,23.292 L64.000225,23.312219 L64.000225,23.312219 L64,45.1333558 C64,45.8603661 63.6060421,46.5256446 62.9789246,46.8774329 L62.8410321,46.947926 L32.9230321,60.8145702 C32.6497017,60.9412557 32.3548838,61.003035 32.060584,60.9998854 L32,61 L32,61 C31.5702135,61 31.1720902,60.8644339 30.8460586,60.6337301 L1.16274764,46.9496731 C0.50122993,46.6447389 0.0616628901,46.0066564 0.0059940301,45.2884023 L0,45.1333558 L0.000469762557,23.2984321 L0.000469762557,23.2984321 C0.000706788985,23.2695058 0.00200958602,23.2404731 0.00394142369,23.2115194 C0.00527704496,23.1932881 0.00665660497,23.1752532 0.00826768117,23.157305 C0.0110704758,23.1278842 0.0144923022,23.0985366 0.018556666,23.0693061 C0.0800160951,22.6063232 0.297475882,22.2051553 0.607750102,21.9061938 L0.645960026,21.8702543 L0.645960026,21.8702543 C0.670055346,21.8482952 0.694174053,21.8272771 0.718765549,21.8068491 C0.764153406,21.7687229 0.811972753,21.7323738 0.861716509,21.6980373 L0.868627511,21.6936058 C0.895784651,21.6748287 0.917878173,21.6604492 0.940328446,21.646465 C0.961009776,21.6338012 0.981057813,21.6217607 1.00130967,21.6100683 L1.02149011,21.5985197 L1.02149011,21.5985197 L1.0481851,21.5838241 C1.07808704,21.5675981 1.10840382,21.5521189 1.13910434,21.5374063 L1.16084073,21.5274779 L4.1470034,20.146892 C4.05056805,19.78049 4,19.397678 4,19 C4,15.3861914 8.17583492,13 13,13 C14.7204082,13 16.3583618,13.3034757 17.7538698,13.8578797 L23.557835,11.1746171 C23.1980939,10.515961 23,9.78709847 23,9 C23,5.38619138 27.1758349,3 32,3 Z M60,26.475 L34,38.533 L34,55.905 L60,43.855 L60,26.475 Z M4,26.475 L4,43.853 L30,55.837 L30,38.534 L4,26.475 Z M26.9449202,14.0169181 L21.3209312,16.6159728 C21.7571534,17.328424 22,18.1285158 22,19 C22,22.6138086 17.8241651,25 13,25 C11.6401993,25 10.3319099,24.8104117 9.15413181,24.457182 L32,35.052 L54.8438616,24.4577836 C53.6666042,24.810627 52.3590285,25 51,25 C46.1758349,25 42,22.6138086 42,19 C42,18.1285158 42.2428466,17.328424 42.6790688,16.6159728 L37.0550798,14.0169181 C35.596689,14.6506743 33.8458006,15 32,15 C30.1541994,15 28.403311,14.6506743 26.9449202,14.0169181 Z M32,19 C36.8241651,19 41,21.3861914 41,25 C41,28.6138086 36.8241651,31 32,31 C27.1758349,31 23,28.6138086 23,25 C23,21.3861914 27.1758349,19 32,19 Z M32,23 C30.4522248,23 29.0301448,23.3437081 28.0425304,23.9080592 C27.3052184,24.3293803 27,24.7417331 27,25 C27,25.2582669 27.3052184,25.6706197 28.0425304,26.0919408 C29.0301448,26.6562919 30.4522248,27 32,27 C33.5477752,27 34.9698552,26.6562919 35.9574696,26.0919408 C36.6947816,25.6706197 37,25.2582669 37,25 C37,24.7417331 36.6947816,24.3293803 35.9574696,23.9080592 C34.9698552,23.3437081 33.5477752,23 32,23 Z M13,17 C11.4522248,17 10.0301448,17.3437081 9.04253041,17.9080592 C8.30521838,18.3293803 8,18.7417331 8,19 C8,19.2582669 8.30521838,19.6706197 9.04253041,20.0919408 C10.0301448,20.6562919 11.4522248,21 13,21 C14.5477752,21 15.9698552,20.6562919 16.9574696,20.0919408 C17.6947816,19.6706197 18,19.2582669 18,19 C18,18.8096805 17.8342553,18.5356867 17.4519942,18.2360902 C16.7856932,18.2612839 16.1366124,17.9510266 15.742637,17.3934524 C14.9357649,17.1416985 13.9937923,17 13,17 Z M51,17 C49.9932761,17 49.0397292,17.1454101 48.2243248,17.4023661 C47.8364411,17.9410098 47.2078254,18.242981 46.5606394,18.2283066 C46.1689588,18.5303913 46,18.8078441 46,19 C46,19.2582669 46.3052184,19.6706197 47.0425304,20.0919408 C48.0301448,20.6562919 49.4522248,21 51,21 C52.5477752,21 53.9698552,20.6562919 54.9574696,20.0919408 C55.6947816,19.6706197 56,19.2582669 56,19 C56,18.7417331 55.6947816,18.3293803 54.9574696,17.9080592 C53.9698552,17.3437081 52.5477752,17 51,17 Z M32,7 C30.4522248,7 29.0301448,7.34370805 28.0425304,7.90805916 C27.3052184,8.32938032 27,8.74173306 27,9 C27,9.25826694 27.3052184,9.67061968 28.0425304,10.0919408 C29.0301448,10.6562919 30.4522248,11 32,11 C33.5477752,11 34.9698552,10.6562919 35.9574696,10.0919408 C36.6947816,9.67061968 37,9.25826694 37,9 C37,8.74173306 36.6947816,8.32938032 35.9574696,7.90805916 C34.9698552,7.34370805 33.5477752,7 32,7 Z" id="Combined-Shape" fill="#000000"></path>
    </g>
</svg>