<?xml version="1.0" encoding="UTF-8"?>
<svg width="64px" height="64px" viewBox="0 0 64 64" version="1.1" xmlns="http://www.w3.org/2000/svg" xmlns:xlink="http://www.w3.org/1999/xlink">
    <title>Icon/Compliance</title>
    <g id="Icon/Compliance" stroke="none" stroke-width="1" fill="none" fill-rule="evenodd">
        <path d="M64,32 C64,38.627417 58.627417,44 52,44 C45.372583,44 40,38.627417 40,32 L40.0000306,31.9552369 C40.0029555,31.8204605 40.0195923,31.6849828 40.0506179,31.5508337 C40.0574585,31.5211458 40.0647845,31.4922729 40.0727306,31.463658 C40.081527,31.4326318 40.0912415,31.4008826 40.1017927,31.3692614 C40.1302937,31.2826055 40.1646083,31.1991003 40.2041708,31.1186414 L40.2111456,31.1055728 L48.764,14 L37.6587023,13.9996782 C37.0562324,15.7045335 35.7051297,17.0557853 34.00037,17.6584578 L34,54 L42,54 C43.1045695,54 44,54.8954305 44,56 C44,57.0543618 43.1841222,57.9181651 42.1492623,57.9945143 L42,58 L22,58 C20.8954305,58 20,57.1045695 20,56 C20,54.9456382 20.8158778,54.0818349 21.8507377,54.0054857 L22,54 L30,54 L29.99963,17.6584578 C28.2952062,17.055904 26.9443001,15.705066 26.3416539,14.0006859 L15.2356649,14 L23.7888544,31.1055728 L23.7955801,31.1181349 C23.8318852,31.1919164 23.8637766,31.2682609 23.8909099,31.3468241 C23.8969251,31.3651543 23.9028136,31.3829543 23.9084382,31.4007919 C23.9159309,31.4238551 23.922966,31.4478245 23.9295598,31.4719761 C23.9367665,31.4986747 23.9434156,31.5250018 23.9495084,31.5513801 C23.9535013,31.5688896 23.9572809,31.5864706 23.9608277,31.6041358 C23.986479,31.7303767 23.9994135,31.857145 24.0003796,31.9831763 L24,32 L24,32 C24,38.627417 18.627417,44 12,44 C8.81740212,44 5.76515517,42.7357179 3.51471863,40.4852814 C1.26428208,38.2348448 -1.08420217e-19,35.1825979 -1.08420217e-19,32 L3.06212033e-05,31.9552369 C0.00295545763,31.8204605 0.0195923287,31.6849828 0.0506178677,31.5508337 C0.0574585267,31.5211458 0.0647844857,31.4922729 0.0727306199,31.463658 C0.0815269607,31.4326318 0.0912414933,31.4008826 0.101792675,31.3692614 C0.130293713,31.2826055 0.164608283,31.1991003 0.204170819,31.1186414 L0.211145618,31.1055728 L10.2111456,11.1055728 L10.2239263,11.0801518 C10.2406927,11.0477139 10.2583581,11.0157073 10.2769086,10.9841735 L10.2111456,11.1055728 C10.2387757,11.0503127 10.2687586,10.9967126 10.3009378,10.9448692 C10.3174265,10.9177646 10.3351265,10.8906706 10.3535018,10.8639867 C10.3668822,10.8451574 10.3801962,10.8265513 10.3938032,10.8082082 C10.4157088,10.7780147 10.4387801,10.748627 10.4627184,10.7198498 C10.4683111,10.7138211 10.473317,10.7078832 10.4783551,10.7019772 C10.506413,10.6683443 10.5363615,10.6354715 10.5674952,10.6035367 C10.5725289,10.5990743 10.5769686,10.5945658 10.5814286,10.5900796 L10.6070935,10.5640484 C10.6272633,10.5444936 10.6478967,10.5253205 10.6689876,10.5065467 C10.6819791,10.4955967 10.6944243,10.4847874 10.7069959,10.4741378 C10.742458,10.4435628 10.779543,10.4143648 10.8178481,10.3863727 C10.8198625,10.3852814 10.8218368,10.3838406 10.8238137,10.3824035 C10.8499538,10.363081 10.8764396,10.3448342 10.9034718,10.3271628 C10.9222792,10.3150612 10.9411879,10.3031157 10.9602919,10.2914897 C10.9752245,10.282297 10.9903757,10.273368 11.005683,10.2646155 C11.0374585,10.2464725 11.0696152,10.2291968 11.1022376,10.2128048 C11.1035131,10.2121766 11.1045426,10.2116607 11.1055728,10.2111456 L11.1269296,10.2006095 C11.1641063,10.1825652 11.2018676,10.1656594 11.2401614,10.1499246 L11.1055728,10.2111456 C11.1725727,10.1776457 11.240554,10.1482593 11.3092295,10.1228907 C11.3362734,10.1130644 11.3640372,10.1035214 11.3920333,10.094585 C11.4774875,10.0669728 11.5637004,10.0456924 11.6502553,10.030286 C11.6645033,10.0282256 11.679233,10.0257778 11.6940048,10.0234934 C11.73079,10.017303 11.7674525,10.0126732 11.8041191,10.0090732 C11.8153069,10.0084828 11.8270276,10.0074331 11.8387695,10.0064861 C11.9145196,10.0002151 11.980881,9.99854382 12.0469612,10.0001524 L26.3412977,10.0003218 C27.1648796,7.66976896 29.3874421,6 32,6 C34.6121813,6 36.8344797,7.66928766 37.6583461,9.99931412 L51.9796407,9.99968236 L52.1462311,10.0048267 L52.342964,10.0295663 L52.408108,10.0416349 L52.5610384,10.0799884 L52.7275326,10.1368974 L52.8173641,10.1746126 L52.9961899,10.2657532 L53.1091224,10.335712 L53.2271504,10.4207073 L53.369506,10.5418101 L53.4328373,10.6045762 L53.5279597,10.7088263 L53.6290694,10.8396782 C53.6837515,10.9159327 53.7328939,10.9966119 53.7760737,11.0801518 L63.7888544,31.1055728 L63.7955801,31.1181349 C63.8318852,31.1919164 63.8637766,31.2682609 63.8909099,31.3468241 C63.8969251,31.3651543 63.9028136,31.3829543 63.9084382,31.4007919 C63.9159309,31.4238551 63.922966,31.4478245 63.9295598,31.4719761 C63.9367665,31.4986747 63.9434156,31.5250018 63.9495084,31.5513801 C63.9535013,31.5688896 63.9572809,31.5864706 63.9608277,31.6041358 C63.986479,31.7303767 63.9994135,31.857145 64.0003796,31.9831763 L64,32 L64,32 Z M19.747,34 L4.255,34 L4.27408423,34.0761858 C4.58125112,35.2190852 5.13992442,36.2859532 5.91622287,37.1949935 L6.13331084,37.438939 L6.34314575,37.6568542 C7.84343678,39.1571453 9.87826808,40 12,40 C15.5785409,40 18.6082984,37.6503793 19.6307021,34.4097085 L19.7035958,34.1650102 L19.747,34 Z M59.747,34 L44.252,34 L44.2964042,34.1650102 C45.1954399,37.3705636 48.0414467,39.7620258 51.4782883,39.9832608 L51.7508207,39.9961932 L52,40 C55.5785409,40 58.6082984,37.6503793 59.6307021,34.4097085 L59.7035958,34.1650102 L59.747,34 Z M52,16.471 L45.2356649,30 L58.7636649,30 L52,16.471 Z M11.9996649,16.471 L5.23566489,30 L18.7636649,30 L11.9996649,16.471 Z M32,10 C30.8954305,10 30,10.8954305 30,12 C30,13.1045695 30.8954305,14 32,14 C33.1045695,14 34,13.1045695 34,12 C34,10.8954305 33.1045695,10 32,10 Z" id="Combined-Shape" fill="#000000"></path>
    </g>
</svg>