<?xml version="1.0" encoding="UTF-8"?>
<svg width="64px" height="64px" viewBox="0 0 64 64" version="1.1" xmlns="http://www.w3.org/2000/svg" xmlns:xlink="http://www.w3.org/1999/xlink">
    <title>Icon/Compare</title>
    <g id="Icon/Compare" stroke="none" stroke-width="1" fill="none" fill-rule="evenodd">
        <path d="M50.3739436,30.3370605 L50.4658209,30.421034 L60.3224758,40.2303522 C60.6960713,40.4741121 60.9545731,40.8894576 60.9945822,41.3694243 L60.9994807,41.4589771 L60.9994807,41.4589771 L60.9985193,41.52 L60.9920969,41.6575546 C60.945074,42.1235758 60.6917881,42.5261319 60.3283583,42.7657892 L50.4658209,52.578966 C49.9017303,53.1403447 48.9871586,53.1403447 48.423068,52.578966 C47.8886663,52.0471336 47.8605399,51.2022543 48.3386888,50.6374696 L48.423068,50.546034 L56.0051818,42.9992727 L33.45,43 C32.6491871,43 32,42.3284271 32,41.5 C32,40.7092287 32.5915114,40.0613762 33.3417848,40.0041143 L33.45,40 L56.0051818,39.9992727 L48.423068,32.453966 C47.8886663,31.9221336 47.8605399,31.0772543 48.3386888,30.5124696 L48.423068,30.421034 C48.9574696,29.8892016 49.8064304,29.8612104 50.3739436,30.3370605 Z M15.576932,13.421034 C16.1113337,13.9528664 16.1394601,14.7977457 15.6613112,15.3625304 L15.576932,15.453966 L7.99481818,23.0007273 L30.55,23 C31.3508129,23 32,23.6715729 32,24.5 C32,25.2907713 31.4084886,25.9386238 30.6582152,25.9958857 L30.55,26 L7.99481818,26.0007273 L15.576932,33.546034 C16.1113337,34.0778664 16.1394601,34.9227457 15.6613112,35.4875304 L15.576932,35.578966 C15.0425304,36.1107984 14.1935696,36.1387896 13.6260564,35.6629395 L13.5341791,35.578966 L3.67752422,25.7696478 C3.30392873,25.5258879 3.04542692,25.1105424 3.00541779,24.6305757 L3.00051934,24.5410229 L3.00051934,24.5410229 L3,24.5 C3,23.9678922 3.26783082,23.5004967 3.67164171,23.2342108 L13.5341791,13.421034 C14.0982697,12.8596553 15.0128414,12.8596553 15.576932,13.421034 Z" id="Combined-Shape" stroke="#000000" fill="#1B2022"></path>
    </g>
</svg>