<?xml version="1.0" encoding="UTF-8"?>
<svg width="64px" height="64px" viewBox="0 0 64 64" version="1.1" xmlns="http://www.w3.org/2000/svg" xmlns:xlink="http://www.w3.org/1999/xlink">
    <title>Icon/dashboard</title>
    <g id="Icon/dashboard" stroke="none" stroke-width="1" fill="none" fill-rule="evenodd">
        <path d="M62.0024414,34 C63.0568032,34 63.9206065,34.8158778 63.9969557,35.8507377 L64.0024414,36 L64.0024414,62 C64.0024414,63.0543618 63.1865636,63.9181651 62.1517038,63.9945143 L62.0024414,64 L2,64 C0.945638205,64 0.0818348781,63.1841222 0.00548573643,62.1492623 L-1.5187851e-12,62 L-1.5187851e-12,36 C-1.5187851e-12,34.9456382 0.815877791,34.0818349 1.85073766,34.0054857 L2,34 L62.0024414,34 Z M60.0024414,38 L4,38 L4,60 L60.0024414,60 L60.0024414,38 Z M28,0 L2,0 C0.8954305,0 -1.5187851e-12,0.8954305 -1.5187851e-12,2 L-1.5187851e-12,28 C-1.5187851e-12,29.1045695 0.8954305,30 2,30 L28,30 C29.1045695,30 30,29.1045695 30,28 L30,2 C30,0.8954305 29.1045695,0 28,0 Z M26,4 L26,26 L4,26 L4,4 L26,4 Z M62,0 C63.0543618,0 63.9181651,0.815877791 63.9945143,1.85073766 L64,2 L64,28 C64,29.0543618 63.1841222,29.9181651 62.1492623,29.9945143 L62,30 L36,30 C34.9456382,30 34.0818349,29.1841222 34.0054857,28.1492623 L34,28 L34,2 C34,0.945638205 34.8158778,0.0818348781 35.8507377,0.00548573643 L36,0 L62,0 Z M60,4 L38,4 L38,26 L60,26 L60,4 Z" id="Combined-Shape" fill="#000000"></path>
    </g>
</svg>