<?xml version="1.0" encoding="UTF-8"?>
<svg width="64px" height="64px" viewBox="0 0 64 64" version="1.1" xmlns="http://www.w3.org/2000/svg" xmlns:xlink="http://www.w3.org/1999/xlink">
    <title>Icon/density display</title>
    <g id="Icon/density-display" stroke="none" stroke-width="1" fill="none" fill-rule="evenodd">
        <path d="M42.6712723,14.5051814 C43.453387,13.8099683 44.6291296,13.840118 45.3746841,14.5471709 L45.4948186,14.6712723 L49.9999786,19.741 L50,2 C50,0.8954305 50.8954305,0 52,0 C53.0543618,0 53.9181651,0.815877791 53.9945143,1.85073766 L54,2 L53.9999786,19.741 L58.5051814,14.6712723 C59.2003944,13.8891576 60.3715633,13.7812537 61.1948718,14.3960205 L61.3287277,14.5051814 C62.0673916,15.1617715 62.204676,16.2429024 61.6997575,17.054574 L61.6039795,17.1948718 L61.4948186,17.3287277 L53.5178131,26.3024536 C53.4778558,26.3489748 53.4357966,26.3936382 53.3917826,26.4362964 L53.4948186,26.3287277 C53.4478414,26.3815771 53.3987621,26.4313058 53.347829,26.4779139 C53.3282384,26.4955182 53.3081994,26.5130928 53.2878124,26.5302675 C53.2648552,26.5500652 53.2415088,26.5688906 53.2178436,26.5871128 C53.2034389,26.5976615 53.1888136,26.6085917 53.1740357,26.6193244 C53.149977,26.6373884 53.1255659,26.6543084 53.1008689,26.6706224 C52.976149,26.7523451 52.8422858,26.8208373 52.7008265,26.8737694 C52.6875903,26.8788728 52.6746911,26.8835269 52.6617543,26.8880444 C52.627481,26.8999462 52.5923727,26.9111788 52.5568576,26.9214534 C52.5394311,26.9264796 52.5217994,26.9313038 52.5041167,26.9358826 C52.4715991,26.9443692 52.4388487,26.9519954 52.4058004,26.9588063 C52.3915674,26.961643 52.3772246,26.9644325 52.3628582,26.9670643 C52.3288516,26.9733995 52.2944518,26.9787856 52.2597733,26.9832834 C52.2380872,26.9860127 52.2163791,26.9884753 52.1946428,26.9905838 C52.168419,26.9931829 52.1420043,26.9952121 52.1154509,26.9967234 C52.0871543,26.9983158 52.058803,26.9993421 52.0304443,26.9997702 C52.0202004,26.999925 52.0101089,27 52,27 L51.9745463,26.9998394 C51.9331385,26.9993168 51.8917439,26.9975188 51.8504274,26.9944455 L52,27 C51.9372896,27 51.8752533,26.9971138 51.8140167,26.991467 C51.7869314,26.9889004 51.7595403,26.9857999 51.7322112,26.9821357 C51.6994788,26.9778395 51.6674564,26.9727448 51.6356967,26.9668999 C51.6180699,26.9635608 51.6000328,26.9599906 51.5820386,26.9561708 C51.5557066,26.9506599 51.5297071,26.9445772 51.5039083,26.937993 C51.4750769,26.9306038 51.4464207,26.9226264 51.4179209,26.9140001 C51.3975967,26.9078007 51.3775405,26.9013557 51.3576251,26.8946055 C51.3320235,26.8860614 51.3061132,26.8767177 51.2803683,26.8668225 C51.2552759,26.8569361 51.2309195,26.8469697 51.206809,26.8365424 C51.182748,26.8264848 51.1584147,26.815418 51.134268,26.8038386 C51.114009,26.7936862 51.0938881,26.7835858 51.0739647,26.7731594 C51.0485643,26.7603808 51.0235811,26.746641 50.9988422,26.7323273 C50.9816509,26.7218119 50.9641481,26.7113161 50.9468218,26.7005629 C50.8323504,26.6301372 50.7237358,26.5466244 50.622807,26.4505004 L50.5743957,26.4027309 C50.5543608,26.3823713 50.5347587,26.3615846 50.5156043,26.3403856 L50.5051814,26.3287277 L42.5051814,17.3287277 C41.7713453,16.5031621 41.8457068,15.2390174 42.6712723,14.5051814 Z M42.3960205,46.8051282 L42.5051814,46.6712723 L50.4821869,37.6975464 C50.5221442,37.6510252 50.5642034,37.6063618 50.6082174,37.5637036 L50.5051814,37.6712723 C50.5521586,37.6184229 50.6012379,37.5686942 50.652171,37.5220861 C50.6717616,37.5044818 50.6918006,37.4869072 50.7121876,37.4697325 C50.7351448,37.4499348 50.7584912,37.4311094 50.7821564,37.4128872 C50.7948701,37.4036385 50.80777,37.3939658 50.8207892,37.3844467 C50.8858414,37.3362693 50.9530195,37.2931608 51.022028,37.2544654 C51.1104869,37.2053267 51.2030775,37.1621884 51.2991735,37.1262306 C51.3124097,37.1211272 51.3253089,37.1164731 51.3382457,37.1119556 C51.372519,37.1000538 51.4076273,37.0888212 51.4431424,37.0785466 C51.4605689,37.0735204 51.4782006,37.0686962 51.4958833,37.0641174 C51.5284009,37.0556308 51.5611513,37.0480046 51.5941996,37.0411937 C51.6084326,37.038357 51.6227754,37.0355675 51.6371418,37.0329357 C51.6711484,37.0266005 51.7055482,37.0212144 51.7402267,37.0167166 C51.7619128,37.0139873 51.7836209,37.0115247 51.8053572,37.0094162 C51.8334652,37.0066351 51.8617862,37.0044993 51.8902656,37.0029594 C51.9105484,37.001885 51.9305677,37.001096 51.9505929,37.0006052 C51.9665762,37.0002056 51.9832641,37 52,37 L52.0454152,37.0005114 C52.0721286,37.0011131 52.0988322,37.0022457 52.1255085,37.0039092 L52,37 C52.0629878,37 52.1252956,37.0029118 52.186796,37.0086081 C52.2133991,37.0111439 52.2401215,37.0141687 52.2667851,37.01773 C52.3001959,37.0220881 52.3335816,37.0274061 52.3666813,37.0335392 C52.3835839,37.0367716 52.400288,37.0400867 52.4169554,37.0436159 C52.4434478,37.0491424 52.4698733,37.0553157 52.4960917,37.062007 C52.5249231,37.0693962 52.5535793,37.0773736 52.5820791,37.0859999 C52.6024033,37.0921993 52.6224595,37.0986443 52.6423749,37.1053945 C52.6655959,37.1131353 52.6891514,37.1215797 52.7125717,37.1304793 C52.7401589,37.1412008 52.766822,37.1520536 52.793191,37.1634576 C52.817252,37.1735152 52.8415853,37.184582 52.865732,37.1961614 C52.885991,37.2063138 52.9061119,37.2164142 52.9260353,37.2268406 C52.9514357,37.2396192 52.9764189,37.253359 53.0011578,37.2676727 C53.0183491,37.2781881 53.0358519,37.2886839 53.0531782,37.2994371 C53.1438095,37.3550724 53.2307025,37.419082 53.3130453,37.4909902 C53.3316854,37.5075844 53.3500647,37.5242005 53.368129,37.5411482 C53.3713562,37.5439572 53.3742778,37.5467231 53.377193,37.5494996 L53.4126942,37.5842687 C53.4372365,37.6087587 53.4611459,37.6338828 53.4843957,37.6596144 L53.4948186,37.6712723 L61.4948186,46.6712723 C62.2286547,47.4968379 62.1542932,48.7609826 61.3287277,49.4948186 C60.546613,50.1900317 59.3708704,50.159882 58.6253159,49.4528291 L58.5051814,49.3287277 L53.9999786,44.26 L54,62 C54,63.1045695 53.1045695,64 52,64 C50.9456382,64 50.0818349,63.1841222 50.0054857,62.1492623 L50,62 L49.9999786,44.259 L45.4948186,49.3287277 C44.7996056,50.1108424 43.6284367,50.2187463 42.8051282,49.6039795 L42.6712723,49.4948186 C41.8891576,48.7996056 41.7812537,47.6284367 42.3960205,46.8051282 Z M35,0 C36.1045695,0 37,0.8954305 37,2 C37,3.0543618 36.1841222,3.91816512 35.1492623,3.99451426 L35,4 L3.12824664,4 C2.02367714,4 1.12824664,3.1045695 1.12824664,2 C1.12824664,0.945638205 1.94412443,0.0818348781 2.9789843,0.00548573643 L3.12824664,0 L35,0 Z M35,10 C36.1045695,10 37,10.8954305 37,12 C37,13.0543618 36.1841222,13.9181651 35.1492623,13.9945143 L35,14 L3.12824664,14 C2.02367714,14 1.12824664,13.1045695 1.12824664,12 C1.12824664,10.9456382 1.94412443,10.0818349 2.9789843,10.0054857 L3.12824664,10 L35,10 Z M35,20 C36.1045695,20 37,20.8954305 37,22 C37,23.0543618 36.1841222,23.9181651 35.1492623,23.9945143 L35,24 L3.12824664,24 C2.02367714,24 1.12824664,23.1045695 1.12824664,22 C1.12824664,20.9456382 1.94412443,20.0818349 2.9789843,20.0054857 L3.12824664,20 L35,20 Z M35,30 C36.1045695,30 37,30.8954305 37,32 C37,33.0543618 36.1841222,33.9181651 35.1492623,33.9945143 L35,34 L3.12824664,34 C2.02367714,34 1.12824664,33.1045695 1.12824664,32 C1.12824664,30.9456382 1.94412443,30.0818349 2.9789843,30.0054857 L3.12824664,30 L35,30 Z M35,40 C36.1045695,40 37,40.8954305 37,42 C37,43.0543618 36.1841222,43.9181651 35.1492623,43.9945143 L35,44 L3.12824664,44 C2.02367714,44 1.12824664,43.1045695 1.12824664,42 C1.12824664,40.9456382 1.94412443,40.0818349 2.9789843,40.0054857 L3.12824664,40 L35,40 Z M35,50 C36.1045695,50 37,50.8954305 37,52 C37,53.0543618 36.1841222,53.9181651 35.1492623,53.9945143 L35,54 L3.12824664,54 C2.02367714,54 1.12824664,53.1045695 1.12824664,52 C1.12824664,50.9456382 1.94412443,50.0818349 2.9789843,50.0054857 L3.12824664,50 L35,50 Z M35,60 C36.1045695,60 37,60.8954305 37,62 C37,63.0543618 36.1841222,63.9181651 35.1492623,63.9945143 L35,64 L3.12824664,64 C2.02367714,64 1.12824664,63.1045695 1.12824664,62 C1.12824664,60.9456382 1.94412443,60.0818349 2.9789843,60.0054857 L3.12824664,60 L35,60 Z" id="Combined-Shape" fill="#000000"></path>
    </g>
</svg>