<?xml version="1.0" encoding="UTF-8"?>
<svg width="64px" height="64px" viewBox="0 0 64 64" version="1.1" xmlns="http://www.w3.org/2000/svg" xmlns:xlink="http://www.w3.org/1999/xlink">
    <title>Icon/euro</title>
    <g id="Icon/euro" stroke="none" stroke-width="1" fill="none" fill-rule="evenodd">
        <path d="M47.3333333,54.0780833 L46.69125,49.158 C44.5139167,49.85375 42.1851667,50.2025833 39.7069167,50.2025833 C36.18025,50.2025833 33.4566667,49.1273333 31.5361667,46.9749167 C29.6118333,44.8205833 28.6075,41.7481667 28.5231667,37.75 L40.8281667,37.75 L40.8281667,33.93775 L28.5231667,33.93775 L28.5231667,29.7249167 L40.8281667,29.7249167 L40.8281667,25.882 L28.5538333,25.882 C28.68225,22.0275833 29.6923333,19.0605833 31.5821667,16.9790833 C33.4739167,14.8995 36.1706667,13.85875 39.6743333,13.85875 C42.0241667,13.85875 44.3625,14.2171667 46.69125,14.934 L47.3333333,9.95258333 C44.44875,9.31816667 41.8746667,9 39.6091667,9 C34.4188333,9 30.2999167,10.472 27.25625,13.4121667 C24.2125833,16.35425 22.5834167,20.5095833 22.3706667,25.882 L16.6666667,25.882 L16.6666667,29.7249167 L22.3706667,29.7249167 L22.3706667,33.93775 L16.6666667,33.93775 L16.6666667,37.75 L22.3706667,37.75 C22.4990833,43.2431667 24.0841667,47.4924167 27.1278333,50.4939167 C30.1734167,53.49925 34.3440833,55 39.64175,55 C42.20625,55 44.7688333,54.6933333 47.3333333,54.0780833 Z" id="Euro" fill="#000000"></path>
    </g>
</svg>