<?xml version="1.0" encoding="UTF-8"?>
<svg width="64px" height="64px" viewBox="0 0 64 64" version="1.1" xmlns="http://www.w3.org/2000/svg" xmlns:xlink="http://www.w3.org/1999/xlink">
    <title>Icon/export</title>
    <g id="Icon/export" stroke="none" stroke-width="1" fill="none" fill-rule="evenodd">
        <path d="M34,8 C35.1045695,8 36,8.8954305 36,10 C36,11.0543618 35.1841222,11.9181651 34.1492623,11.9945143 L34,12 L4,12 L4,60 L52,60 L52,30 C52,28.9456382 52.8158778,28.0818349 53.8507377,28.0054857 L54,28 C55.0543618,28 55.9181651,28.8158778 55.9945143,29.8507377 L56,30 L56,62 C56,63.0543618 55.1841222,63.9181651 54.1492623,63.9945143 L54,64 L2,64 C0.945638205,64 0.0818348781,63.1841222 0.00548573643,62.1492623 L0,62 L0,10 C0,8.9456382 0.815877791,8.08183488 1.85073766,8.00548574 L2,8 L34,8 Z M62,1.77635684e-15 L62.1025377,0.00258305659 L62.2620499,0.017139527 L62.4189701,0.0441339054 L62.4757013,0.0569392495 L62.5320114,0.071533332 C62.6396288,0.101155646 62.7436136,0.13954497 62.8431495,0.18588504 L62.9385273,0.233422346 L63.034122,0.287555998 L63.1710143,0.378297763 L63.2961894,0.4767442 L63.4142827,0.585834755 C63.4632975,0.634870402 63.5092969,0.685870902 63.5522116,0.738547052 L63.6492542,0.868019686 L63.7232059,0.98392403 L63.733799,1.00203622 C63.8360784,1.17962915 63.9120663,1.37455735 63.9561052,1.58130922 L63.983024,1.73823409 L63.9993864,1.95030883 L64,20 C64,21.1045695 63.1045695,22 62,22 C60.9456382,22 60.0818349,21.1841222 60.0054857,20.1492623 L60,20 L60,6.828 L39.4142136,27.4142136 C38.633165,28.1952621 37.366835,28.1952621 36.5857864,27.4142136 C35.8458457,26.6742728 35.8069014,25.4987886 36.4689537,24.7130012 L36.5857864,24.5857864 L57.17,4 L44,4 C42.9456382,4 42.0818349,3.18412221 42.0054857,2.14926234 L42,2 C42,0.945638205 42.8158778,0.0818348781 43.8507377,0.00548573643 L44,1.77635684e-15 L62,1.77635684e-15 Z" id="Combined-Shape" fill="#000000"></path>
    </g>
</svg>