<?xml version="1.0" encoding="UTF-8"?>
<svg width="64px" height="64px" viewBox="0 0 64 64" version="1.1" xmlns="http://www.w3.org/2000/svg" xmlns:xlink="http://www.w3.org/1999/xlink">
    <title>Icon/Folder</title>
    <g id="Icon/Folder" stroke="none" stroke-width="1" fill="none" fill-rule="evenodd">
        <path d="M20,7 C21.0543618,7 21.9181651,7.80018783 21.9945143,8.81514655 L22,8.96153846 L22,10.9230769 L54,10.9230769 C55.0543618,10.9230769 55.9181651,11.7232648 55.9945143,12.7382235 L56,12.8846154 L56,19 L62,19 C63.0543618,19 63.9181651,19.7954808 63.9945143,20.8044692 L64,20.95 L64,53.125 C64,55.7465358 61.8776933,57.8847727 59.2168896,57.995496 L59,58 L5,58 L5,58 C2.3112453,58 0.118181885,55.9185069 0.00461951385,53.3088725 L0,53.0961538 L0,8.96153846 C0,7.92745285 0.815877791,7.08026113 1.85073766,7.00538024 L2,7 L20,7 Z M18,10.9230769 L4,10.9230769 L4,53.0961538 C4,53.5991275 4.38604019,54.0136705 4.88337887,54.0703247 L5,54.0769231 C5.10427754,54.0769231 5.20669115,54.0847501 5.30666339,54.0998377 L7,54.1 C7.51283584,54.1 7.93550716,53.7236108 7.99327227,53.2387056 L8,53.125 L8,20.95 C8,19.9219972 8.81587779,19.079789 9.85073766,19.0053486 L10,19 L52,19 L52,14.8461538 L20,14.8461538 C18.9456382,14.8461538 18.0818349,14.045966 18.0054857,13.0310073 L18,12.8846154 L18,10.9230769 Z M60,22.9 L12,22.9 L12,53.125 C12,53.4084093 11.9751958,53.6861701 11.9275886,53.9563313 L11.898,54.1 L59,54.1 C59.5128358,54.1 59.9355072,53.7236108 59.9932723,53.2387056 L60,53.125 L60,22.9 Z" id="Combined-Shape" fill="#000000"></path>
    </g>
</svg>