<?xml version="1.0" encoding="UTF-8"?>
<svg width="64px" height="64px" viewBox="0 0 64 64" version="1.1" xmlns="http://www.w3.org/2000/svg" xmlns:xlink="http://www.w3.org/1999/xlink">
    <title>Icon/group by</title>
    <g id="Icon/group-by" stroke="none" stroke-width="1" fill="none" fill-rule="evenodd">
        <path d="M50,0 C51.0543618,0 51.9181651,0.815877791 51.9945143,1.85073766 L52,2 L52,8 L54,8 C55.0543618,8 55.9181651,8.81587779 55.9945143,9.85073766 L56,10 L56.0010342,31.0317904 C60.8243969,34.2609294 64,39.7596138 64,46 C64,55.9411255 55.9411255,64 46,64 C38.1628164,64 31.4954728,58.9913196 29.0243566,52.0003462 L2,52 C0.945638205,52 0.0818348781,51.1841222 0.00548573643,50.1492623 L0,50 L0,10 C0,8.9456382 0.815877791,8.08183488 1.85073766,8.00548574 L2,8 L4,8 L4,2 C4,0.945638205 4.81587779,0.0818348781 5.85073766,0.00548573643 L6,0 L50,0 Z M46,32 C38.2680135,32 32,38.2680135 32,46 C32,53.7319865 38.2680135,60 46,60 C53.7319865,60 60,53.7319865 60,46 C60,38.2680135 53.7319865,32 46,32 Z M46,36 C47.0543618,36 47.9181651,36.8158778 47.9945143,37.8507377 L48,38 L48,44 L54,44 C55.1045695,44 56,44.8954305 56,46 C56,47.0543618 55.1841222,47.9181651 54.1492623,47.9945143 L54,48 L48,48 L48,54 C48,55.1045695 47.1045695,56 46,56 C44.9456382,56 44.0818349,55.1841222 44.0054857,54.1492623 L44,54 L44,48 L38,48 C36.8954305,48 36,47.1045695 36,46 C36,44.9456382 36.8158778,44.0818349 37.8507377,44.0054857 L38,44 L44,44 L44,38 C44,36.8954305 44.8954305,36 46,36 Z M52,12 L4,12 L4,48 L28.1099038,48.0004182 C28.0372824,47.3436156 28,46.6761617 28,46 C28,36.0588745 36.0588745,28 46,28 C48.1039419,28 50.1235748,28.3609697 52.0003462,29.0243566 L52,12 Z M48,4 L8,4 L8,8 L48,8 L48,4 Z" id="Combined-Shape" fill="#000000"></path>
    </g>
</svg>