<?xml version="1.0" encoding="UTF-8"?>
<svg width="64px" height="64px" viewBox="0 0 64 64" version="1.1" xmlns="http://www.w3.org/2000/svg" xmlns:xlink="http://www.w3.org/1999/xlink">
    <title>Icon/last-activity</title>
    <g id="Icon/last-activity" stroke="none" stroke-width="1" fill="none" fill-rule="evenodd">
        <path d="M54,4 C55.0543618,4 55.9181651,4.81587779 55.9945143,5.85073766 L56,6 L56,18 L56.0010342,27.0317904 C60.8243969,30.2609294 64,35.7596138 64,42 C64,51.9411255 55.9411255,60 46,60 C39.7596138,60 34.2609294,56.8243969 31.0317904,52.0010342 L2,52 C0.945638205,52 0.0818348781,51.1841222 0.00548573643,50.1492623 L0,50 L0,6 C0,4.9456382 0.815877791,4.08183488 1.85073766,4.00548574 L2,4 L54,4 Z M46,28 C38.2680135,28 32,34.2680135 32,42 C32,49.7319865 38.2680135,56 46,56 C53.7319865,56 60,49.7319865 60,42 C60,34.2680135 53.7319865,28 46,28 Z M52,20 L4,20 L4,48 L29.0243566,48.0003462 C28.3609697,46.1235748 28,44.1039419 28,42 C28,32.0588745 36.0588745,24 46,24 C48.1039419,24 50.1235748,24.3609697 52.0003462,25.0243566 L52,20 Z M46,32 C47.0543618,32 47.9181651,32.8158778 47.9945143,33.8507377 L48,34 L48,42 L54,42 C55.0543618,42 55.9181651,42.8158778 55.9945143,43.8507377 L56,44 C56,45.0543618 55.1841222,45.9181651 54.1492623,45.9945143 L54,46 L46,46 C44.9456382,46 44.0818349,45.1841222 44.0054857,44.1492623 L44,44 L44,34 C44,32.8954305 44.8954305,32 46,32 Z M52,8 L4,8 L4,16 L52,16 L52,8 Z M8,9 C9.65685425,9 11,10.3431458 11,12 C11,13.6568542 9.65685425,15 8,15 C6.34314575,15 5,13.6568542 5,12 C5,10.3431458 6.34314575,9 8,9 Z M15,9 C16.6568542,9 18,10.3431458 18,12 C18,13.6568542 16.6568542,15 15,15 C13.3431458,15 12,13.6568542 12,12 C12,10.3431458 13.3431458,9 15,9 Z M22,9 C23.6568542,9 25,10.3431458 25,12 C25,13.6568542 23.6568542,15 22,15 C20.3431458,15 19,13.6568542 19,12 C19,10.3431458 20.3431458,9 22,9 Z M8,11 C7.44771525,11 7,11.4477153 7,12 C7,12.5522847 7.44771525,13 8,13 C8.55228475,13 9,12.5522847 9,12 C9,11.4477153 8.55228475,11 8,11 Z M15,11 C14.4477153,11 14,11.4477153 14,12 C14,12.5522847 14.4477153,13 15,13 C15.5522847,13 16,12.5522847 16,12 C16,11.4477153 15.5522847,11 15,11 Z M22,11 C21.4477153,11 21,11.4477153 21,12 C21,12.5522847 21.4477153,13 22,13 C22.5522847,13 23,12.5522847 23,12 C23,11.4477153 22.5522847,11 22,11 Z" id="clock" fill="#000000"></path>
    </g>
</svg>