<?xml version="1.0" encoding="UTF-8"?>
<svg width="64px" height="64px" viewBox="0 0 64 64" version="1.1" xmlns="http://www.w3.org/2000/svg" xmlns:xlink="http://www.w3.org/1999/xlink">
    <title>Icon/link</title>
    <g id="Icon/link" stroke="none" stroke-width="1" fill="none" fill-rule="evenodd">
        <path d="M28.5638681,21.1 C32.4011625,21.1 36.0797464,22.6315734 38.7581206,25.3299713 C39.4484288,26.0011939 40.0701644,26.7395049 40.6141206,27.5339713 C41.2381454,28.4453806 41.0051742,29.6900958 40.0937649,30.3141206 C39.1823557,30.9381454 37.9376404,30.7051742 37.3136157,29.7937649 C36.9197164,29.2184617 36.469494,28.6838227 35.9445133,28.1729217 C33.9920024,26.2061364 31.3352474,25.1 28.5638681,25.1 C25.903344,25.1 23.3484576,26.1194153 21.4163182,27.9456195 L21.1780817,28.1780817 L7.07292166,42.283223 C5.10613636,44.2357338 4,46.8924889 4,49.6638681 C4,52.4352474 5.10613636,55.0920024 7.08322297,57.0548146 C9.03573385,59.0215999 11.6924889,60.1277363 14.4638681,60.1277363 C17.1243922,60.1277363 19.6792786,59.108321 21.611418,57.2821167 L21.8496546,57.0496546 L30.6496546,48.2496546 C31.4307032,47.468606 32.6970331,47.468606 33.4780817,48.2496546 C34.2180225,48.9895953 34.2569667,50.1650795 33.5949144,50.9508669 L33.4780817,51.0780817 L24.683223,59.8729217 C21.9797464,62.5961628 18.3011625,64.1277363 14.4638681,64.1277363 C10.6265737,64.1277363 6.94798989,62.5961628 4.25481461,59.883223 C1.53157343,57.1797464 -7.81597009e-14,53.5011625 -7.81597009e-14,49.6638681 C-7.81597009e-14,45.9544836 1.43117028,42.3934052 3.98181426,39.7227252 L4.24965457,39.4496546 L18.3445133,25.3548146 C21.0479899,22.6315734 24.7265737,21.1 28.5638681,21.1 Z M49.6638681,1.07291953e-12 C53.5011625,1.07291953e-12 57.1797464,1.53157343 59.8729217,4.24451329 C62.5961628,6.94798989 64.1277363,10.6265737 64.1277363,14.4638681 C64.1277363,18.1732527 62.696566,21.7343311 60.145922,24.4050111 L59.8780817,24.6780817 L45.783223,38.7729217 C43.0797464,41.4961628 39.4011625,43.0277363 35.5638681,43.0277363 C31.7265737,43.0277363 28.0479899,41.4961628 25.3684798,38.7966596 C24.6794859,38.125652 24.0584796,37.388207 23.5145116,36.5950723 C22.8897647,35.6841578 23.1217495,34.4392584 24.0326639,33.8145116 C24.9435784,33.1897647 26.1884779,33.4217495 26.8132247,34.3326639 C27.2081604,34.9085015 27.659028,35.4439067 28.183223,35.9548146 C30.1357338,37.9215999 32.7924889,39.0277363 35.5638681,39.0277363 C38.2243922,39.0277363 40.7792786,38.008321 42.711418,36.1821167 L42.9496546,35.9496546 L57.0548146,21.8445133 C59.0215999,19.8920024 60.1277363,17.2352474 60.1277363,14.4638681 C60.1277363,11.6924889 59.0215999,9.03573385 57.0445133,7.07292166 C55.0920024,5.10613636 52.4352474,4 49.6638681,4 C47.003344,4 44.4484576,5.01941527 42.5163182,6.84561952 L42.2780817,7.0780817 L33.4780817,15.8780817 C32.6970331,16.6591303 31.4307032,16.6591303 30.6496546,15.8780817 C29.9097138,15.1381409 29.8707696,13.9626568 30.5328218,13.1768693 L30.6496546,13.0496546 L39.4445133,4.25481461 C42.1479899,1.53157343 45.8265737,1.07291953e-12 49.6638681,1.07291953e-12 Z" id="Combined-Shape" fill="#000000"></path>
    </g>
</svg>