<?xml version="1.0" encoding="UTF-8"?>
<svg width="64px" height="64px" viewBox="0 0 64 64" version="1.1" xmlns="http://www.w3.org/2000/svg" xmlns:xlink="http://www.w3.org/1999/xlink">
    <title>Icon/move-to-top</title>
    <g id="Icon/move-to-top" stroke="none" stroke-width="1" fill="none" fill-rule="evenodd">
        <path d="M32.9721149,12.5267682 L33.1430115,12.6330597 L33.2770599,12.7348573 L33.380933,12.8272897 L33.4808074,12.9291973 L44.6808074,25.2059268 C45.4232575,26.0197536 45.3621523,27.2784211 44.5443249,28.0172395 C43.7695412,28.7171726 42.5935471,28.6994371 41.8406216,28.0036591 L41.7191926,27.8814247 L34,19.4191474 L34,62.0097834 C34,63.1089497 33.1045695,64 32,64 C30.9456382,64 30.0818349,63.1881132 30.0054857,62.1583156 L30,62.0097834 L30,19.4191474 L22.2808074,27.8814247 C21.5774335,28.6524185 20.4051979,28.7475712 19.5883793,28.1272567 L19.4556751,28.0172395 C18.6808913,27.3173063 18.5852708,26.1508049 19.2086346,25.3379819 L19.3191926,25.2059268 L30.5191926,12.9291973 L30.5872837,12.8580838 L30.690251,12.7627957 L30.7538999,12.7097759 L30.8964144,12.6063656 L30.9659651,12.5630267 C31.014413,12.5333739 31.0637466,12.5065029 31.1139117,12.4818535 L31.2478937,12.4220541 L31.4129835,12.3638293 L31.5902301,12.31854 L31.7686542,12.2899736 L31.928448,12.2779899 L32,12.2767296 L32.096422,12.2790019 L32.2708216,12.294921 L32.4093905,12.3185701 L32.4980128,12.3389222 L32.6150613,12.3726151 L32.7274643,12.4123201 L32.8379025,12.4589748 C32.8833049,12.4797896 32.9280782,12.5023874 32.9721149,12.5267682 Z M60,1.30739863e-12 C61.1045695,1.30739863e-12 62,0.891050337 62,1.99021663 C62,3.03942082 61.1841222,3.8989987 60.1492623,3.97497436 L60,3.98043326 L4,3.98043326 C2.8954305,3.98043326 2,3.08938293 2,1.99021663 C2,0.941012441 2.81587779,0.0814345678 3.85073766,0.00545890194 L4,1.30739863e-12 L60,1.30739863e-12 Z" id="Combined-Shape" fill="#000000"></path>
    </g>
</svg>