<?xml version="1.0" encoding="UTF-8"?>
<svg width="64px" height="64px" viewBox="0 0 64 64" version="1.1" xmlns="http://www.w3.org/2000/svg" xmlns:xlink="http://www.w3.org/1999/xlink">
    <title>Icon/new tab</title>
    <g id="Icon/new-tab" stroke="none" stroke-width="1" fill="none" fill-rule="evenodd">
        <path d="M62,4 C63.0543618,4 63.9181651,4.81587779 63.9945143,5.85073766 L64,6 L64,58 C64,59.0543618 63.1841222,59.9181651 62.1492623,59.9945143 L62,60 L2,60 C0.945638205,60 0.0818348781,59.1841222 0.00548573643,58.1492623 L0,58 L0,6 C0,4.9456382 0.815877791,4.08183488 1.85073766,4.00548574 L2,4 L62,4 Z M60,20 L4,20 L4,56 L60,56 L60,20 Z M32,26 C33.0543618,26 33.9181651,26.8158778 33.9945143,27.8507377 L34,28 L34,36 L42,36 C43.1045695,36 44,36.8954305 44,38 C44,39.0543618 43.1841222,39.9181651 42.1492623,39.9945143 L42,40 L34,40 L34,48 C34,49.1045695 33.1045695,50 32,50 C30.9456382,50 30.0818349,49.1841222 30.0054857,48.1492623 L30,48 L30,40 L22,40 C20.8954305,40 20,39.1045695 20,38 C20,36.9456382 20.8158778,36.0818349 21.8507377,36.0054857 L22,36 L30,36 L30,28 C30,26.8954305 30.8954305,26 32,26 Z M60,8 L4,8 L4,16 L60,16 L60,8 Z M8,9 C9.65685425,9 11,10.3431458 11,12 C11,13.6568542 9.65685425,15 8,15 C6.34314575,15 5,13.6568542 5,12 C5,10.3431458 6.34314575,9 8,9 Z M15,9 C16.6568542,9 18,10.3431458 18,12 C18,13.6568542 16.6568542,15 15,15 C13.3431458,15 12,13.6568542 12,12 C12,10.3431458 13.3431458,9 15,9 Z M22,9 C23.6568542,9 25,10.3431458 25,12 C25,13.6568542 23.6568542,15 22,15 C20.3431458,15 19,13.6568542 19,12 C19,10.3431458 20.3431458,9 22,9 Z M8,11 C7.44771525,11 7,11.4477153 7,12 C7,12.5522847 7.44771525,13 8,13 C8.55228475,13 9,12.5522847 9,12 C9,11.4477153 8.55228475,11 8,11 Z M15,11 C14.4477153,11 14,11.4477153 14,12 C14,12.5522847 14.4477153,13 15,13 C15.5522847,13 16,12.5522847 16,12 C16,11.4477153 15.5522847,11 15,11 Z M22,11 C21.4477153,11 21,11.4477153 21,12 C21,12.5522847 21.4477153,13 22,13 C22.5522847,13 23,12.5522847 23,12 C23,11.4477153 22.5522847,11 22,11 Z" id="Combined-Shape" fill="#000000"></path>
    </g>
</svg>