<?xml version="1.0" encoding="UTF-8"?>
<svg width="64px" height="64px" viewBox="0 0 64 64" version="1.1" xmlns="http://www.w3.org/2000/svg" xmlns:xlink="http://www.w3.org/1999/xlink">
    <title>Icon/Optimization</title>
    <g id="Icon/Optimization" stroke="none" stroke-width="1" fill="none" fill-rule="evenodd">
        <path d="M61,35 C62.0543618,35 62.9181651,35.8158778 62.9945143,36.8507377 L63,37 L63,59 C63,60.0543618 62.1841222,60.9181651 61.1492623,60.9945143 L61,61 L51,61 C49.9456382,61 49.0818349,60.1841222 49.0054857,59.1492623 L49,59 L49,57.786 L48.8296568,57.8423769 L42.8345686,59.9004359 L42.5433239,59.9979097 C42.1117023,60.1413713 41.6914045,60.2790237 41.2806524,60.4112868 L40.0752547,60.7923278 C39.485096,60.9751842 38.9124138,61.1468593 38.3512066,61.3087702 C34.5595161,62.4026906 31.46965,63 29,63 C28.5024362,63 28.0082551,62.9735286 27.5124854,62.9206257 C25.6450117,62.72135 23.7947165,62.1661205 21.3567998,61.129479 L20.6596956,60.8261116 L19.0107807,60.0651457 L11.7769663,56.6322224 L11.048517,56.2752738 L10.3282493,55.9101093 L9.61754531,55.5371769 L8.9177867,55.1569248 C8.80214915,55.0929644 8.68702524,55.0287176 8.57244376,54.9641939 L7.89169424,54.5738023 C7.66710097,54.4426137 7.44490771,54.3103918 7.22534476,54.1772113 L6.57477716,53.7748688 C2.18630081,51.0068987 -1,47.8674758 -1,45 C-1,43.1820885 0.275428909,42.0681186 2.03860112,41.8356004 C3.03880085,41.7036991 4.2681823,41.8196266 5.8173075,42.1425967 L6.41309483,42.2729079 L7.24980044,42.4708077 L7.8640869,42.6278687 L8.6725794,42.8498002 L9.56247924,43.1109657 L10.5726343,43.4229195 L12.2628464,43.9669778 L14.3714989,44.6649315 L18.8075554,46.1521061 L19.6732925,46.437232 C20.6042843,44.4693057 22.5742093,43.0889393 24.8750617,43.0041385 L25.1,43 L29.1,43 C33.2837721,43 35.0062298,42.4604584 37.5823193,40.7743415 L38.2405996,40.3358994 C41.4001346,38.2295428 44.1028848,37.2446269 48.999148,37.0407192 L49,37 C49,35.9456382 49.8158778,35.0818349 50.8507377,35.0054857 L51,35 L61,35 Z M49.000218,41.0420753 C45.1257758,41.213631 43.123543,41.9274096 40.7028836,43.5036331 L40.0664461,43.9269157 C36.8187572,46.0987449 34.414625,46.9482004 29.5621891,46.9976882 L29.1,47 L25.1,47 C23.9954305,47 23.1,47.8954305 23.1,49 C23.1,50.0543618 23.9158778,50.9181651 24.9507377,50.9945143 L25.1,51 L35.1,51 C36.2045695,51 37.1,51.8954305 37.1,53 C37.1,54.0543618 36.2841222,54.9181651 35.2492623,54.9945143 L35.1,55 L25.1,55 C22.3123965,55 19.9687999,53.0989807 19.2948982,50.5226301 L18.3535231,50.2151263 L11.9390144,48.0717148 L9.90843831,47.4094805 L8.68464826,47.0258417 L7.8099546,46.7649721 L7.02835804,46.5459602 L6.3034456,46.3579093 L6.02119566,46.2889171 L5.31446717,46.1259048 C4.57032894,45.9608755 3.9425383,45.8567124 3.4469344,45.8101607 L3.306,45.798 L3.36100545,45.8826395 C3.96856285,46.76935 5.29685823,47.9429363 6.99140822,49.1581535 L7.60411527,49.588383 C7.81303541,49.7321028 8.0264476,49.8759995 8.24377463,50.0196737 L8.90692299,50.4496296 C10.3666896,51.3780241 11.9674705,52.280147 13.5507475,53.0463296 L21.7856662,56.9120745 L24.1003212,57.9740222 L24.7874426,58.2752868 L25.409008,58.5315109 L25.7567218,58.6611415 L26.0928078,58.7683313 L26.3235463,58.825023 L26.4893583,58.8540506 L26.5690132,58.8641762 C26.6608314,58.8744488 26.7494963,58.8796395 26.8427829,58.8830068 L27.3086089,58.8963758 C27.3515099,58.8981256 27.3963424,58.9002321 27.4434311,58.9028314 L27.7556339,58.9254304 C27.8130457,58.9305454 27.8733631,58.9364255 27.9369106,58.9432065 C28.2921824,58.9811171 28.6446977,59 29,59 C30.625956,59 32.7532633,58.6486351 35.3403813,57.9851719 L36.2725066,57.7381132 L37.242411,57.46552 C37.7794607,57.3105787 38.3292786,57.145732 38.8974827,56.9696377 L40.0600707,56.6020542 L41.7465513,56.0460146 L47.3720562,54.1116966 L47.9239658,53.9277805 L48.4213921,53.7665871 L49,53.588 L49.000218,41.0420753 Z M59,39 L53.1,39 C53.1,39.2171948 53.0653786,39.4263034 53.0013535,39.622108 L53,57 L59,57 L59,39 Z M19,19 C24.5228475,19 29,23.4771525 29,29 C29,34.5228475 24.5228475,39 19,39 C13.4771525,39 9,34.5228475 9,29 C9,23.4771525 13.4771525,19 19,19 Z M19,23 C15.6862915,23 13,25.6862915 13,29 C13,32.3137085 15.6862915,35 19,35 C22.3137085,35 25,32.3137085 25,29 C25,25.6862915 22.3137085,23 19,23 Z M33.1,1 C38.6228475,1 43.1,5.4771525 43.1,11 C43.1,16.5228475 38.6228475,21 33.1,21 C27.5771525,21 23.1,16.5228475 23.1,11 C23.1,5.4771525 27.5771525,1 33.1,1 Z M33.1,5 C29.7862915,5 27.1,7.6862915 27.1,11 C27.1,14.3137085 29.7862915,17 33.1,17 C36.4137085,17 39.1,14.3137085 39.1,11 C39.1,7.6862915 36.4137085,5 33.1,5 Z" id="Combined-Shape" fill="#000000"></path>
    </g>
</svg>