<?xml version="1.0" encoding="UTF-8"?>
<svg width="64px" height="64px" viewBox="0 0 64 64" version="1.1" xmlns="http://www.w3.org/2000/svg" xmlns:xlink="http://www.w3.org/1999/xlink">
    <title>Icon/Paste</title>
    <g id="Icon/Paste" stroke="none" stroke-width="1" fill="none" fill-rule="evenodd">
        <path d="M32,0 C34.7464533,0 37.1794529,1.59576888 38.3188796,3.98620665 L38.3188796,3.98620665 L38.327,4.006 L38.9148534,4.00682587 C40.7220484,3.92981776 42.4812721,4.57595907 43.8070097,5.79509888 L43.8070097,5.79509888 L44.0126781,5.99233451 C44.0169232,5.99657963 44.0211621,6.00082975 44.0253947,6.00508486 L54,6.00501256 C56.1421954,6.00501256 57.8910789,7.68898103 57.9951047,9.80537222 L58,10.0050126 L58,60.0050126 C58,62.147208 56.3160315,63.8960914 54.1996403,64.0001173 L54,64.0050126 L10,64.0050126 C7.85780461,64.0050126 6.10892112,62.3210441 6.00489531,60.2046529 L6,60.0050126 L6,10.0050126 C6,7.86281717 7.68396847,6.11393369 9.80035966,6.00990787 L10,6.00501256 L19.906,6.005 L19.9521334,5.95714597 C21.2491772,4.6601022 23.0179057,3.95454869 24.8433782,3.99651386 L25.1320218,4.00937476 L25.043,4.005 L25.672,4.005 L25.7997226,3.749109 C26.9464897,1.56163495 29.1984502,0.0942337057 31.7512132,0.00437376575 L31.7512132,0.00437376575 Z M45.9640132,10.0053911 C46.0021806,10.3374755 46.0145324,10.6717819 46,11.0050126 L46,11.0050126 L45.999,12.005 L48,12.0050126 C49.0543618,12.0050126 49.9181651,12.8208904 49.9945143,13.8557502 L50,14.0050126 L50,54.0050126 C50,55.0593744 49.1841222,55.9231777 48.1492623,55.9995268 L48,56.0050126 L16,56.0050126 C14.9456382,56.0050126 14.0818349,55.1891348 14.0054857,54.1542749 L14,54.0050126 L14,14.0050126 C14,12.9506508 14.8158778,12.0868474 15.8507377,12.0104983 L16,12.0050126 L17.999,12.005 L18,11.048 L17.9915013,10.8483908 C17.9849982,10.5655095 17.9964458,10.2839908 18.0252634,10.0053789 L10,10.0050126 L10,60.0050126 L54,60.0050126 L54,10.0050126 Z M20,16.0050126 L18,16.005 L18,52.005 L46,52.005 L46,16.005 L44,16.0050126 L20,16.0050126 L20,16.0050126 Z M32,4 C30.573271,4 29.3439155,5.00481315 29.06,6.40300754 L29.06,6.40300754 L29.0201568,6.56469567 C28.7738477,7.4116281 27.9952025,8.00501256 27.1,8.00501256 L27.1,8.00501256 L25,8.00501256 L24.6743153,7.99479737 C23.966236,7.99880255 23.2849098,8.28122379 22.7805605,8.7855731 C22.7537609,8.81237271 22.7275879,8.83967202 22.70205,8.8674485 C22.6052098,9.07556667 22.4715046,9.26270739 22.3107451,9.42268617 C22.0732597,9.86198978 21.9619749,10.3641429 21.9956378,10.8729908 L21.9956378,10.8729908 L22,11.0050126 L22,12.005 L42.001,12.005 L42.0027307,10.7051516 C41.984752,10.1775873 41.8179994,9.66790339 41.5249807,9.23388929 C41.4864169,9.18839001 41.451973,9.14003242 41.4196902,9.09014586 L41.3174335,8.96356333 L41.1842509,8.82076163 C40.6298685,8.26637918 39.868451,7.96982112 39,8.00501256 L39,8.00501256 L36.9,8.00501256 C35.9488474,8.00501256 35.129277,7.33513713 34.94,6.40300754 L34.94,6.40300754 L34.8996405,6.23032633 C34.5532956,4.92282319 33.3672819,4 32,4 Z" id="Combined-Shape" fill="#000000"></path>
    </g>
</svg>