<?xml version="1.0" encoding="UTF-8"?>
<svg width="64px" height="64px" viewBox="0 0 64 64" version="1.1" xmlns="http://www.w3.org/2000/svg" xmlns:xlink="http://www.w3.org/1999/xlink">
    <title>Icon/pause</title>
    <g id="Icon/pause" stroke="none" stroke-width="1" fill="none" fill-rule="evenodd">
        <path d="M23.875,0 L11.125,0 C9.95139491,0 9,0.955125867 9,2.13333333 L9,61.8666667 C9,63.0448741 9.95139491,64 11.125,64 L23.875,64 C25.0486051,64 26,63.0448741 26,61.8666667 L26,2.13333333 C26,0.955125867 25.0486051,0 23.875,0 Z M21.75,4.26666667 L21.75,59.7333333 L13.25,59.7333333 L13.25,4.26666667 L21.75,4.26666667 Z M52.875,0 L40.125,0 C38.9513949,0 38,0.955125867 38,2.13333333 L38,61.8666667 C38,63.0448741 38.9513949,64 40.125,64 L52.875,64 C54.0486051,64 55,63.0448741 55,61.8666667 L55,2.13333333 C55,0.955125867 54.0486051,0 52.875,0 Z M50.75,4.26666667 L50.75,59.7333333 L42.25,59.7333333 L42.25,4.26666667 L50.75,4.26666667 Z" id="Combined-Shape" fill="#000000"></path>
    </g>
</svg>