<?xml version="1.0" encoding="UTF-8"?>
<svg width="64px" height="64px" viewBox="0 0 64 64" version="1.1" xmlns="http://www.w3.org/2000/svg" xmlns:xlink="http://www.w3.org/1999/xlink">
    <title>Icon/rearrange</title>
    <g id="Icon/rearrange" stroke="none" stroke-width="1" fill="none" fill-rule="evenodd">
        <path d="M32.0979513,1.00235666 L32.2597575,1.01680394 L32.4058839,1.04130417 L32.5570062,1.07858972 L32.7004497,1.12591814 L32.842173,1.18541355 L33.0183088,1.27771146 L33.1960933,1.39685502 L33.3181366,1.4957468 L33.3917826,1.56370358 L33.4563191,1.62917638 L41.4948186,10.6712723 C42.2286547,11.4968379 42.1542932,12.7609826 41.3287277,13.4948186 C40.546613,14.1900317 39.3708704,14.159882 38.6253159,13.4528291 L38.5051814,13.3287277 L34,8.259 L34,29.9993567 L58,30 C59.1045695,30 60,30.8954305 60,32 C60,33.0543618 59.1841222,33.9181651 58.1492623,33.9945143 L58,34 L34,33.9993567 L34,55.74 L38.5051814,50.6712723 C39.2390174,49.8457068 40.5031621,49.7713453 41.3287277,50.5051814 C42.1108424,51.2003944 42.2187463,52.3715633 41.6039795,53.1948718 L41.4948186,53.3287277 L33.4563191,62.3708236 L33.3181194,62.5042518 L33.1740357,62.6193244 L33.0596207,62.6966203 L32.977972,62.7455346 L32.8422329,62.814608 L32.6617543,62.8880444 L32.5041167,62.9358826 L32.3628582,62.9670643 L32.2272269,62.9871664 L32.050405,62.9993701 L31.9020487,62.9976433 L31.7402425,62.9831961 L31.5941161,62.9586958 L31.4429938,62.9214103 L31.2995503,62.8740819 L31.157827,62.8145864 L30.9816912,62.7222885 L30.8039067,62.603145 L30.6818634,62.5042532 L30.6082174,62.4362964 L30.5436809,62.3708236 L22.5051814,53.3287277 C21.7713453,52.5031621 21.8457068,51.2390174 22.6712723,50.5051814 C23.453387,49.8099683 24.6291296,49.840118 25.3746841,50.5471709 L25.4948186,50.6712723 L30,55.74 L30,33.9993567 L6,34 C4.8954305,34 4,33.1045695 4,32 C4,30.9456382 4.81587779,30.0818349 5.85073766,30.0054857 L6,30 L30,29.9993567 L30,8.259 L25.4948186,13.3287277 C24.7996056,14.1108424 23.6284367,14.2187463 22.8051282,13.6039795 L22.6712723,13.4948186 C21.8891576,12.7996056 21.7812537,11.6284367 22.3960205,10.8051282 L22.5051814,10.6712723 L30.5436809,1.62917638 L30.6818806,1.49574818 L30.8259643,1.38067558 L30.9403793,1.30337966 L31.022028,1.25446545 L31.1577671,1.18539204 L31.3382457,1.11195559 L31.4958833,1.06411738 L31.6371418,1.03293573 L31.7727731,1.01283356 L31.8902656,1.00235666 L32.0979513,1.00235666 Z" id="Combined-Shape" fill="#000000"></path>
    </g>
</svg>