<?xml version="1.0" encoding="UTF-8"?>
<svg width="64px" height="64px" viewBox="0 0 64 64" version="1.1" xmlns="http://www.w3.org/2000/svg" xmlns:xlink="http://www.w3.org/1999/xlink">
    <title>Icon/Request</title>
    <g id="Icon/Request" stroke="none" stroke-width="1" fill="none" fill-rule="evenodd">
        <path d="M47,0 C48.0543618,0 48.9181651,0.815877791 48.9945143,1.85073766 L49,2 L49,34.144 L54.5891983,28.5823828 C55.3296564,27.8454846 56.5028096,27.808067 57.287219,28.4691402 L57.4142136,28.5857864 L64.4142136,35.5857864 C65.1965933,36.3681662 65.1950644,37.637125 64.4108017,38.4176172 L64.4108017,38.4176172 L43.6108017,59.1176172 C43.4105054,59.3169506 43.1702418,59.4715765 42.9058434,59.5713057 L42.9058434,59.5713057 L31.5058434,63.8713057 C29.8864348,64.4821353 28.3082972,62.887138 28.9363003,61.2743116 L28.9363003,61.2743116 L29.432,60 L3,60 C1.9456382,60 1.08183488,59.1841222 1.00548574,58.1492623 L1,58 L1,2 C1,0.945638205 1.81587779,0.0818348781 2.85073766,0.00548573643 L3,0 L47,0 Z M55.996,32.825 L48.6343393,40.1530799 C48.5008642,40.3419182 48.3354856,40.5066022 48.14605,40.6392856 L36.91,51.819 L34.3701355,58.3462559 C34.3590633,58.4096929 34.345002,58.4721027 34.3281019,58.5333348 L41.093,55.979 L60.168,36.997 L55.996,32.825 Z M11,8 L11,4 L5,4 L5,56 L30.99,56 L33.3363003,49.9743116 C33.4171906,49.7665707 33.5320971,49.574187 33.6759553,49.4048982 L33.7891983,49.2823828 L45,38.125 L45,4 L39,4 L39,8 C40.1045695,8 41,8.8954305 41,10 C41,11.0543618 40.1841222,11.9181651 39.1492623,11.9945143 L39,12 L35,12 C33.8954305,12 33,11.1045695 33,10 C33,8.9456382 33.8158778,8.08183488 34.8507377,8.00548574 L35,8 L35,4 L27,4 L27,8 C28.1045695,8 29,8.8954305 29,10 C29,11.0543618 28.1841222,11.9181651 27.1492623,11.9945143 L27,12 L23,12 C21.8954305,12 21,11.1045695 21,10 C21,8.9456382 21.8158778,8.08183488 22.8507377,8.00548574 L23,8 L23,4 L15,4 L15,8 C16.1045695,8 17,8.8954305 17,10 C17,11.0543618 16.1841222,11.9181651 15.1492623,11.9945143 L15,12 L11,12 C9.8954305,12 9,11.1045695 9,10 C9,8.9456382 9.81587779,8.08183488 10.8507377,8.00548574 L11,8 Z" id="Combined-Shape" fill="#202020" fill-rule="nonzero"></path>
    </g>
</svg>