<?xml version="1.0" encoding="UTF-8"?>
<svg width="64px" height="64px" viewBox="0 0 64 64" version="1.1" xmlns="http://www.w3.org/2000/svg" xmlns:xlink="http://www.w3.org/1999/xlink">
    <title>Icon/reset</title>
    <g id="Icon/reset" stroke="none" stroke-width="1" fill="none" fill-rule="evenodd">
        <path d="M54.6445649,9.11004204 C63.3103161,16.8438694 66.3015876,29.124814 62.1629349,39.9774119 C58.2634619,50.2028198 48.7972195,57.1594849 38.0005482,57.9292803 L38.0001936,59.9664285 C38.0001936,61.070998 37.1047631,61.9664285 36.0001936,61.9664285 C34.9458318,61.9664285 34.0820285,61.1505507 34.0056793,60.1156909 L34.0001936,59.9664285 L34.0001936,51.9824285 C34.0001936,50.877859 34.8956241,49.9824285 36.0001936,49.9824285 C37.0545554,49.9824285 37.9183587,50.7983063 37.9947078,51.8331662 L38.0001936,51.9824285 L38.0010013,53.9173194 C47.1361422,53.1562206 55.1175792,47.2262845 58.4254802,38.5521286 C61.9728968,29.2499018 59.4089498,18.7233778 51.9811631,12.094383 C44.5533764,5.46538812 33.804158,4.11045822 24.9636893,8.68885322 C17.3917889,12.6102687 12.5668576,20.1869213 12.0468503,28.4957901 L19.6450101,21.495552 C20.4145979,20.7864968 21.5906912,20.7956667 22.3487407,21.4893065 L22.4710701,21.611245 C23.1801253,22.3808328 23.1709554,23.5569262 22.4773156,24.3149756 L22.3553771,24.437305 L11.5233771,34.417305 C11.4846411,34.4530244 11.4493926,34.4831714 11.4130808,34.5120997 L11.5233771,34.417305 C11.4735117,34.4632482 11.422026,34.5061365 11.3691361,34.5459946 C11.3430094,34.5657833 11.3160091,34.5850713 11.2885,34.603701 C11.2775865,34.6111055 11.2668531,34.6182385 11.2560712,34.6252547 C11.2284013,34.6431718 11.1999261,34.6606642 11.1709675,34.6774597 C11.1470216,34.6915654 11.1228867,34.7049285 11.09856,34.7177454 C11.0861218,34.7240003 11.0738597,34.7302817 11.0615206,34.7364409 C10.8135826,34.8608338 10.5467079,34.9291446 10.2785437,34.9436185 L10.394809,34.9335484 C10.2412916,34.9510559 10.0898549,34.9506909 9.94257823,34.9341071 C9.92963513,34.932191 9.91696333,34.9306286 9.90430713,34.9289461 C9.86660642,34.924432 9.8292454,34.9183889 9.79220615,34.9113128 C9.79077536,34.9105474 9.78879295,34.9101668 9.78681107,34.9097832 L9.67193829,34.8844408 C9.66479768,34.8826109 9.65767103,34.8807422 9.65055858,34.8788349 C9.63247632,34.8736466 9.61474675,34.8686541 9.59708165,34.8634164 C9.56968052,34.8555117 9.54260191,34.846791 9.51576304,34.8375104 C9.4934428,34.8297545 9.47069612,34.8214881 9.44808769,34.8128037 C9.42543221,34.8039587 9.40348943,34.7950098 9.38173332,34.785683 C9.35128975,34.7729851 9.32084029,34.7591139 9.29070958,34.7444569 C9.28302851,34.7401755 9.27506414,34.7362139 9.26712861,34.7322005 C9.23116145,34.7146939 9.19608401,34.6957065 9.16152286,34.6756213 C9.15442634,34.6706137 9.14673213,34.6660587 9.13906994,34.6614534 C9.10806608,34.6437918 9.0780966,34.6247217 9.0485796,34.604797 C9.03568675,34.5950078 9.02226829,34.585701 9.00896669,34.5762334 C8.94386635,34.5310283 8.88155398,34.4808344 8.82198087,34.4264819 C8.80765615,34.4125305 8.79347547,34.3992552 8.77948661,34.3857736 C8.74336312,34.3516011 8.70823197,34.3149415 8.67430133,34.2766882 C8.6220022,34.2177895 8.57320649,34.1561687 8.52807167,34.0916508 L8.51572723,34.073085 L0.347727227,22.093085 C-0.274507992,21.1804531 -0.0390949124,19.9361974 0.873537057,19.3139622 C1.74053743,18.7228387 2.90682821,18.9057428 3.55477871,19.7079789 L3.65265994,19.839772 L8.21496462,26.5310435 C9.33976018,17.5184599 14.8138956,9.44074092 23.1241788,5.136924 C33.438059,-0.204536826 45.9788137,1.37621471 54.6445649,9.11004204 Z" id="Combined-Shape" fill="#000000"></path>
    </g>
</svg>