<?xml version="1.0" encoding="UTF-8"?>
<svg width="64px" height="64px" viewBox="0 0 64 64" version="1.1" xmlns="http://www.w3.org/2000/svg" xmlns:xlink="http://www.w3.org/1999/xlink">
    <title>Icon/rezising</title>
    <g id="Icon/rezising" stroke="none" stroke-width="1" fill="none" fill-rule="evenodd">
        <path d="M63.4142136,0.585786438 C64.1541543,1.3257272 64.1930986,2.50121136 63.5310463,3.28699879 L63.4142136,3.41421356 L3.41421356,63.4142136 C2.63316498,64.1952621 1.36683502,64.1952621 0.585786438,63.4142136 C-0.154154326,62.6742728 -0.193098576,61.4987886 0.468953686,60.7130012 L0.585786438,60.5857864 L60.5857864,0.585786438 C61.366835,-0.195262146 62.633165,-0.195262146 63.4142136,0.585786438 Z M63.4142136,30.5857864 C64.1541543,31.3257272 64.1930986,32.5012114 63.5310463,33.2869988 L63.4142136,33.4142136 L33.4142136,63.4142136 C32.633165,64.1952621 31.366835,64.1952621 30.5857864,63.4142136 C29.8458457,62.6742728 29.8069014,61.4987886 30.4689537,60.7130012 L30.5857864,60.5857864 L60.5857864,30.5857864 C61.366835,29.8047379 62.633165,29.8047379 63.4142136,30.5857864 Z" id="Combined-Shape" fill="#000000"></path>
    </g>
</svg>