<?xml version="1.0" encoding="UTF-8"?>
<svg width="64px" height="64px" viewBox="0 0 64 64" version="1.1" xmlns="http://www.w3.org/2000/svg" xmlns:xlink="http://www.w3.org/1999/xlink">
    <title>Icon/save</title>
    <g id="Icon/save" stroke="none" stroke-width="1" fill="none" fill-rule="evenodd">
        <path d="M54,0 C54.471496,0 54.9258264,0.166489822 55.2843934,0.466913145 L55.4142136,0.585786438 L63.4142136,8.58578644 C63.7476116,8.91918444 63.9511456,9.35817065 63.9922594,9.82414715 L64,10 L64,62 C64,63.0543618 63.1841222,63.9181651 62.1492623,63.9945143 L62,64 L2,64 C0.945638205,64 0.0818348781,63.1841222 0.00548573643,62.1492623 L0,62 L0,2 C0,0.945638205 0.815877791,0.0818348781 1.85073766,0.00548573643 L2,0 L54,0 Z M53.171,4 L52,4 L52,20 C52,22.1421954 50.3160315,23.8910789 48.1996403,23.9951047 L48,24 L28,24 C25.8578046,24 24.1089211,22.3160315 24.0048953,20.1996403 L24,20 L24,4 L4,4 L4,60 L10,60 L10,34 C10,32.9456382 10.8158778,32.0818349 11.8507377,32.0054857 L12,32 L52,32 C53.0543618,32 53.9181651,32.8158778 53.9945143,33.8507377 L54,34 L54,60 L60,60 L60,10.829 L53.171,4 Z M50,36 L14,36 L14,60 L50,60 L50,36 Z M38,50 C39.1045695,50 40,50.8954305 40,52 C40,53.0543618 39.1841222,53.9181651 38.1492623,53.9945143 L38,54 L22,54 C20.8954305,54 20,53.1045695 20,52 C20,50.9456382 20.8158778,50.0818349 21.8507377,50.0054857 L22,50 L38,50 Z M42,42 C43.1045695,42 44,42.8954305 44,44 C44,45.0543618 43.1841222,45.9181651 42.1492623,45.9945143 L42,46 L22,46 C20.8954305,46 20,45.1045695 20,44 C20,42.9456382 20.8158778,42.0818349 21.8507377,42.0054857 L22,42 L42,42 Z M48,4 L28,4 L28,20 L48,20 L48,4 Z" id="Combined-Shape" fill="#000000"></path>
    </g>
</svg>