<?xml version="1.0" encoding="UTF-8"?>
<svg width="64px" height="64px" viewBox="0 0 64 64" version="1.1" xmlns="http://www.w3.org/2000/svg" xmlns:xlink="http://www.w3.org/1999/xlink">
    <title>Icon/shopping-cart</title>
    <g id="Icon/shopping-cart" stroke="none" stroke-width="1" fill="none" fill-rule="evenodd">
        <path d="M10.3225726,1 C11.2141857,1 11.9981123,1.57112135 12.2788091,2.40453317 L12.3254459,2.5637962 L16.0629553,17.5161162 L61.9354358,17.5161162 C63.2942593,17.5161162 64.2680167,18.7998015 63.9362845,20.0901526 L63.8940062,20.2334875 L55.6359481,45.0076618 C55.3725018,45.7980009 54.6626398,46.347169 53.8427277,46.4127278 L53.6773777,46.4193196 L22.7096598,46.4193196 C21.5694599,46.4193196 20.6451453,47.3436342 20.6451453,48.4838341 C20.6451453,49.5722067 21.487341,50.463874 22.5555826,50.5426859 L22.7096598,50.5483486 L55.7418922,50.5483486 C56.8820921,50.5483486 57.8064067,51.4726632 57.8064067,52.6128631 C57.8064067,53.7012357 56.9642109,54.592903 55.8959693,54.671715 L55.7418922,54.6773777 L55.3893753,54.6771161 C55.6176694,55.3229266 55.7418922,56.0179025 55.7418922,56.7418922 C55.7418922,60.1624918 52.9689483,62.9354358 49.5483486,62.9354358 C46.1277489,62.9354358 43.354805,60.1624918 43.354805,56.7418922 C43.354805,56.0179025 43.4790278,55.3229266 43.7073219,54.6771161 L28.5506865,54.6771161 C28.7789805,55.3229266 28.9032034,56.0179025 28.9032034,56.7418922 C28.9032034,60.1624918 26.1302594,62.9354358 22.7096598,62.9354358 C19.2890601,62.9354358 16.5161162,60.1624918 16.5161162,56.7418922 C16.5161162,55.1556518 17.1124296,53.7086879 18.0931139,52.612943 C17.1127891,51.5179105 16.5161162,50.0705525 16.5161162,48.4838341 C16.5161162,45.1409753 19.1644495,42.4166679 22.4774656,42.2945625 L22.7096598,42.2902905 L52.1888627,42.2902905 L59.0698896,21.6451453 L14.4516017,21.6451453 C13.5599886,21.6451453 12.776062,21.0740239 12.4953652,20.2406121 L12.4487284,20.081349 L8.71018678,5.12902905 L2.06451453,5.12902905 C0.976141905,5.12902905 0.0844746473,4.28683328 0.00566269127,3.21859166 L-7.10542736e-15,3.06451453 C-7.10542736e-15,1.9761419 0.842195775,1.08447465 1.91043739,1.00566269 L2.06451453,1 L10.3225726,1 Z M22.7096598,54.6773777 C21.5694599,54.6773777 20.6451453,55.6016923 20.6451453,56.7418922 C20.6451453,57.8820921 21.5694599,58.8064067 22.7096598,58.8064067 C23.8498597,58.8064067 24.7741743,57.8820921 24.7741743,56.7418922 C24.7741743,55.6016923 23.8498597,54.6773777 22.7096598,54.6773777 Z M49.5483486,54.6773777 C48.4081487,54.6773777 47.4838341,55.6016923 47.4838341,56.7418922 C47.4838341,57.8820921 48.4081487,58.8064067 49.5483486,58.8064067 C50.6885485,58.8064067 51.6128631,57.8820921 51.6128631,56.7418922 C51.6128631,55.6016923 50.6885485,54.6773777 49.5483486,54.6773777 Z" id="Combined-Shape" fill="#000000"></path>
    </g>
</svg>