<?xml version="1.0" encoding="UTF-8"?>
<svg width="64px" height="64px" viewBox="0 0 64 64" version="1.1" xmlns="http://www.w3.org/2000/svg" xmlns:xlink="http://www.w3.org/1999/xlink">
    <title>Icon/shop</title>
    <g id="Icon/shop" stroke="none" stroke-width="1" fill="none" fill-rule="evenodd">
        <path d="M58,0 C59.0543618,0 59.9181651,0.815877791 59.9945143,1.85073766 L60,2 L60,12 C61.1045695,12 62,12.8954305 62,14 L62,14 L62,62 C62,63.1045695 61.1045695,64 60,64 L60,64 L4,64 C2.8954305,64 2,63.1045695 2,62 L2,62 L2,14 C2,12.8954305 2.8954305,12 4,12 L4,12 L4,2 C4,0.945638205 4.81587779,0.0818348781 5.85073766,0.00548573643 L6,0 L58,0 Z M58,16 L6,16 L6,60 L58,60 L58,16 Z M42,22 C43.1045695,22 44,22.8954305 44,24 C44,30.627417 38.627417,36 32,36 C25.372583,36 20,30.627417 20,24 C20,22.8954305 20.8954305,22 22,22 C23.1045695,22 24,22.8954305 24,24 C24,28.418278 27.581722,32 32,32 C36.418278,32 40,28.418278 40,24 C40,22.8954305 40.8954305,22 42,22 Z M50.765,4 L13.234,4 L17.0315615,6.28655879 C18.2777864,7.03683703 18.320988,8.8063824 17.1626413,9.62772732 L17.0289915,9.71498585 L13.218,12 L50.781,12 L46.9710085,9.71498585 C45.7236602,8.96657686 45.6778056,7.19709825 46.8349197,6.3740176 L46.9684385,6.28655879 L50.765,4 Z M56,5.517 L51.881,7.997 L56,10.468 L56,5.517 Z M8,5.518 L8,10.467 L12.118,7.997 L8,5.518 Z" id="Combined-Shape" fill="#000000"></path>
    </g>
</svg>