<?xml version="1.0" encoding="UTF-8"?>
<svg width="64px" height="64px" viewBox="0 0 64 64" version="1.1" xmlns="http://www.w3.org/2000/svg" xmlns:xlink="http://www.w3.org/1999/xlink">
    <title>Icon/shrink</title>
    <g id="Icon/shrink" stroke="none" stroke-width="1" fill="none" fill-rule="evenodd">
        <path d="M49.4948919,22.6713548 C50.1900619,23.4535079 50.1598473,24.6292488 49.4527533,25.3747642 L49.3286452,25.4948919 L44.258,29.9999785 L62,30 C63.1045695,30 64,30.8954305 64,32 C64,33.0543618 63.1841222,33.9181651 62.1492623,33.9945143 L62,34 L44.259,33.9999785 L49.3286452,38.5051081 C50.1107983,39.200278 50.2187667,40.3714409 49.6040454,41.1947833 L49.4948919,41.3286452 C48.799722,42.1107983 47.6285591,42.2187667 46.8052167,41.6040454 L46.6713548,41.4948919 L37.6965464,33.5178131 C37.6500252,33.4778558 37.6053618,33.4357966 37.5627036,33.3917826 L37.6703548,33.4948919 C37.6174989,33.4479142 37.5677641,33.3988339 37.5211502,33.3478995 C37.5034818,33.3282384 37.4859072,33.3081994 37.4687325,33.2878124 C37.4489901,33.2649233 37.4301624,33.241576 37.4119379,33.2179101 C37.4013385,33.2034389 37.3904083,33.1888136 37.3796756,33.1740357 C37.3616562,33.1500409 37.3447341,33.1256289 37.3284181,33.1009309 C37.2466549,32.976149 37.1781627,32.8422858 37.1252306,32.7008265 C37.1201421,32.6876318 37.1154874,32.6747319 37.1109693,32.6617943 C37.0990538,32.627481 37.0878212,32.5923727 37.0775466,32.5568576 C37.0725294,32.5394641 37.0677047,32.5218314 37.0631253,32.5041476 C37.0546308,32.4715991 37.0470046,32.4388487 37.0401937,32.4058004 C37.0373617,32.3915917 37.0345719,32.3772479 37.0319398,32.3628807 C37.0256005,32.3288516 37.0202144,32.2944518 37.0157166,32.2597733 C37.012989,32.238102 37.0105261,32.2163926 37.0084173,32.1946549 C37.0058171,32.168419 37.0037879,32.1420043 37.0022766,32.1154509 C37.0006844,32.0871598 36.999658,32.0588067 36.9992298,32.0304462 C36.999075,32.0202004 36.999,32.0101089 36.999,32 L36.9991606,31.9745447 C36.9996833,31.9331343 37.0014815,31.8917371 37.0045552,31.8504181 L36.999,32 C36.999,31.9372896 37.0018862,31.8752533 37.007533,31.8140167 C37.010101,31.7869181 37.0132019,31.7595253 37.0168665,31.7321945 C37.0211605,31.6994788 37.0262552,31.6674564 37.0321001,31.6356967 C37.0354437,31.6180462 37.0390143,31.600008 37.0428346,31.5820128 C37.0483401,31.5557066 37.0544228,31.5297071 37.061007,31.5039083 C37.0684047,31.4750447 37.0763831,31.4463868 37.0850105,31.4178854 C37.0911993,31.3975967 37.0976443,31.3775405 37.1043945,31.3576251 C37.1129526,31.3319832 37.1222975,31.3060713 37.1321939,31.280325 C37.1420639,31.2552759 37.1520303,31.2309195 37.1624576,31.206809 C37.1725365,31.1826995 37.1836047,31.1583649 37.1951855,31.1342171 C37.2053138,31.114009 37.2154142,31.0938881 37.2258406,31.0739647 C37.2386487,31.048509 37.2523901,31.0235247 37.2667056,30.9987846 C37.2771881,30.9816509 37.2876839,30.9641481 37.2984371,30.9468218 C37.3689082,30.8322855 37.4524313,30.723667 37.5485671,30.6227359 L37.5962691,30.5743957 C37.6166287,30.5543608 37.6374154,30.5347587 37.6586144,30.5156043 L37.6703548,30.5051081 L46.6713548,22.5051081 C47.4969608,21.7713176 48.7611015,21.8457488 49.4948919,22.6713548 Z M17.0546678,22.3003007 L17.1949603,22.3960865 L17.3288102,22.5052547 L26.3014536,30.4821869 C26.3479748,30.5221442 26.3926382,30.5642034 26.4352964,30.6082174 L26.3278102,30.5052547 C26.380653,30.5522313 26.4303757,30.6013097 26.4769781,30.6522414 C26.4945182,30.6717616 26.5120928,30.6918006 26.5292675,30.7121876 C26.5491205,30.7352128 26.5679436,30.7585585 26.5861636,30.7822228 C26.5953615,30.7948701 26.6050342,30.80777 26.6145533,30.8207892 C26.662772,30.885904 26.7058752,30.9530793 26.7445658,31.0220844 C26.7936733,31.1104869 26.8368116,31.2030775 26.8727694,31.2991735 C26.8778876,31.3124511 26.8825412,31.3253496 26.8870582,31.3382858 C26.8989462,31.372519 26.9101788,31.4076273 26.9204534,31.4431424 C26.9254887,31.460602 26.9303122,31.4782326 26.9348905,31.4959142 C26.9433692,31.5284009 26.9509954,31.5611513 26.9578063,31.5941996 C26.9606477,31.6084568 26.9634369,31.6227988 26.9660683,31.6371643 C26.9723995,31.6711484 26.9777856,31.7055482 26.9822834,31.7402267 C26.9850145,31.7619277 26.9874768,31.7836344 26.989585,31.8053694 C26.9923649,31.8334652 26.9945007,31.8617862 26.9960406,31.8902656 C26.9971152,31.910554 26.9979042,31.930572 26.9983948,31.950596 C26.9987944,31.9665762 26.999,31.9832641 26.999,32 L26.9984887,32.0454123 C26.9978871,32.0721241 26.9967546,32.098826 26.9950913,32.1255007 L26.999,32 C26.999,32.0629878 26.9960882,32.1252956 26.9903919,32.186796 C26.9878575,32.2133858 26.9848331,32.2401065 26.9812722,32.2667685 C26.9769119,32.3001959 26.9715939,32.3335816 26.9654608,32.3666813 C26.9622329,32.3835601 26.9589183,32.4002633 26.9553894,32.4169297 C26.9498576,32.4434478 26.9436843,32.4698733 26.936993,32.4960917 C26.9296123,32.5248909 26.9216359,32.5535455 26.9130107,32.5820436 C26.9068007,32.6024033 26.9003557,32.6224595 26.8936055,32.6423749 C26.8858786,32.6655557 26.8774352,32.6891099 26.8685367,32.7125288 C26.8577992,32.7401589 26.8469464,32.766822 26.8355424,32.793191 C26.8255061,32.8172036 26.8144407,32.8415356 26.8028627,32.865681 C26.7926862,32.885991 26.7825858,32.9061119 26.7721594,32.9260353 C26.7594102,32.9513805 26.7456722,32.9763625 26.7313601,33.0011003 C26.7208119,33.0183491 26.7103161,33.0358519 26.6995629,33.0531782 C26.6439712,33.1437456 26.5799694,33.2306353 26.5080701,33.3129758 C26.4914156,33.3316854 26.4747995,33.3500647 26.4578518,33.368129 C26.4551096,33.3712851 26.452344,33.3742066 26.4495679,33.3771218 L26.4147313,33.4126942 C26.3902413,33.4372365 26.3651172,33.4611459 26.3393856,33.4843957 L26.3278102,33.4947453 L17.3288102,41.4947453 C16.5032851,42.2286269 15.2391363,42.1543352 14.5052547,41.3288102 C13.8099984,40.5467338 13.8400833,39.3709895 14.547095,38.6253961 L14.6711898,38.5052547 L19.738,33.9999785 L2,34 C0.8954305,34 0,33.1045695 0,32 C0,30.9456382 0.815877791,30.0818349 1.85073766,30.0054857 L2,30 L19.74,29.9999785 L14.6711898,25.4947453 C13.8891135,24.7994891 13.7812743,23.6283143 14.3960865,22.8050397 L14.5052547,22.6711898 C15.1618856,21.9325622 16.243024,21.7953374 17.0546678,22.3003007 Z" id="Combined-Shape" fill="#000000"></path>
    </g>
</svg>