<?xml version="1.0" encoding="UTF-8"?>
<svg width="64px" height="64px" viewBox="0 0 64 64" version="1.1" xmlns="http://www.w3.org/2000/svg" xmlns:xlink="http://www.w3.org/1999/xlink">
    <title>Icon/Software Cloud</title>
    <g id="Icon/Software-Cloud" stroke="none" stroke-width="1" fill="none" fill-rule="evenodd">
        <path d="M60,3 C62.1421954,3 63.8910789,4.68396847 63.9951047,6.80035966 L64,7 L64,43 C64,45.1421954 62.3160315,46.8910789 60.1996403,46.9951047 L60,47 L34,47 L34,55 L42,55 C43.1045695,55 44,55.8954305 44,57 C44,58.0543618 43.1841222,58.9181651 42.1492623,58.9945143 L42,59 L22,59 C20.8954305,59 20,58.1045695 20,57 C20,55.9456382 20.8158778,55.0818349 21.8507377,55.0054857 L22,55 L30,55 L30,47 L4,47 C1.85780461,47 0.108921124,45.3160315 0.00489530723,43.1996403 L0,43 L0,7 C0,4.85780461 1.68396847,3.10892112 3.80035966,3.00489531 L4,3 L60,3 Z M60,7 L4,7 L4,43 L60,43 L60,7 Z M30.4392197,13.105325 C34.9410113,12.4889403 39.3217831,14.6161423 41.6635253,18.4157349 L41.6635253,18.4157349 L41.781,18.612 L41.8701698,18.6211367 C46.3611723,19.1356883 49.86558,22.9022423 49.996223,27.513646 L49.996223,27.513646 L50,27.7806088 C50,32.8700596 45.8910822,37 40.8173577,37 L40.8173577,37 L20.8771018,36.9993784 C17.7533173,36.9214755 14.9558487,35.0422396 13.6916611,32.1759566 C12.4289804,29.31309 12.9208701,25.9758474 14.9562227,23.6026398 C16.4851761,21.8198905 18.6798217,20.8206444 20.9526322,20.785122 L20.9526322,20.785122 L21.183,20.785 L21.2083779,20.7082439 C22.5585504,16.7757734 25.965597,13.8323708 30.1463034,13.1492979 L30.1463034,13.1492979 Z M38.716249,21.3796983 C37.3695294,18.3771042 34.2225431,16.6246329 30.9818366,17.06835 C27.7395076,17.5122893 25.1709541,20.0495468 24.6719434,23.3075059 L24.6719434,23.3075059 L24.6441591,23.4533262 C24.3925815,24.5536063 23.2669549,25.2389679 22.1602596,24.931892 L22.1602596,24.931892 L21.9528925,24.8801764 C20.497651,24.5576416 18.9749532,25.0611452 17.9925064,26.2066717 C16.9600244,27.4105386 16.7099481,29.1071901 17.3514969,30.5617688 C17.9915388,32.0129311 19.4034239,32.9613832 20.9269635,33 L20.9269635,33 L40.8173577,33 C43.6773607,33 46,30.6654773 46,27.7806088 C46,24.8957403 43.6773607,22.5612176 40.8173577,22.5612176 L40.8173577,22.5612176 L40.5411022,22.5612176 C39.7531878,22.5612176 39.0386954,22.0986124 38.716249,21.3796983 Z" id="Combined-Shape-Copy" fill="#000000"></path>
    </g>
</svg>