<?xml version="1.0" encoding="UTF-8"?>
<svg width="64px" height="64px" viewBox="0 0 64 64" version="1.1" xmlns="http://www.w3.org/2000/svg" xmlns:xlink="http://www.w3.org/1999/xlink">
    <title>Icon/Software Classic</title>
    <g id="Icon/Software-Classic" stroke="none" stroke-width="1" fill="none" fill-rule="evenodd">
        <path d="M60,3 C62.1421954,3 63.8910789,4.68396847 63.9951047,6.80035966 L64,7 L64,43 C64,45.1421954 62.3160315,46.8910789 60.1996403,46.9951047 L60,47 L34,47 L34,55 L42,55 C43.1045695,55 44,55.8954305 44,57 C44,58.0543618 43.1841222,58.9181651 42.1492623,58.9945143 L42,59 L22,59 C20.8954305,59 20,58.1045695 20,57 C20,55.9456382 20.8158778,55.0818349 21.8507377,55.0054857 L22,55 L30,55 L30,47 L4,47 C1.85780461,47 0.108921124,45.3160315 0.00489530723,43.1996403 L0,43 L0,7 C0,4.85780461 1.68396847,3.10892112 3.80035966,3.00489531 L4,3 L60,3 Z M60,7 L4,7 L4,43 L60,43 L60,7 Z M32,11.5 C39.4558441,11.5 45.5,17.5441559 45.5,25 C45.5,28.9485779 43.8047903,32.5012183 41.102459,34.9698332 C41.063335,35.0182868 41.0188498,35.0644503 40.9708713,35.1082144 C40.9104556,35.1633233 40.8467593,35.2125677 40.7804817,35.2559798 C38.419548,37.2779896 35.3524819,38.5 32,38.5 C24.5441559,38.5 18.5,32.4558441 18.5,25 C18.5,17.5441559 24.5441559,11.5 32,11.5 Z M27.7564447,26.5010919 L21.6064958,26.5011355 C22.3348288,31.5890231 26.7106856,35.5 32,35.5 C34.1188452,35.5 36.0911059,34.8723971 37.7410267,33.7929466 L33.5682002,29.2192112 C33.0798922,29.4007783 32.5515333,29.5 32,29.5 C30.0410798,29.5 28.3745075,28.2483101 27.7564447,26.5010919 Z M42.3935042,26.5011355 L36.2435553,26.5010919 C36.145444,26.7784454 36.020912,27.0433123 35.8729838,27.2926681 L39.9925181,31.809841 C41.2494264,30.3360648 42.1058815,28.51037 42.3935042,26.5011355 Z M32,23.5 C31.1715729,23.5 30.5,24.1715729 30.5,25 C30.5,25.8284271 31.1715729,26.5 32,26.5 C32.8284271,26.5 33.5,25.8284271 33.5,25 C33.5,24.1715729 32.8284271,23.5 32,23.5 Z M32,14.5 C29.8918603,14.5 27.9288277,15.1212769 26.2840068,16.1907261 L30.461787,20.7697606 C30.9417125,20.5952078 31.4597378,20.5 32,20.5 C33.9592959,20.5 35.6261318,21.7521701 36.2439108,23.4999135 L42.3936475,23.4998657 C41.6657452,18.41149 37.2896613,14.5 32,14.5 Z M24.027152,18.1671619 C22.7593002,19.6451683 21.8953309,21.4797724 21.6063525,23.4998657 L27.7560892,23.4999135 C27.8577494,23.2123091 27.9878172,22.9381244 28.1429211,22.680731 L24.027152,18.1671619 Z" id="Combined-Shape" fill="#000000"></path>
    </g>
</svg>