<?xml version="1.0" encoding="UTF-8"?>
<svg width="64px" height="64px" viewBox="0 0 64 64" version="1.1" xmlns="http://www.w3.org/2000/svg" xmlns:xlink="http://www.w3.org/1999/xlink">
    <title>Icon/upload</title>
    <g id="Icon/upload" stroke="none" stroke-width="1" fill="none" fill-rule="evenodd">
        <path d="M55,43.9991427 C56.0543618,43.9991427 56.9181651,44.8150205 56.9945143,45.8498804 L57,45.9991427 L57,61.9991427 C57,63.0535045 56.1841222,63.9173079 55.1492623,63.993657 L55,63.9991427 L9,63.9991427 C7.9456382,63.9991427 7.08183488,63.183265 7.00548574,62.1484051 L7,61.9991427 L7,45.9991427 C7,44.8945732 7.8954305,43.9991427 9,43.9991427 C10.0543618,43.9991427 10.9181651,44.8150205 10.9945143,45.8498804 L11,45.9991427 L11,59.9991427 L53,59.9991427 L53,45.9991427 C53,44.944781 53.8158778,44.0809776 54.8507377,44.0046285 L55,43.9991427 Z M31.9413938,0 L32.0933623,0.00128332166 L32.2276147,0.0120106802 L32.4668096,0.0539129724 L32.674475,0.115603447 L32.8146102,0.171725224 L32.953766,0.240346113 L33.0350272,0.287448238 C33.1086656,0.331576393 33.1801566,0.381454723 33.248858,0.436552333 L33.362009,0.534573103 L33.4590744,0.631260491 L48.4590744,16.6312605 C49.2145349,17.437085 49.1737068,18.7027566 48.3678823,19.4582172 C47.6044695,20.1739166 46.4283409,20.1749415 45.6643074,19.4878986 L45.5409256,19.367025 L34,7.05714275 L34,46.9991427 C34,48.1037122 33.1045695,48.9991427 32,48.9991427 C30.9456382,48.9991427 30.0818349,48.183265 30.0054857,47.1484051 L30,46.9991427 L30,7.28814275 L18.4996757,20.322386 C17.8073322,21.107042 16.6365664,21.2192351 15.8110116,20.6074883 L15.6767567,20.4988185 C14.8921007,19.8064749 14.7799076,18.6357092 15.3916545,17.8101543 L15.5003243,17.6758995 L30.5003243,0.675899475 L30.5678672,0.602997885 L30.6761311,0.499956533 L30.7708082,0.42085718 L30.8970898,0.32992029 L31.020319,0.254636762 C31.1347919,0.190493219 31.2563632,0.137057519 31.3835448,0.0959307944 L31.6105116,0.0371959762 L31.671415,0.0260219899 L31.8146512,0.00763091883 L31.9413938,0 Z" id="Combined-Shape" fill="#000000"></path>
    </g>
</svg>