<?xml version="1.0" encoding="UTF-8"?>
<svg width="64px" height="64px" viewBox="0 0 64 64" version="1.1" xmlns="http://www.w3.org/2000/svg" xmlns:xlink="http://www.w3.org/1999/xlink">
    <title>Icon/Zip-File</title>
    <g id="Icon/Zip-File" stroke="none" stroke-width="1" fill="none" fill-rule="evenodd">
        <path d="M40,0 C40.530433,0 41.0391408,0.210713681 41.4142136,0.585786438 L41.4142136,0.585786438 L55.4142136,14.5857864 C55.7892863,14.9608592 56,15.469567 56,16 L56,16 L56,62 C56,63.1045695 55.1045695,64 54,64 L54,64 L10,64 C8.8954305,64 8,63.1045695 8,62 L8,62 L8,2 C8,0.8954305 8.8954305,0 10,0 L10,0 Z M39.171,4 L12,4 L12,60 L52,60 L52,16.829 L39.171,4 Z M30,52 C31.1045695,52 32,52.8954305 32,54 C32,55.0543618 31.1841222,55.9181651 30.1492623,55.9945143 L30,56 L26,56 C24.8954305,56 24,55.1045695 24,54 C24,52.9456382 24.8158778,52.0818349 25.8507377,52.0054857 L26,52 L30,52 Z M26,48 C27.1045695,48 28,48.8954305 28,50 C28,51.0543618 27.1841222,51.9181651 26.1492623,51.9945143 L26,52 L22,52 C20.8954305,52 20,51.1045695 20,50 C20,48.9456382 20.8158778,48.0818349 21.8507377,48.0054857 L22,48 L26,48 Z M30,44 C31.1045695,44 32,44.8954305 32,46 C32,47.0543618 31.1841222,47.9181651 30.1492623,47.9945143 L30,48 L26,48 C24.8954305,48 24,47.1045695 24,46 C24,44.9456382 24.8158778,44.0818349 25.8507377,44.0054857 L26,44 L30,44 Z M26,40 C27.1045695,40 28,40.8954305 28,42 C28,43.0543618 27.1841222,43.9181651 26.1492623,43.9945143 L26,44 L22,44 C20.8954305,44 20,43.1045695 20,42 C20,40.9456382 20.8158778,40.0818349 21.8507377,40.0054857 L22,40 L26,40 Z M30,36 C31.1045695,36 32,36.8954305 32,38 C32,39.0543618 31.1841222,39.9181651 30.1492623,39.9945143 L30,40 L26,40 C24.8954305,40 24,39.1045695 24,38 C24,36.9456382 24.8158778,36.0818349 25.8507377,36.0054857 L26,36 L30,36 Z M26,32 C27.1045695,32 28,32.8954305 28,34 C28,35.0543618 27.1841222,35.9181651 26.1492623,35.9945143 L26,36 L22,36 C20.8954305,36 20,35.1045695 20,34 C20,32.9456382 20.8158778,32.0818349 21.8507377,32.0054857 L22,32 L26,32 Z M30,28 C31.1045695,28 32,28.8954305 32,30 C32,31.0543618 31.1841222,31.9181651 30.1492623,31.9945143 L30,32 L26,32 C24.8954305,32 24,31.1045695 24,30 C24,28.9456382 24.8158778,28.0818349 25.8507377,28.0054857 L26,28 L30,28 Z M30,8 C31.1045695,8 32,8.8954305 32,10 L32,10 L32,22 C32,23.1045695 31.1045695,24 30,24 L30,24 L22,24 C20.8954305,24 20,23.1045695 20,22 L20,22 L20,10 C20,8.8954305 20.8954305,8 22,8 L22,8 Z M28,12 L24,12 L24,20 L28,20 L28,12 Z" id="zip-file" fill="#000000"></path>
    </g>
</svg>